<?xml version="1.0" encoding="UTF-8" standalone="no"?>
<!-- Created with Inkscape (http://www.inkscape.org/) -->

<svg
   version="1.1"
   id="svg2"
   xml:space="preserve"
   width="993.84943"
   height="524.24091"
   viewBox="0 0 993.84943 524.24091"
   xmlns="http://www.w3.org/2000/svg"
   xmlns:svg="http://www.w3.org/2000/svg"><defs
     id="defs6" /><g
     id="g8"
     transform="matrix(1.3333333,0,0,1.3333333,0,1.7772689e-5)"><g
       id="g10"><g
         id="g12"><path
           d="m 510.551,84.137 v 93.75"
           style="fill:none;stroke:#5a5a5a;stroke-width:1.41732;stroke-linecap:butt;stroke-linejoin:miter;stroke-miterlimit:4;stroke-dasharray:8.50394, 8.50394;stroke-dashoffset:0;stroke-opacity:1"
           id="path14" /></g><g
         id="g16"><path
           d="m 470.801,134.746 h -60"
           style="fill:none;stroke:#5a5aff;stroke-width:1.70079;stroke-linecap:butt;stroke-linejoin:miter;stroke-miterlimit:4;stroke-dasharray:none;stroke-opacity:1"
           id="path18" /></g><g
         id="g20"><path
           d="m 419.699,138.863 -11.148,-4.101 11.148,-4.098 c -1.781,2.418 -1.773,5.731 0,8.199 z"
           style="fill:#5a5aff;fill-opacity:1;fill-rule:evenodd;stroke:#5a5aff;stroke-width:0.637795;stroke-linecap:butt;stroke-linejoin:round;stroke-miterlimit:4;stroke-dasharray:none;stroke-opacity:1"
           id="path22" /></g><g
         id="g24"><path
           d="m 549.551,134.781 h 60"
           style="fill:none;stroke:#007b00;stroke-width:1.70079;stroke-linecap:butt;stroke-linejoin:miter;stroke-miterlimit:4;stroke-dasharray:none;stroke-opacity:1"
           id="path26" /></g><g
         id="g28"
         transform="scale(-1)"><path
           d="m -600.652,-130.664 -11.153,-4.098 11.153,-4.101 c -1.782,2.422 -1.774,5.734 0,8.199 z"
           style="fill:#007b00;fill-opacity:1;fill-rule:evenodd;stroke:#007b00;stroke-width:0.637795;stroke-linecap:butt;stroke-linejoin:round;stroke-miterlimit:4;stroke-dasharray:none;stroke-opacity:1"
           id="path30" /></g><text
         transform="translate(146.42048,202.03157)"
         style="font-variant:normal;font-weight:normal;font-size:12px;font-family:'DejaVu Sans Mono';-inkscape-font-specification:DejaVuSansMono;writing-mode:lr-tb;fill:#000000;fill-opacity:1;fill-rule:nonzero;stroke:none"
         id="text38"><tspan
           x="0 7.2239938 14.447988 21.671982 28.895975 36.119968 43.343964 50.567959 57.79195 65.015945 72.239937 79.463936 86.687927 93.911919 101.13592 108.35991"
           y="0"
           id="tspan32">rcu_read_lock();</tspan><tspan
           x="0 7.2239938 14.447988 21.671982 28.895975 36.119968 43.343964 50.567959 57.79195"
           y="14.999987"
           id="tspan34">mcp = ...</tspan><tspan
           x="0 7.2239938 14.447988 21.671982 28.895975 36.119968 43.343964 50.567959 57.79195 65.015945 72.239937 79.463936 86.687927 93.911919 101.13592 108.35991"
           y="29.999975"
           id="tspan36">*cur_a = mcp-&gt;a;</tspan></text><text
         transform="translate(265.34038,232.03154)"
         style="font-variant:normal;font-weight:normal;font-size:12px;font-family:'Nimbus Sans';-inkscape-font-specification:NimbusSans-Regular;writing-mode:lr-tb;fill:#000000;fill-opacity:1;fill-rule:nonzero;stroke:none"
         id="text42"><tspan
           x="0 3.9959967 10.667991"
           y="0"
           id="tspan40">(5)</tspan></text><g
         id="g44"><path
           d="m 15.551,241.637 h 697.5"
           style="fill:none;stroke:#5a5a5a;stroke-width:1.41732;stroke-linecap:butt;stroke-linejoin:miter;stroke-miterlimit:4;stroke-dasharray:8.50394, 8.50394;stroke-dashoffset:0;stroke-opacity:1"
           id="path46" /></g><text
         transform="translate(146.42048,261.28153)"
         style="font-variant:normal;font-weight:normal;font-size:12px;font-family:'DejaVu Sans Mono';-inkscape-font-specification:DejaVuSansMono;writing-mode:lr-tb;fill:#000000;fill-opacity:1;fill-rule:nonzero;stroke:none"
         id="text50"><tspan
           x="0 7.2239938 14.447988 21.671982 28.895975 36.119968 43.343964 50.567959 57.79195 65.015945 72.239937 79.463936 86.687927 93.911919 101.13592 108.35991"
           y="0"
           id="tspan48">*cur_b = mcp-&gt;b;</tspan></text><text
         transform="translate(265.34038,261.28153)"
         style="font-variant:normal;font-weight:normal;font-size:12px;font-family:'Nimbus Sans';-inkscape-font-specification:NimbusSans-Regular;writing-mode:lr-tb;fill:#000000;fill-opacity:1;fill-rule:nonzero;stroke:none"
         id="text54"><tspan
           x="0 3.9959967 10.667991 17.339985"
           y="0"
           id="tspan52">(25)</tspan></text><text
         transform="translate(146.42048,276.65071)"
         style="font-variant:normal;font-weight:normal;font-size:12px;font-family:'DejaVu Sans Mono';-inkscape-font-specification:DejaVuSansMono;writing-mode:lr-tb;fill:#000000;fill-opacity:1;fill-rule:nonzero;stroke:none"
         id="text68"><tspan
           x="0 7.2239938 14.447988 21.671982 28.895975 36.119968 43.343964 50.567959 57.79195 65.015945 72.239937 79.463936 86.687927 93.911919 101.13592 108.35991 115.5839 122.8079"
           y="0"
           id="tspan56">rcu_read_unlock();</tspan><tspan
           x="209.59706 216.82104 224.04504 231.26904 238.49303 245.71703 252.94102 260.16501 267.38901 274.61301 281.83701 289.061 296.28497 303.50897 310.73297 317.95697 325.18097 332.40497"
           y="-59.367214"
           id="tspan58">mcp = kmalloc(...)</tspan><tspan
           x="209.59706 216.82104 224.04504 231.26904 238.49303 245.71703 252.94102 260.16501 267.38901 274.61301 281.83701 289.061 296.28497 303.50897 310.73297 317.95697 325.18097 332.40497 339.62894 346.85294 354.07693 361.30093 368.52493 375.74893 382.9729 390.1969 397.4209 404.6449"
           y="-44.367226"
           id="tspan60">mcp = xchg(&amp;curconfig, mcp);</tspan><tspan
           x="208.98766 216.21165 223.43565 230.65964 237.88364 245.10764 252.33162 259.55563 266.7796 274.0036 281.2276 288.4516 295.6756 302.8996 310.12357 317.34756 324.57156 331.79556"
           y="-15.369179"
           id="tspan62">synchronize_rcu();</tspan><tspan
           x="208.98766 216.21165 223.43565"
           y="-0.36919168"
           id="tspan64">...</tspan><tspan
           x="208.98766 216.21165 223.43565"
           y="14.630796"
           id="tspan66">...</tspan></text><g
         id="g70"><path
           d="m 15.551,301.637 h 697.5"
           style="fill:none;stroke:#5a5a5a;stroke-width:1.41732;stroke-linecap:butt;stroke-linejoin:miter;stroke-miterlimit:4;stroke-dasharray:8.50394, 8.50394;stroke-dashoffset:0;stroke-opacity:1"
           id="path72" /></g><text
         transform="translate(355.27337,321.20714)"
         style="font-variant:normal;font-weight:normal;font-size:12px;font-family:'DejaVu Sans Mono';-inkscape-font-specification:DejaVuSansMono;writing-mode:lr-tb;fill:#000000;fill-opacity:1;fill-rule:nonzero;stroke:none"
         id="text82"><tspan
           x="0 7.2239938 14.447988 21.671982 28.895975 36.119968 43.343964 50.567959 57.79195 65.015945 72.239937"
           y="0"
           id="tspan74">kfree(mcp);</tspan><tspan
           x="205.90611 213.13011 220.3541 227.57809 234.80209 242.02608 249.25008 256.47406 263.69806 270.92206 278.14606 285.37006 292.59406 299.81802 307.04202 314.26602"
           y="-47.421703"
           id="tspan76">rcu_read_lock();</tspan><tspan
           x="205.90611 213.13011 220.3541 227.57809 234.80209 242.02608 249.25008 256.47406 263.69806"
           y="-32.421719"
           id="tspan78">mcp = ...</tspan><tspan
           x="205.57211 212.79611 220.0201 227.24409 234.46809 241.69208 248.91608 256.14008 263.36407 270.58804 277.81204 285.03604 292.26004 299.48404 306.70804 313.93201"
           y="-0.21094783"
           id="tspan80">*cur_a = mcp-&gt;a;</tspan></text><text
         transform="translate(679.76538,320.9962)"
         style="font-variant:normal;font-weight:normal;font-size:12px;font-family:'Nimbus Sans';-inkscape-font-specification:NimbusSans-Regular;writing-mode:lr-tb;fill:#000000;fill-opacity:1;fill-rule:nonzero;stroke:none"
         id="text86"><tspan
           x="0 3.9959967 10.667991"
           y="0"
           id="tspan84">(9)</tspan></text><text
         transform="translate(560.84548,336.36538)"
         style="font-variant:normal;font-weight:normal;font-size:12px;font-family:'DejaVu Sans Mono';-inkscape-font-specification:DejaVuSansMono;writing-mode:lr-tb;fill:#000000;fill-opacity:1;fill-rule:nonzero;stroke:none"
         id="text90"><tspan
           x="0 7.2239938 14.447988 21.671982 28.895975 36.119968 43.343964 50.567959 57.79195 65.015945 72.239937 79.463936 86.687927 93.911919 101.13592 108.35991"
           y="0"
           id="tspan88">*cur_b = mcp-&gt;b;</tspan></text><text
         transform="translate(679.76538,336.36538)"
         style="font-variant:normal;font-weight:normal;font-size:12px;font-family:'Nimbus Sans';-inkscape-font-specification:NimbusSans-Regular;writing-mode:lr-tb;fill:#000000;fill-opacity:1;fill-rule:nonzero;stroke:none"
         id="text94"><tspan
           x="0 3.9959967 10.667991 17.339985"
           y="0"
           id="tspan92">(81)</tspan></text><text
         transform="translate(560.84548,351.73456)"
         style="font-variant:normal;font-weight:normal;font-size:12px;font-family:'DejaVu Sans Mono';-inkscape-font-specification:DejaVuSansMono;writing-mode:lr-tb;fill:#000000;fill-opacity:1;fill-rule:nonzero;stroke:none"
         id="text98"><tspan
           x="0 7.2239938 14.447988 21.671982 28.895975 36.119968 43.343964 50.567959 57.79195 65.015945 72.239937 79.463936 86.687927 93.911919 101.13592 108.35991 115.5839 122.8079"
           y="0"
           id="tspan96">rcu_read_unlock();</tspan></text><text
         transform="translate(361.69969,138.43983)"
         style="font-variant:normal;font-weight:normal;font-size:12px;font-family:'Nimbus Sans';-inkscape-font-specification:NimbusSans-Regular;writing-mode:lr-tb;fill:#000000;fill-opacity:1;fill-rule:nonzero;stroke:none"
         id="text102"><tspan
           x="0 6.6719942"
           y="0"
           id="tspan100">5,</tspan></text><g
         id="g104"><path
           d="m 326.051,116.012 h 82.5 v 37.5 h -82.5 z"
           style="fill:#78b4ff;fill-opacity:1;fill-rule:nonzero;stroke:#000000;stroke-width:0.566929;stroke-linecap:butt;stroke-linejoin:miter;stroke-miterlimit:4;stroke-dasharray:none;stroke-opacity:1"
           id="path106" /></g><text
         transform="translate(354.00342,138.51892)"
         style="font-variant:normal;font-weight:normal;font-size:12px;font-family:'Nimbus Sans';-inkscape-font-specification:NimbusSans-Regular;writing-mode:lr-tb;fill:#000000;fill-opacity:1;fill-rule:nonzero;stroke:none"
         id="text112"><tspan
           x="0 6.6719942 10.007992 16.679987"
           y="0"
           id="tspan108">5,25</tspan><tspan
           x="293.44632 300.11832"
           y="-0.079088576"
           id="tspan110">5,</tspan></text><g
         id="g114"><path
           d="m 611.801,116.012 h 82.5 v 37.5 h -82.5 z"
           style="fill:#78ff78;fill-opacity:1;fill-rule:nonzero;stroke:#000000;stroke-width:0.566929;stroke-linecap:butt;stroke-linejoin:miter;stroke-miterlimit:4;stroke-dasharray:none;stroke-opacity:1"
           id="path116" /></g><text
         transform="translate(639.8677,138.51892)"
         style="font-variant:normal;font-weight:normal;font-size:12px;font-family:'Nimbus Sans';-inkscape-font-specification:NimbusSans-Regular;writing-mode:lr-tb;fill:#000000;fill-opacity:1;fill-rule:nonzero;stroke:none"
         id="text122"><tspan
           x="0 6.6719942 10.007992 16.679987"
           y="0"
           id="tspan118">9,81</tspan><tspan
           x="-136.38251 -129.71051"
           y="-0.079085216"
           id="tspan120">5,</tspan></text><g
         id="g124"><path
           d="m 470.801,123.512 h 78.75 v 22.5 h -78.75 z"
           style="fill:#c8c8c8;fill-opacity:1;fill-rule:nonzero;stroke:#000000;stroke-width:0.566929;stroke-linecap:butt;stroke-linejoin:miter;stroke-miterlimit:4;stroke-dasharray:none;stroke-opacity:1"
           id="path126" /></g><text
         transform="translate(476.56429,138.0326)"
         style="font-variant:normal;font-weight:normal;font-size:12px;font-family:'DejaVu Sans Mono';-inkscape-font-specification:DejaVuSansMono;writing-mode:lr-tb;fill:#000000;fill-opacity:1;fill-rule:nonzero;stroke:none"
         id="text130"><tspan
           x="0 7.2239938 14.447988 21.671982 28.895975 36.119968 43.343964 50.567959 57.79195"
           y="0"
           id="tspan128">curconfig</tspan></text><g
         id="g132"><path
           d="m 326.801,134.746 c -50.809,-10.004 -121.016,-29.191 -161.25,-9.359 -17.485,9.238 -31.094,27.293 -34.199,46.203 -2.059,12.543 11.699,36.297 11.699,36.297"
           style="fill:none;stroke:#5a5aff;stroke-width:1.70079;stroke-linecap:butt;stroke-linejoin:miter;stroke-miterlimit:4;stroke-dasharray:6.80315, 3.40158, 1.70079, 3.40158;stroke-dashoffset:0;stroke-opacity:1"
           id="path134" /></g><g
         id="g136"
         transform="matrix(-0.579218,-1,1,-0.579218,0,0)"><path
           d="m -210.006,20.513 -9.65,-3.546 9.649,-3.548 c -1.542,2.095 -1.533,4.96 0.001,7.094 z"
           style="fill:#5a5aff;fill-opacity:1;fill-rule:evenodd;stroke:#5a5aff;stroke-width:0.5519;stroke-linecap:butt;stroke-linejoin:round;stroke-miterlimit:4;stroke-dasharray:none;stroke-opacity:1"
           id="path138" /></g><g
         id="g140"><path
           d="m 326.801,153.137 c 0,0 -23.469,17.414 -26.067,30.543 -1.914,9.66 2.364,20.965 9.164,28.082 9.7,10.152 39.403,14.875 39.403,14.875"
           style="fill:none;stroke:#5a5aff;stroke-width:1.70079;stroke-linecap:butt;stroke-linejoin:miter;stroke-miterlimit:4;stroke-dasharray:6.80315, 3.40158, 1.70079, 3.40158;stroke-dashoffset:0;stroke-opacity:1"
           id="path142" /></g><g
         id="g144"
         transform="matrix(-1,-0.159092,0.159092,-1,0,0)"><path
           d="m -367.057,-162.78 -11.011,-4.049 11.008,-4.048 c -1.757,2.389 -1.748,5.661 0.003,8.097 z"
           style="fill:#5a5aff;fill-opacity:1;fill-rule:evenodd;stroke:#5a5aff;stroke-width:0.629874;stroke-linecap:butt;stroke-linejoin:round;stroke-miterlimit:4;stroke-dasharray:none;stroke-opacity:1"
           id="path146" /></g><g
         id="g148"><path
           d="m 559.301,234.137 c 0,0 24.976,12.64 34.078,5.593 8.75,-6.773 8.367,-23.386 2.996,-33.058 -9.527,-17.149 -36.586,-15.086 -52.566,-26.465 -12.594,-8.965 -33.258,-32.32 -33.258,-32.32"
           style="fill:none;stroke:#007b00;stroke-width:1.70079;stroke-linecap:butt;stroke-linejoin:miter;stroke-miterlimit:4;stroke-dasharray:10.2047, 3.40158;stroke-dashoffset:0;stroke-opacity:1"
           id="path150" /></g><g
         id="g152"
         transform="matrix(0.88488,1,-1,0.88488,0,0)"><path
           d="m 342.983,-209.865 -8.349,-3.071 8.349,-3.069 c -1.334,1.811 -1.326,4.292 0,6.14 z"
           style="fill:#007b00;fill-opacity:1;fill-rule:evenodd;stroke:#007b00;stroke-width:0.477644;stroke-linecap:butt;stroke-linejoin:round;stroke-miterlimit:4;stroke-dasharray:none;stroke-opacity:1"
           id="path154" /></g><g
         id="g156"><path
           d="m 694.301,153.137 c 23.039,8.929 27.234,25.941 33.75,47.25 5.105,19.093 2.23,50.25 -13.383,66.691 -18.148,19.117 -76.617,19.559 -76.617,19.559"
           style="fill:none;stroke:#007b00;stroke-width:1.70079;stroke-linecap:butt;stroke-linejoin:miter;stroke-miterlimit:4;stroke-dasharray:10.2047, 3.40158;stroke-dashoffset:0;stroke-opacity:1"
           id="path158" /></g><g
         id="g160"
         transform="matrix(1,-0.00758194,0.00758194,1,0,0)"><path
           d="m 644.739,295.576 -11.148,-4.1 11.148,-4.099 c -1.78,2.42 -1.77,5.732 0,8.199 z"
           style="fill:#007b00;fill-opacity:1;fill-rule:evenodd;stroke:#007b00;stroke-width:0.637777;stroke-linecap:butt;stroke-linejoin:round;stroke-miterlimit:4;stroke-dasharray:none;stroke-opacity:1"
           id="path162" /></g><g
         id="g164"><path
           d="m 353.051,252.887 -90,-48.75"
           style="fill:none;stroke:#000000;stroke-width:1.70079;stroke-linecap:butt;stroke-linejoin:miter;stroke-miterlimit:4;stroke-dasharray:1.70079, 1.70079;stroke-dashoffset:0;stroke-opacity:1"
           id="path166" /></g><g
         id="g168"
         transform="matrix(1,0.541667,-0.541667,1,0,0)"><path
           d="m 296.694,51.287 -9.805,-3.607 9.806,-3.604 c -1.566,2.129 -1.56,5.039 -10e-4,7.211 z"
           style="fill:#000000;fill-opacity:1;fill-rule:evenodd;stroke:#000000;stroke-width:0.560808;stroke-linecap:butt;stroke-linejoin:round;stroke-miterlimit:4;stroke-dasharray:none;stroke-opacity:1"
           id="path170" /></g><g
         id="g172"><path
           d="m 559.301,267.887 -71.25,-7.5"
           style="fill:none;stroke:#000000;stroke-width:1.70079;stroke-linecap:butt;stroke-linejoin:miter;stroke-miterlimit:4;stroke-dasharray:1.70079, 1.70079;stroke-dashoffset:0;stroke-opacity:1"
           id="path174" /></g><g
         id="g176"
         transform="matrix(1,0.105263,-0.105263,1,0,0)"><path
           d="m 518.66,210.818 -11.089,-4.079 11.09,-4.077 c -1.774,2.409 -1.763,5.701 -10e-4,8.156 z"
           style="fill:#000000;fill-opacity:1;fill-rule:evenodd;stroke:#000000;stroke-width:0.634291;stroke-linecap:butt;stroke-linejoin:round;stroke-miterlimit:4;stroke-dasharray:none;stroke-opacity:1"
           id="path178" /></g><g
         id="g180"><path
           d="m 276.551,279.137 75,33.75"
           style="fill:none;stroke:#000000;stroke-width:1.70079;stroke-linecap:butt;stroke-linejoin:miter;stroke-miterlimit:4;stroke-dasharray:1.70079, 1.70079;stroke-dashoffset:0;stroke-opacity:1"
           id="path182" /></g><g
         id="g184"
         transform="matrix(-1,-0.45,0.45,-1,0,0)"><path
           d="m -401.328,-124.887 -10.166,-3.737 10.168,-3.74 c -1.624,2.207 -1.616,5.227 -0.002,7.477 z"
           style="fill:#000000;fill-opacity:1;fill-rule:evenodd;stroke:#000000;stroke-width:0.581619;stroke-linecap:butt;stroke-linejoin:round;stroke-miterlimit:4;stroke-dasharray:none;stroke-opacity:1"
           id="path186" /></g><g
         id="g188"><path
           d="m 326.801,84.137 h 401.25"
           style="fill:none;stroke:#5a5a5a;stroke-width:1.41732;stroke-linecap:butt;stroke-linejoin:miter;stroke-miterlimit:4;stroke-dasharray:none;stroke-opacity:1"
           id="path190" /></g><g
         id="g192"
         transform="scale(-1)"><path
           d="m -712.898,-77.848 -17.036,-6.265 17.036,-6.262 c -2.723,3.695 -2.707,8.758 0,12.527 z"
           style="fill:#5a5a5a;fill-opacity:1;fill-rule:evenodd;stroke:#5a5a5a;stroke-width:0.974409;stroke-linecap:butt;stroke-linejoin:round;stroke-miterlimit:4;stroke-dasharray:none;stroke-opacity:1"
           id="path194" /></g><text
         transform="translate(431.05239,72.888069)"
         style="font-variant:normal;font-weight:normal;font-size:22px;font-family:'Nimbus Sans';-inkscape-font-specification:NimbusSans-Regular;writing-mode:lr-tb;fill:#000000;fill-opacity:1;fill-rule:nonzero;stroke:none"
         id="text198"><tspan
           x="0 14.519998 26.751995 38.983994 46.089993 58.23399 69.233986 80.233986 86.349983 101.02398 113.25598 125.48798 136.66397"
           y="0"
           id="tspan196">Address Space</tspan></text><g
         id="g200"><path
           d="m 86.801,42.887 v 333.75"
           style="fill:none;stroke:#5a5a5a;stroke-width:1.41732;stroke-linecap:butt;stroke-linejoin:miter;stroke-miterlimit:4;stroke-dasharray:none;stroke-opacity:1"
           id="path202" /></g><g
         id="g204"
         transform="rotate(-90)"><path
           d="m -361.484,93.09 -17.036,-6.262 17.036,-6.266 c -2.723,3.7 -2.707,8.758 0,12.528 z"
           style="fill:#5a5a5a;fill-opacity:1;fill-rule:evenodd;stroke:#5a5a5a;stroke-width:0.974409;stroke-linecap:butt;stroke-linejoin:round;stroke-miterlimit:4;stroke-dasharray:none;stroke-opacity:1"
           id="path206" /></g><text
         transform="translate(59.80239,30.888072)"
         style="font-variant:normal;font-weight:normal;font-size:22px;font-family:'Nimbus Sans';-inkscape-font-specification:NimbusSans-Regular;writing-mode:lr-tb;fill:#000000;fill-opacity:1;fill-rule:nonzero;stroke:none"
         id="text210"><tspan
           x="0 13.375998 18.259996 36.585995"
           y="0"
           id="tspan208">Time</tspan></text><g
         id="g212"><path
           d="m 75.551,153.887 v 146.25"
           style="fill:none;stroke:#5a5aff;stroke-width:1.70079;stroke-linecap:butt;stroke-linejoin:miter;stroke-miterlimit:4;stroke-dasharray:6.80315, 3.40158, 1.70079, 3.40158;stroke-dashoffset:0;stroke-opacity:1"
           id="path214" /></g><g
         id="g216"
         transform="rotate(-90)"><path
           d="m -291.242,79.668 -11.149,-4.102 11.149,-4.097 c -1.781,2.418 -1.77,5.73 0,8.199 z"
           style="fill:#5a5aff;fill-opacity:1;fill-rule:evenodd;stroke:#5a5aff;stroke-width:0.637795;stroke-linecap:butt;stroke-linejoin:round;stroke-miterlimit:4;stroke-dasharray:none;stroke-opacity:1"
           id="path218" /></g><g
         id="g220"><path
           d="M 59.801,357.887 V 244.961"
           style="fill:none;stroke:#007b00;stroke-width:1.70079;stroke-linecap:butt;stroke-linejoin:miter;stroke-miterlimit:4;stroke-dasharray:10.2047, 3.40158;stroke-dashoffset:0;stroke-opacity:1"
           id="path222" /></g><g
         id="g224"
         transform="rotate(90)"><path
           d="m 253.855,-55.684 -11.148,-4.101 11.148,-4.102 c -1.781,2.422 -1.769,5.735 0,8.203 z"
           style="fill:#007b00;fill-opacity:1;fill-rule:evenodd;stroke:#007b00;stroke-width:0.637795;stroke-linecap:butt;stroke-linejoin:round;stroke-miterlimit:4;stroke-dasharray:none;stroke-opacity:1"
           id="path226" /></g><text
         transform="rotate(-90,138.21179,68.679327)"
         style="font-variant:normal;font-weight:normal;font-size:12px;font-family:'Nimbus Sans';-inkscape-font-specification:NimbusSans-Regular;writing-mode:lr-tb;fill:#5a5aff;fill-opacity:1;fill-rule:nonzero;stroke:none"
         id="text230"><tspan
           x="0 8.543993 15.131988 21.803982 28.475977 35.147972 39.203968"
           y="0"
           id="tspan228">Readers</tspan></text><text
         transform="rotate(-90,156.01696,132.3748)"
         style="font-variant:normal;font-weight:normal;font-size:12px;font-family:'Nimbus Sans';-inkscape-font-specification:NimbusSans-Regular;writing-mode:lr-tb;fill:#000000;fill-opacity:1;fill-rule:nonzero;stroke:none"
         id="text236"><tspan
           x="0 9.3359919 13.283989 19.955984 26.027979"
           y="0"
           id="tspan232">Grace</tspan><tspan
           x="-1.3620229 6.281971 12.953965 16.949963 19.61396 26.285954"
           y="13.318129"
           id="tspan234">Period</tspan></text><text
         transform="rotate(-90,217.28643,142.83467)"
         style="font-variant:normal;font-weight:normal;font-size:12px;font-family:'Nimbus Sans';-inkscape-font-specification:NimbusSans-Regular;writing-mode:lr-tb;fill:#007b00;fill-opacity:1;fill-rule:nonzero;stroke:none"
         id="text240"><tspan
           x="0 8.543993 15.131988 21.803982 28.475977 35.147972 39.203968"
           y="0"
           id="tspan238">Readers</tspan></text><g
         id="g242"><path
           d="m 47.051,245.387 v 52.5"
           style="fill:none;stroke:#5a5aff;stroke-width:1.70079;stroke-linecap:butt;stroke-linejoin:miter;stroke-miterlimit:4;stroke-dasharray:none;stroke-opacity:1"
           id="path244" /></g><g
         id="g246"
         transform="rotate(90)"><path
           d="m 254.285,-42.934 -11.148,-4.101 11.148,-4.102 c -1.781,2.422 -1.769,5.735 0,8.203 z"
           style="fill:#5a5aff;fill-opacity:1;fill-rule:evenodd;stroke:#5a5aff;stroke-width:0.637795;stroke-linecap:butt;stroke-linejoin:round;stroke-miterlimit:4;stroke-dasharray:none;stroke-opacity:1"
           id="path248" /></g><g
         id="g250"
         transform="rotate(-90)"><path
           d="m -288.992,51.168 -11.149,-4.102 11.149,-4.097 c -1.781,2.418 -1.77,5.73 0,8.199 z"
           style="fill:#5a5aff;fill-opacity:1;fill-rule:evenodd;stroke:#5a5aff;stroke-width:0.637795;stroke-linecap:butt;stroke-linejoin:round;stroke-miterlimit:4;stroke-dasharray:none;stroke-opacity:1"
           id="path252" /></g></g></g></svg>
