<?xml version="1.0" encoding="UTF-8" standalone="no"?>
<!-- Created with Inkscape (http://www.inkscape.org/) -->

<svg
   version="1.1"
   id="svg2"
   xml:space="preserve"
   width="731.13184"
   height="1042.3079"
   viewBox="0 0 731.13184 1042.3079"
   xmlns="http://www.w3.org/2000/svg"
   xmlns:svg="http://www.w3.org/2000/svg"><defs
     id="defs6" /><g
     id="g8"
     transform="matrix(1.3333333,0,0,1.3333333,0,-1.6608968e-5)"><g
       id="g10"><g
         id="g12"><path
           d="m 58.574,550.988 h 48.75"
           style="fill:none;stroke:#000000;stroke-width:1.70079;stroke-linecap:butt;stroke-linejoin:miter;stroke-miterlimit:4;stroke-dasharray:none;stroke-opacity:1"
           id="path14" /></g><g
         id="g16"
         transform="scale(-1)"><path
           d="m -98.43,-546.875 -11.148,-4.098 11.148,-4.101 c -1.781,2.422 -1.769,5.734 0,8.199 z"
           style="fill:#000000;fill-opacity:1;fill-rule:evenodd;stroke:#000000;stroke-width:0.637795;stroke-linecap:butt;stroke-linejoin:round;stroke-miterlimit:4;stroke-dasharray:none;stroke-opacity:1"
           id="path18" /></g><g
         id="g20"><path
           d="m 15.824,603.492 h 174.602 v 86.25 H 15.824 Z"
           style="fill:none;stroke:#000000;stroke-width:1.13386;stroke-linecap:butt;stroke-linejoin:miter;stroke-miterlimit:4;stroke-dasharray:none;stroke-opacity:1"
           id="path22" /></g><text
         transform="translate(54.048018,620.78852)"
         style="font-variant:normal;font-weight:normal;font-size:12px;font-family:'Liberation Sans';-inkscape-font-specification:LiberationSans;writing-mode:lr-tb;fill:#000000;fill-opacity:1;fill-rule:nonzero;stroke:none"
         id="text26"><tspan
           x="0 7.9919934 14.663988 21.335981 23.999981 26.663979 32.663971 39.335968 42.659966 50.651958 57.323952 63.995945 69.995941 75.995934 79.991936 82.65593 89.327927"
           y="0"
           id="tspan24">Publish/Subscribe</tspan></text><text
         transform="translate(24.004225,664.44217)"
         style="font-variant:normal;font-weight:normal;font-size:12px;font-family:'Liberation Mono';-inkscape-font-specification:LiberationMono;writing-mode:lr-tb;fill:#000000;fill-opacity:1;fill-rule:nonzero;stroke:none"
         id="text30"><tspan
           x="0 7.1999941 14.399988 21.599981 28.799976 35.999969 43.199963 50.39996 57.599953 64.79995 71.999939 79.199936 86.399925 93.599922 100.79992 107.99991 115.19991 122.39989 129.5999 136.79988"
           y="0"
           id="tspan28">rcu_assign_pointer()</tspan></text><text
         transform="translate(171.3281,664.44217)"
         style="font-variant:normal;font-weight:normal;font-size:12px;font-family:'Liberation Sans';-inkscape-font-specification:LiberationSans;writing-mode:lr-tb;fill:#000000;fill-opacity:1;fill-rule:nonzero;stroke:none"
         id="text34"><tspan
           x="0"
           y="0"
           id="tspan32">&amp;</tspan></text><g
         id="g36"><path
           d="m 190.422,645.492 -176.25,0.75"
           style="fill:none;stroke:#000000;stroke-width:1.70079;stroke-linecap:butt;stroke-linejoin:miter;stroke-miterlimit:4;stroke-dasharray:1.70079, 1.70079;stroke-dashoffset:0;stroke-opacity:1"
           id="path38" /></g><text
         transform="translate(47.717112,635.74073)"
         style="font-variant:normal;font-weight:normal;font-size:12px;font-family:'Liberation Sans';-inkscape-font-specification:LiberationSans;writing-mode:lr-tb;fill:#000000;fill-opacity:1;fill-rule:nonzero;stroke:none"
         id="text42"><tspan
           x="0 7.319994 13.991988 17.987986 21.311983 27.983976 30.647974 37.319969 43.319965 49.991959 56.663952 59.987949 67.979942 71.30394 75.299934 81.971931 87.971924 91.295921 97.967918 101.96391"
           y="0"
           id="tspan40">For Linked Structure</tspan></text><text
         transform="translate(41.388941,680.87673)"
         style="font-variant:normal;font-weight:normal;font-size:12px;font-family:'Liberation Mono';-inkscape-font-specification:LiberationMono;writing-mode:lr-tb;fill:#000000;fill-opacity:1;fill-rule:nonzero;stroke:none"
         id="text46"><tspan
           x="0 7.1999941 14.399988 21.599981 28.799976 35.999969 43.199963 50.39996 57.599953 64.79995 71.999939 79.199936 86.399925 93.599922 100.79992 107.99991 115.19991"
           y="0"
           id="tspan44">rcu_dereference()</tspan></text><g
         id="g48"><path
           d="m 252.824,691.992 h 258.75 v 75 h -258.75 z"
           style="fill:none;stroke:#000000;stroke-width:1.13386;stroke-linecap:butt;stroke-linejoin:miter;stroke-miterlimit:4;stroke-dasharray:none;stroke-opacity:1"
           id="path50" /></g><text
         transform="translate(284.19642,712.28844)"
         style="font-variant:normal;font-weight:normal;font-size:12px;font-family:'Liberation Sans';-inkscape-font-specification:LiberationSans;writing-mode:lr-tb;fill:#000000;fill-opacity:1;fill-rule:nonzero;stroke:none"
         id="text54"><tspan
           x="0 10.871991 17.543985 20.207983 23.531981 26.855978 30.179976 36.851971 40.847965 44.171963 52.163956 56.159954 62.831947 66.827942 74.819939 80.819931 83.483932 89.483925 92.807922 95.471924 102.14391 108.81591 111.9239 119.2439 125.91589 128.5799 135.25189 141.92389 147.92387 151.24788 154.57187 161.24387 164.56786 171.88786 174.55185 181.22385 183.88785 189.88785"
           y="0"
           id="tspan52">Wait for Pre-Existing Things to Finish</tspan></text><text
         transform="translate(259.94449,740.98725)"
         style="font-variant:normal;font-weight:normal;font-size:12px;font-family:'Liberation Mono';-inkscape-font-specification:LiberationMono;writing-mode:lr-tb;fill:#000000;fill-opacity:1;fill-rule:nonzero;stroke:none"
         id="text58"><tspan
           x="0 7.1999941 14.399988 21.599981 28.799976 35.999969 43.199963 50.39996 57.599953 64.79995 71.999939 79.199936 86.399925 93.599922 100.79992"
           y="0"
           id="tspan56">rcu_read_lock()</tspan></text><text
         transform="translate(371.26839,740.98725)"
         style="font-variant:normal;font-weight:normal;font-size:12px;font-family:'Liberation Sans';-inkscape-font-specification:LiberationSans;writing-mode:lr-tb;fill:#000000;fill-opacity:1;fill-rule:nonzero;stroke:none"
         id="text62"><tspan
           x="0 7.9919934"
           y="0"
           id="tspan60">&amp; </tspan></text><text
         transform="translate(382.58438,740.98725)"
         style="font-variant:normal;font-weight:normal;font-size:12px;font-family:'Liberation Mono';-inkscape-font-specification:LiberationMono;writing-mode:lr-tb;fill:#000000;fill-opacity:1;fill-rule:nonzero;stroke:none"
         id="text66"><tspan
           x="0 7.1999941 14.399988 21.599981 28.799976 35.999969 43.199963 50.39996 57.599953 64.79995 71.999939 79.199936 86.399925 93.599922 100.79992 107.99991 115.19991"
           y="0"
           id="tspan64">rcu_read_unlock()</tspan></text><g
         id="g68"><path
           d="M 511.574,722.742 H 252.824"
           style="fill:none;stroke:#000000;stroke-width:1.70079;stroke-linecap:butt;stroke-linejoin:miter;stroke-miterlimit:4;stroke-dasharray:1.70079, 1.70079;stroke-dashoffset:0;stroke-opacity:1"
           id="path70" /></g><text
         transform="translate(311.32823,756.73698)"
         style="font-variant:normal;font-weight:normal;font-size:12px;font-family:'Nimbus Sans';-inkscape-font-specification:NimbusSans-Regular;writing-mode:lr-tb;fill:#000000;fill-opacity:1;fill-rule:nonzero;stroke:none"
         id="text74"><tspan
           x="0 5.903995 11.78399 15.119987"
           y="0"
           id="tspan72">vs. </tspan></text><text
         transform="translate(329.78422,756.73698)"
         style="font-variant:normal;font-weight:normal;font-size:12px;font-family:'Liberation Mono';-inkscape-font-specification:LiberationMono;writing-mode:lr-tb;fill:#000000;fill-opacity:1;fill-rule:nonzero;stroke:none"
         id="text78"><tspan
           x="0 7.1999941 14.399988 21.599981 28.799976 35.999969 43.199963 50.39996 57.599953 64.79995 71.999939 79.199936 86.399925 93.599922 100.79992 107.99991 115.19991"
           y="0"
           id="tspan76">synchronize_rcu()</tspan></text><g
         id="g80"><path
           d="m 293.324,601.992 h 176.25 v 56.25 h -176.25 z"
           style="fill:none;stroke:#000000;stroke-width:1.13386;stroke-linecap:butt;stroke-linejoin:miter;stroke-miterlimit:4;stroke-dasharray:none;stroke-opacity:1"
           id="path82" /></g><text
         transform="translate(322.51379,620.8953)"
         style="font-variant:normal;font-weight:normal;font-size:12px;font-family:'Liberation Sans';-inkscape-font-specification:LiberationSans;writing-mode:lr-tb;fill:#000000;fill-opacity:1;fill-rule:nonzero;stroke:none"
         id="text86"><tspan
           x="0 7.9919934 14.663988 21.335981 27.335978 34.007973 40.679966 44.003963 51.995956 55.319954 61.991947 65.315948 71.987938 75.311935 83.975929 90.647926 97.319916 103.99191 110.66391"
           y="0"
           id="tspan84">Phased State Change</tspan></text><text
         transform="translate(299.28626,649.53865)"
         style="font-variant:normal;font-weight:normal;font-size:12px;font-family:'Nimbus Sans';-inkscape-font-specification:NimbusSans-Regular;writing-mode:lr-tb;fill:#000000;fill-opacity:1;fill-rule:nonzero;stroke:none"
         id="text90"><tspan
           x="0 7.0079942 10.343991 19.007984 25.679979 32.351974 38.423969 44.171963 50.843956 57.515953 60.851948 66.815941 70.151939 76.667938 79.83593 86.507927 89.843925 95.639923 102.31191 106.30791 108.97191 115.64391 122.3159 124.9799"
           y="0"
           id="tspan88">+ Checked state variable</tspan></text><g
         id="g92"><path
           d="M 469.574,631.992 H 293.324"
           style="fill:none;stroke:#000000;stroke-width:1.70079;stroke-linecap:butt;stroke-linejoin:miter;stroke-miterlimit:4;stroke-dasharray:1.70079, 1.70079;stroke-dashoffset:0;stroke-opacity:1"
           id="path94" /></g><g
         id="g96"><path
           d="m 382.215,691.992 v -31.18"
           style="fill:none;stroke:#000000;stroke-width:1.70079;stroke-linecap:butt;stroke-linejoin:miter;stroke-miterlimit:4;stroke-dasharray:none;stroke-opacity:1"
           id="path98" /></g><g
         id="g100"
         transform="rotate(90)"><path
           d="m 669.711,-378.102 -11.152,-4.097 11.152,-4.102 c -1.781,2.422 -1.773,5.735 0,8.199 z"
           style="fill:#000000;fill-opacity:1;fill-rule:evenodd;stroke:#000000;stroke-width:0.637795;stroke-linecap:butt;stroke-linejoin:round;stroke-miterlimit:4;stroke-dasharray:none;stroke-opacity:1"
           id="path102" /></g><g
         id="g104"><path
           d="m 189.824,603.492 h 67.5 v 41.25 h -67.5 z"
           style="fill:none;stroke:#000000;stroke-width:1.13386;stroke-linecap:butt;stroke-linejoin:miter;stroke-miterlimit:4;stroke-dasharray:none;stroke-opacity:1"
           id="path106" /></g><text
         transform="translate(198.56451,623.03874)"
         style="font-variant:normal;font-weight:normal;font-size:12px;font-family:'Liberation Sans';-inkscape-font-specification:LiberationSans;writing-mode:lr-tb;fill:#000000;fill-opacity:1;fill-rule:nonzero;stroke:none"
         id="text110"><tspan
           x="0 7.9919934 14.663988 21.335981 25.33198 34.655972 41.327965 43.991962"
           y="0"
           id="tspan108">Add-Only</tspan></text><text
         transform="translate(213.79013,636.49076)"
         style="font-variant:normal;font-weight:normal;font-size:12px;font-family:'Liberation Sans';-inkscape-font-specification:LiberationSans;writing-mode:lr-tb;fill:#000000;fill-opacity:1;fill-rule:nonzero;stroke:none"
         id="text114"><tspan
           x="0 6.6719942 9.3359919 15.335987"
           y="0"
           id="tspan112">List</tspan></text><g
         id="g116"><path
           d="m 111.074,511.992 h 176.25 v 67.5 h -176.25 z"
           style="fill:none;stroke:#000000;stroke-width:1.13386;stroke-linecap:butt;stroke-linejoin:miter;stroke-miterlimit:4;stroke-dasharray:none;stroke-opacity:1"
           id="path118" /></g><text
         transform="translate(148.39352,528.53836)"
         style="font-variant:normal;font-weight:normal;font-size:12px;font-family:'Liberation Sans';-inkscape-font-specification:LiberationSans;writing-mode:lr-tb;fill:#000000;fill-opacity:1;fill-rule:nonzero;stroke:none"
         id="text122"><tspan
           x="0 6.6599946 12.659989 19.331984 26.003979 29.999975 37.99197 44.663963 47.987961 54.659954 57.983952 67.979942 74.651939 84.647926 91.319923 95.315918"
           y="0"
           id="tspan120">Type-Safe Memory</tspan></text><g
         id="g124"><path
           d="m 287.324,536.742 -176.25,0.75"
           style="fill:none;stroke:#000000;stroke-width:1.70079;stroke-linecap:butt;stroke-linejoin:miter;stroke-miterlimit:4;stroke-dasharray:1.70079, 1.70079;stroke-dashoffset:0;stroke-opacity:1"
           id="path126" /></g><text
         transform="translate(121.30283,570.62669)"
         style="font-variant:normal;font-weight:normal;font-size:12px;font-family:'Liberation Sans';-inkscape-font-specification:LiberationSans;writing-mode:lr-tb;fill:#000000;fill-opacity:1;fill-rule:nonzero;stroke:none"
         id="text132"><tspan
           x="0 6.9959941 10.319991 18.983984 25.655979 28.979977 35.65197 39.647968 43.643963 50.31596 56.987953 60.311951 66.311943 68.975945 75.647934 82.319931 85.643929 89.639923 96.31192 102.31191 104.97591 111.6479 121.6439 128.31589 131.63989 134.30389 140.97588"
           y="0"
           id="tspan128">+ Deferred slab reclamation</tspan><tspan
           x="0 6.9959941 10.319991 18.311985 20.975983 27.647978 34.319973 37.64397 44.315964 46.979961 49.643959 56.315952 62.315948 68.987946 72.311943 78.983932"
           y="-14.279628"
           id="tspan130">+ Slab allocator</tspan></text><g
         id="g134"><path
           d="m 365.324,496.992 h 146.25 v 82.5 h -146.25 z"
           style="fill:none;stroke:#000000;stroke-width:1.13386;stroke-linecap:butt;stroke-linejoin:miter;stroke-miterlimit:4;stroke-dasharray:none;stroke-opacity:1"
           id="path136" /></g><text
         transform="translate(382.19146,513.53844)"
         style="font-variant:normal;font-weight:normal;font-size:12px;font-family:'Liberation Sans';-inkscape-font-specification:LiberationSans;writing-mode:lr-tb;fill:#000000;fill-opacity:1;fill-rule:nonzero;stroke:none"
         id="text140"><tspan
           x="0 7.9919934 13.991988 16.655987 22.655981 25.979979 32.651974 39.323967 45.323963 51.995956 55.319954 64.643944 71.315941 77.987938 81.983932 88.65593 95.327919 98.651917 105.32391"
           y="0"
           id="tspan138">Existence Guarantee</tspan></text><text
         transform="translate(375.1544,540.69216)"
         style="font-variant:normal;font-weight:normal;font-size:12px;font-family:'Liberation Sans';-inkscape-font-specification:LiberationSans;writing-mode:lr-tb;fill:#000000;fill-opacity:1;fill-rule:nonzero;stroke:none"
         id="text144"><tspan
           x="0 6.9959941 10.319991 16.991985 19.655983 26.327978 32.327972 38.999966 45.671963 48.99596 54.995953 58.31995 62.315948 68.987946 74.987938 78.311935 84.983932 88.979927"
           y="0"
           id="tspan142">+ Linked structure</tspan></text><g
         id="g146"><path
           d="m 511.574,523.242 -146.25,-0.75"
           style="fill:none;stroke:#000000;stroke-width:1.70079;stroke-linecap:butt;stroke-linejoin:miter;stroke-miterlimit:4;stroke-dasharray:1.70079, 1.70079;stroke-dashoffset:0;stroke-opacity:1"
           id="path148" /></g><text
         transform="translate(375.55283,570.62668)"
         style="font-variant:normal;font-weight:normal;font-size:12px;font-family:'Liberation Sans';-inkscape-font-specification:LiberationSans;writing-mode:lr-tb;fill:#000000;fill-opacity:1;fill-rule:nonzero;stroke:none"
         id="text154"><tspan
           x="0 6.9959941 10.319991 18.983984 25.655979 28.979977 35.65197 39.647968 43.643963 50.31596 56.987953 60.311951 64.307945 70.979942 76.979935 79.643936 86.315926 96.31192 102.98392 106.30791 108.97191 115.64391"
           y="0"
           id="tspan150">+ Deferred reclamation</tspan><tspan
           x="0 6.9959941 10.319991 18.983984 25.655979 32.327972 38.999966 42.323963 48.99596 51.659958 54.323956 60.995949 66.995941 73.667938 76.991936 83.663933"
           y="-14.279628"
           id="tspan152">+ Heap allocator</tspan></text><g
         id="g156"><path
           d="m 58.574,603.488 v -210 h 276 v 157.5 h 28.5"
           style="fill:none;stroke:#000000;stroke-width:1.70079;stroke-linecap:butt;stroke-linejoin:miter;stroke-miterlimit:4;stroke-dasharray:none;stroke-opacity:1"
           id="path158" /></g><g
         id="g160"
         transform="scale(-1)"><path
           d="m -354.18,-546.875 -11.148,-4.098 11.148,-4.101 c -1.781,2.422 -1.769,5.734 0,8.199 z"
           style="fill:#000000;fill-opacity:1;fill-rule:evenodd;stroke:#000000;stroke-width:0.637795;stroke-linecap:butt;stroke-linejoin:round;stroke-miterlimit:4;stroke-dasharray:none;stroke-opacity:1"
           id="path162" /></g><g
         id="g164"><path
           d="M 275.324,691.992 V 583.242"
           style="fill:none;stroke:#000000;stroke-width:1.70079;stroke-linecap:butt;stroke-linejoin:miter;stroke-miterlimit:4;stroke-dasharray:none;stroke-opacity:1"
           id="path166" /></g><g
         id="g168"
         transform="rotate(90)"><path
           d="m 592.137,-271.207 -11.149,-4.102 11.149,-4.101 c -1.782,2.422 -1.77,5.734 0,8.203 z"
           style="fill:#000000;fill-opacity:1;fill-rule:evenodd;stroke:#000000;stroke-width:0.637795;stroke-linecap:butt;stroke-linejoin:round;stroke-miterlimit:4;stroke-dasharray:none;stroke-opacity:1"
           id="path170" /></g><g
         id="g172"><path
           d="M 492.074,691.992 V 583.242"
           style="fill:none;stroke:#000000;stroke-width:1.70079;stroke-linecap:butt;stroke-linejoin:miter;stroke-miterlimit:4;stroke-dasharray:none;stroke-opacity:1"
           id="path174" /></g><g
         id="g176"
         transform="rotate(90)"><path
           d="m 592.137,-487.957 -11.149,-4.102 11.149,-4.101 c -1.782,2.422 -1.77,5.734 0,8.203 z"
           style="fill:#000000;fill-opacity:1;fill-rule:evenodd;stroke:#000000;stroke-width:0.637795;stroke-linecap:butt;stroke-linejoin:round;stroke-miterlimit:4;stroke-dasharray:none;stroke-opacity:1"
           id="path178" /></g><g
         id="g180"><path
           d="m 402.074,404.738 h 112.5 v 52.5 h -112.5 z"
           style="fill:none;stroke:#000000;stroke-width:1.13386;stroke-linecap:butt;stroke-linejoin:miter;stroke-miterlimit:4;stroke-dasharray:none;stroke-opacity:1"
           id="path182" /></g><text
         transform="translate(407.61325,420.53868)"
         style="font-variant:normal;font-weight:normal;font-size:12px;font-family:'Liberation Sans';-inkscape-font-specification:LiberationSans;writing-mode:lr-tb;fill:#000000;fill-opacity:1;fill-rule:nonzero;stroke:none"
         id="text188"><tspan
           x="0 8.6639929 15.335987 17.999985 24.67198 27.995977 34.667973 38.663967 47.987961 54.659954 57.323952 63.323948 66.647942 73.319939 75.98394 81.983932"
           y="0"
           id="tspan184">Delete-Only List</tspan><tspan
           x="0.45125723 4.4472537 7.7712512 15.763245 22.43524 29.107233 31.771231 34.43523 40.435223 47.10722 50.431217 56.43121 63.103207 69.7752 75.775192 81.775192 85.771187 88.435181 95.107178"
           y="28.955893"
           id="tspan186">- Publish/subscribe</tspan></text><g
         id="g190"><path
           d="m 514.574,432.488 -112.5,-0.75"
           style="fill:none;stroke:#000000;stroke-width:1.70079;stroke-linecap:butt;stroke-linejoin:miter;stroke-miterlimit:4;stroke-dasharray:1.70079, 1.70079;stroke-dashoffset:0;stroke-opacity:1"
           id="path192" /></g><g
         id="g194"><path
           d="m 458.477,496.668 -0.153,-34.926"
           style="fill:none;stroke:#000000;stroke-width:1.70079;stroke-linecap:butt;stroke-linejoin:miter;stroke-miterlimit:4;stroke-dasharray:none;stroke-opacity:1"
           id="path196" /></g><g
         id="g198"
         transform="matrix(0.00430125,1,-1,0.00430125,0,0)"><path
           d="m 472.601,-452.213 -11.15,-4.103 11.15,-4.097 c -1.783,2.419 -1.77,5.731 0,8.2 z"
           style="fill:#000000;fill-opacity:1;fill-rule:evenodd;stroke:#000000;stroke-width:0.637789;stroke-linecap:butt;stroke-linejoin:round;stroke-miterlimit:4;stroke-dasharray:none;stroke-opacity:1"
           id="path200" /></g><g
         id="g202"><path
           d="m 87.824,419.742 h 221.25 v 71.25 H 87.824 Z"
           style="fill:none;stroke:#000000;stroke-width:1.13386;stroke-linecap:butt;stroke-linejoin:miter;stroke-miterlimit:4;stroke-dasharray:none;stroke-opacity:1"
           id="path204" /></g><text
         transform="translate(104.70609,437.78828)"
         style="font-variant:normal;font-weight:normal;font-size:12px;font-family:'Liberation Sans';-inkscape-font-specification:LiberationSans;writing-mode:lr-tb;fill:#000000;fill-opacity:1;fill-rule:nonzero;stroke:none"
         id="text208"><tspan
           x="0 6.6719942 9.3359919 16.007986 22.679981 26.003979 29.999975 41.099964 47.771961 50.435959 57.107952 63.779945 67.103943 70.42794 79.75193 86.423927 90.419922 97.091919 103.76392 110.43591 117.1079 120.4319 129.09589 135.76788 138.43188 141.09589 147.76788 153.76787 157.09187 163.76387 167.75986 171.08386 174.40785 181.07985"
           y="0"
           id="tspan206">Light-Weight Garbage Collector for</tspan></text><g
         id="g210"><path
           d="M 308.324,463.992 H 87.074"
           style="fill:none;stroke:#000000;stroke-width:1.70079;stroke-linecap:butt;stroke-linejoin:miter;stroke-miterlimit:4;stroke-dasharray:1.70079, 1.70079;stroke-dashoffset:0;stroke-opacity:1"
           id="path212" /></g><text
         transform="translate(96.552762,481.37661)"
         style="font-variant:normal;font-weight:normal;font-size:12px;font-family:'Liberation Sans';-inkscape-font-specification:LiberationSans;writing-mode:lr-tb;fill:#000000;fill-opacity:1;fill-rule:nonzero;stroke:none"
         id="text216"><tspan
           x="0 6.9959941 10.319991 18.983984 26.975977"
           y="0"
           id="tspan214">+ NBS</tspan></text><text
         transform="translate(99.538145,452.78837)"
         style="font-variant:normal;font-weight:normal;font-size:12px;font-family:'Liberation Sans';-inkscape-font-specification:LiberationSans;writing-mode:lr-tb;fill:#000000;fill-opacity:1;fill-rule:nonzero;stroke:none"
         id="text220"><tspan
           x="0 8.6639929 15.335987 22.007982 26.003979 33.995972 36.659969 43.331963 49.331959 55.331955 57.995953 64.667946 71.339943 74.66394 82.65593 88.65593 95.327919 101.32792 107.99991 111.9959 118.6679 125.3399 128.00389 134.00389 140.67589 143.99988 146.66388 153.33588 160.00787 163.33186 167.32787 175.99185 183.98384 191.97585"
           y="0"
           id="tspan218">Non-Blocking Synchronization (NBS)</tspan></text><g
         id="g222"><path
           d="m 201.074,512.738 v -18.75"
           style="fill:none;stroke:#000000;stroke-width:1.70079;stroke-linecap:butt;stroke-linejoin:miter;stroke-miterlimit:4;stroke-dasharray:none;stroke-opacity:1"
           id="path224" /></g><g
         id="g226"
         transform="rotate(90)"><path
           d="m 502.887,-196.957 -11.149,-4.102 11.149,-4.101 c -1.782,2.422 -1.77,5.734 0,8.203 z"
           style="fill:#000000;fill-opacity:1;fill-rule:evenodd;stroke:#000000;stroke-width:0.637795;stroke-linecap:butt;stroke-linejoin:round;stroke-miterlimit:4;stroke-dasharray:none;stroke-opacity:1"
           id="path228" /></g><g
         id="g230"><path
           d="m 510.824,511.992 h 22.5 v -457.5"
           style="fill:none;stroke:#000000;stroke-width:1.70079;stroke-linecap:butt;stroke-linejoin:miter;stroke-miterlimit:4;stroke-dasharray:none;stroke-opacity:1"
           id="path232" /></g><g
         id="g234"><path
           d="m 117.074,256.992 h 348.75 v 101.25 h -348.75 z"
           style="fill:none;stroke:#000000;stroke-width:1.13386;stroke-linecap:butt;stroke-linejoin:miter;stroke-miterlimit:4;stroke-dasharray:none;stroke-opacity:1"
           id="path236" /></g><g
         id="g238"><path
           d="M 465.824,283.242 H 117.074"
           style="fill:none;stroke:#000000;stroke-width:1.70079;stroke-linecap:butt;stroke-linejoin:miter;stroke-miterlimit:4;stroke-dasharray:1.70079, 1.70079;stroke-dashoffset:0;stroke-opacity:1"
           id="path240" /></g><text
         transform="translate(126.03232,299.97212)"
         style="font-variant:normal;font-weight:normal;font-size:12px;font-family:'Liberation Sans';-inkscape-font-specification:LiberationSans;writing-mode:lr-tb;fill:#000000;fill-opacity:1;fill-rule:nonzero;stroke:none"
         id="text244"><tspan
           x="0 6.9959941 10.319991 18.983984 25.655979 32.327972 38.999966 45.671963 49.667957 55.667953 58.991951 61.655949 68.327942 74.327934 76.991936 83.663933 90.335922 97.007919 100.33192 106.33191 113.00391 122.9999 129.67189 132.9959 138.99588 145.66788 149.66388 152.98787 156.31187 162.98387 166.30786 169.63185 175.63185 182.30385 188.97585 195.64784 201.64783 208.31982 214.99182 218.31581 221.63982 228.31181 234.98381 241.65579 245.65179 252.32379 255.64778 258.3118 264.98376"
           y="0"
           id="tspan242">+ Readers include some sort of snapshot operation</tspan></text><text
         transform="translate(176.78814,275.78786)"
         style="font-variant:normal;font-weight:normal;font-size:12px;font-family:'Liberation Sans';-inkscape-font-specification:LiberationSans;writing-mode:lr-tb;fill:#000000;fill-opacity:1;fill-rule:nonzero;stroke:none"
         id="text248"><tspan
           x="0 9.3239918 15.995987 22.66798 28.667976 31.331974 34.655972 44.651962 51.323956 53.987953 57.311951 59.975948 63.971947 71.30394 77.975937 81.971931 87.971924 90.635925 97.307922 103.97991 107.30391 115.9679 122.6399 129.31189 135.31189 137.97589 143.97588 147.29988 153.97188 160.64386 166.64386 172.64386 175.96785 184.63185 191.30383 197.97583 201.29984 205.29582 211.96782"
           y="0"
           id="tspan246">Quasi Multi-Version Consistency Control</tspan></text><text
         transform="translate(126.03232,315.45707)"
         style="font-variant:normal;font-weight:normal;font-size:12px;font-family:'Liberation Sans';-inkscape-font-specification:LiberationSans;writing-mode:lr-tb;fill:#000000;fill-opacity:1;fill-rule:nonzero;stroke:none"
         id="text252"><tspan
           x="0 6.9959941 10.319991 18.983984 25.655979 32.327972 38.327969 41.651966 45.647961 52.319958 54.983955 61.655949 64.979942 70.979942 74.30394 80.975929 87.647926 90.971924 94.967918 101.63992 108.31191 114.9839 121.6559 125.65189 131.65189 134.97589 141.64789 148.31987 154.99187 158.31587 166.97986 170.97586 173.63986 176.96385 183.63585 187.63185 193.63184"
           y="0"
           id="tspan250">+ Constraints on readers and writers:</tspan></text><text
         transform="translate(126.03232,330.45736)"
         style="font-variant:normal;font-weight:normal;font-size:12px;font-family:'Liberation Sans';-inkscape-font-specification:LiberationSans;writing-mode:lr-tb;fill:#ffffff;fill-opacity:1;fill-rule:nonzero;stroke:none"
         id="text256"><tspan
           x="0"
           y="0"
           id="tspan254">+</tspan></text><text
         transform="translate(136.36412,330.45736)"
         style="font-variant:normal;font-weight:normal;font-size:12px;font-family:'Liberation Sans';-inkscape-font-specification:LiberationSans;writing-mode:lr-tb;fill:#000000;fill-opacity:1;fill-rule:nonzero;stroke:none"
         id="text260"><tspan
           x="0 3.9959967 10.667991 14.663988 17.987986 23.98798 26.651978 33.323971 39.995968 42.659966 49.331959 52.655956 59.32795 65.999947 68.66394 75.335938 81.33593 84.659927 87.983925 91.307922 95.303917 101.97591 105.97191 109.29591 115.29591 121.9679 128.63989 135.31189 141.98389 148.65587 154.65587 161.32787 164.65186 167.31586 173.98785 179.98785 185.98784 191.98784 195.31184 198.63583 202.63184 209.30383 213.29982 216.62383 222.62381 229.29581 233.29181 239.29179 241.9558 248.62779 255.29979 258.62378 265.29578 271.96777 281.96378 288.63577 295.30774 299.30374 303.29974 309.29974 313.29575"
           y="0"
           id="tspan258">(1) single object, (2) sequence locks, (3) version number(s),</tspan></text><text
         transform="translate(126.03232,345.96556)"
         style="font-variant:normal;font-weight:normal;font-size:12px;font-family:'Liberation Sans';-inkscape-font-specification:LiberationSans;writing-mode:lr-tb;fill:#ffffff;fill-opacity:1;fill-rule:nonzero;stroke:none"
         id="text264"><tspan
           x="0"
           y="0"
           id="tspan262">+</tspan></text><text
         transform="translate(136.36412,345.96556)"
         style="font-variant:normal;font-weight:normal;font-size:12px;font-family:'Liberation Sans';-inkscape-font-specification:LiberationSans;writing-mode:lr-tb;fill:#000000;fill-opacity:1;fill-rule:nonzero;stroke:none"
         id="text268"><tspan
           x="0 3.9959967 10.667991 14.663988 17.987986 21.311983 27.311977 33.311974 39.983967 46.65596 53.327957 59.99995 66.671944 69.995941 75.995934 82.667931 89.339928 92.003922 94.667923 101.33991 108.01191 114.68391 121.3559 124.67989 128.00389 134.67589 141.34789 148.01988 151.34387 158.01587 162.01187 165.33586 169.33186 176.00386 179.99985 183.32385 193.31984 199.99184 206.66383 212.66382 215.98782 222.65982 225.98381 232.65581 239.3278 243.32379 246.6478 253.31979 259.99179 266.66379 270.65976 277.33176 284.00375 290.00375 296.67575 303.34775"
           y="0"
           id="tspan266">(4) Issaquah challenge, and/or (5) many other approaches</tspan></text><g
         id="g270"><path
           d="m 533.227,296.348 h -63.75"
           style="fill:none;stroke:#000000;stroke-width:1.70079;stroke-linecap:butt;stroke-linejoin:miter;stroke-miterlimit:4;stroke-dasharray:none;stroke-opacity:1"
           id="path272" /></g><g
         id="g274"><path
           d="m 478.375,300.465 -11.148,-4.098 11.148,-4.101 c -1.781,2.422 -1.77,5.734 0,8.199 z"
           style="fill:#000000;fill-opacity:1;fill-rule:evenodd;stroke:#000000;stroke-width:0.637795;stroke-linecap:butt;stroke-linejoin:round;stroke-miterlimit:4;stroke-dasharray:none;stroke-opacity:1"
           id="path276" /></g><g
         id="g278"><path
           d="m 117.074,157.992 h 348.75 v 67.5 h -348.75 z"
           style="fill:none;stroke:#000000;stroke-width:1.13386;stroke-linecap:butt;stroke-linejoin:miter;stroke-miterlimit:4;stroke-dasharray:none;stroke-opacity:1"
           id="path280" /></g><g
         id="g282"><path
           d="M 465.824,184.242 H 117.074"
           style="fill:none;stroke:#000000;stroke-width:1.70079;stroke-linecap:butt;stroke-linejoin:miter;stroke-miterlimit:4;stroke-dasharray:1.70079, 1.70079;stroke-dashoffset:0;stroke-opacity:1"
           id="path284" /></g><text
         transform="translate(126.03232,200.9722)"
         style="font-variant:normal;font-weight:normal;font-size:12px;font-family:'Liberation Sans';-inkscape-font-specification:LiberationSans;writing-mode:lr-tb;fill:#000000;fill-opacity:1;fill-rule:nonzero;stroke:none"
         id="text288"><tspan
           x="0 6.9959941 10.319991 18.983984 25.655979 32.327972 38.999966 45.671963 49.667957 55.667953 58.991951 65.663948 71.66394 74.987938 77.651932 84.323929 90.995926 93.65992 99.65992 102.32391 108.99591 115.6679 122.3399 125.0039 128.3279 134.99989 138.99588 142.31989 148.99188 155.66386 158.32787 164.32787 167.65186 174.32385 180.99585 186.99585 193.66783 200.33983 207.01183 209.67583 212.99982 215.66382 222.33582 229.00781 235.67981 238.3438 241.6678 245.66379 252.33578 255.65979 262.33179 266.32779 272.99979 279.67175 285.67175 292.34375"
           y="0"
           id="tspan286">+ Readers as individual or bulk unconditional references</tspan></text><text
         transform="translate(228.50894,176.78795)"
         style="font-variant:normal;font-weight:normal;font-size:12px;font-family:'Liberation Sans';-inkscape-font-specification:LiberationSans;writing-mode:lr-tb;fill:#000000;fill-opacity:1;fill-rule:nonzero;stroke:none"
         id="text292"><tspan
           x="0 9.3239918 15.995987 22.66798 28.667976 31.331974 34.655972 43.319965 49.991959 53.315956 59.987949 63.983948 70.655945 77.327934 83.327934 89.999924 93.323921 101.98792 108.65991 115.3319 122.0039"
           y="0"
           id="tspan290">Quasi Reference Count</tspan></text><text
         transform="translate(126.03232,216.45715)"
         style="font-variant:normal;font-weight:normal;font-size:12px;font-family:'Liberation Sans';-inkscape-font-specification:LiberationSans;writing-mode:lr-tb;fill:#000000;fill-opacity:1;fill-rule:nonzero;stroke:none"
         id="text296"><tspan
           x="0 6.9959941 10.319991 19.643984 26.315979 29.639975 32.303974 38.975967 45.647961 52.319958 54.983955 58.307953 64.979942 68.975945 71.639938 78.311935 84.983932 87.647926 94.319923 100.99191 104.31591 107.63991 114.3119 117.6359 124.3079 130.97989 134.97589 138.97188 145.64388 152.31587 154.97987 161.65187 167.65186 170.97586 174.29985 176.96385 183.63585 189.63585 195.63583 198.95984 205.63184 209.62782 212.95183 216.94781 223.61981 226.94382 233.6158 237.6118 244.2838 250.9558 256.95578"
           y="0"
           id="tspan294">+ Optional bridging to per-object lock or reference</tspan></text><g
         id="g298"><path
           d="M 533.23,196.598 H 469.48"
           style="fill:none;stroke:#000000;stroke-width:1.70079;stroke-linecap:butt;stroke-linejoin:miter;stroke-miterlimit:4;stroke-dasharray:none;stroke-opacity:1"
           id="path300" /></g><g
         id="g302"><path
           d="m 478.375,200.715 -11.148,-4.098 11.148,-4.101 c -1.781,2.422 -1.77,5.734 0,8.199 z"
           style="fill:#000000;fill-opacity:1;fill-rule:evenodd;stroke:#000000;stroke-width:0.637795;stroke-linecap:butt;stroke-linejoin:round;stroke-miterlimit:4;stroke-dasharray:none;stroke-opacity:1"
           id="path304" /></g><g
         id="g306"><path
           d="m 117.074,14.738 h 348.75 v 111.004 h -348.75 z"
           style="fill:none;stroke:#000000;stroke-width:1.13386;stroke-linecap:butt;stroke-linejoin:miter;stroke-miterlimit:4;stroke-dasharray:none;stroke-opacity:1"
           id="path308" /></g><g
         id="g310"><path
           d="M 465.824,40.988 H 117.074"
           style="fill:none;stroke:#000000;stroke-width:1.70079;stroke-linecap:butt;stroke-linejoin:miter;stroke-miterlimit:4;stroke-dasharray:1.70079, 1.70079;stroke-dashoffset:0;stroke-opacity:1"
           id="path312" /></g><text
         transform="translate(126.03232,57.721457)"
         style="font-variant:normal;font-weight:normal;font-size:12px;font-family:'Liberation Sans';-inkscape-font-specification:LiberationSans;writing-mode:lr-tb;fill:#000000;fill-opacity:1;fill-rule:nonzero;stroke:none"
         id="text316"><tspan
           x="0 6.9959941 10.319991 18.983984 25.655979 32.327972 38.999966 45.671963 49.667957 55.667953 58.991951 65.663948 71.66394 74.987938 78.983932 85.65593 92.327927 98.999916 102.99591 109.66791 116.3399 119.0039 125.6759 128.99989 132.9959 139.66788 146.33987 153.01187 159.68387 163.67987 167.67586 176.33986 180.33585 182.99985 186.32384 192.99583 196.99184 200.31583 202.97983 209.65182 215.65182"
           y="0"
           id="tspan314">+ Readers as read-held reader-writer lock</tspan></text><text
         transform="translate(228.50894,33.537199)"
         style="font-variant:normal;font-weight:normal;font-size:12px;font-family:'Liberation Sans';-inkscape-font-specification:LiberationSans;writing-mode:lr-tb;fill:#000000;fill-opacity:1;fill-rule:nonzero;stroke:none"
         id="text320"><tspan
           x="0 9.3239918 15.995987 22.66798 28.667976 31.331974 34.655972 43.319965 49.991959 56.663952 63.335949 70.007942 74.003937 77.999931 89.099922 93.095924 95.759918 99.083916 105.75591 109.75191 113.0759 119.7479 126.41989 132.41989"
           y="0"
           id="tspan318">Quasi Reader-Writer Lock</tspan></text><text
         transform="translate(126.03232,73.206405)"
         style="font-variant:normal;font-weight:normal;font-size:12px;font-family:'Liberation Sans';-inkscape-font-specification:LiberationSans;writing-mode:lr-tb;fill:#000000;fill-opacity:1;fill-rule:nonzero;stroke:none"
         id="text330"><tspan
           x="0 6.9959941 10.319991 18.311985 24.983978 31.655973 34.979969 37.64397 44.315964 46.979961 50.303959 56.975952 62.975948 66.299942 74.963936 81.635933 84.299927 86.963928 90.287926 96.959923 102.95992 106.28391 109.60791 116.2799 126.27589 132.94789 139.61989 143.61588 150.28787 152.95187 156.27586 162.27586 168.27586 174.94786 180.94785 187.61984 191.61584 198.28784 204.95982 207.62383 213.62383 220.29582 223.61981 226.28381 232.95581"
           y="0"
           id="tspan322">+ Spatial as well as temporal synchronization</tspan><tspan
           x="0 6.9959941 10.319991 19.643984 26.315979 29.639975 32.303974 38.975967 45.647961 52.319958 54.983955 58.307953 62.303947 68.975945 75.647934 82.319931 86.315926 89.639923 96.31192 100.30791 108.97191 112.9679 115.6319 118.9559 125.62789 128.95189 135.62389 142.29588 148.96788 152.96387 159.63586 166.30786"
           y="14.250372"
           id="tspan324">+ Optional read-to-write upgrade</tspan><tspan
           x="0 6.9959941 10.319991 19.643984 26.315979 29.639975 32.303974 38.975967 45.647961 52.319958 54.983955 58.307953 64.979942 68.975945 71.639938 78.311935 84.983932 87.647926 94.319923 100.99191 104.31591 107.63991 114.3119 117.6359 124.3079 130.97989 134.97589 138.97188 145.64388 152.31587 154.97987 161.65187 167.65186 170.97586 174.29985 176.96385 183.63585 189.63585 195.63583 198.95984 205.63184 209.62782 212.95183 216.94781 223.61981 226.94382 233.6158 237.6118 244.2838 250.9558 256.95578"
           y="28.501717"
           id="tspan326">+ Optional bridging to per-object lock or reference</tspan><tspan
           x="0 6.9959941 10.319991 19.643984 26.315979 29.639975 32.303974 38.975967 45.647961 52.319958 54.983955 57.647953 63.647945 66.971947 69.635941 76.307938 82.979927 89.651924 93.647919 100.31992 103.64391 110.31591 116.9879 119.6519 126.3239 129.64789 136.31989 142.99188 146.31587 152.98787 159.65987 162.32387 168.99586 174.99585 178.31985"
           y="44.254463"
           id="tspan328">+ Optionally ignore deleted objects</tspan></text><g
         id="g332"><path
           d="m 533.324,54.492 h -63.75"
           style="fill:none;stroke:#000000;stroke-width:1.70079;stroke-linecap:butt;stroke-linejoin:miter;stroke-miterlimit:4;stroke-dasharray:none;stroke-opacity:1"
           id="path334" /></g><g
         id="g336"><path
           d="m 478.473,58.605 -11.149,-4.097 11.149,-4.102 c -1.782,2.422 -1.77,5.735 0,8.199 z"
           style="fill:#000000;fill-opacity:1;fill-rule:evenodd;stroke:#000000;stroke-width:0.637795;stroke-linecap:butt;stroke-linejoin:round;stroke-miterlimit:4;stroke-dasharray:none;stroke-opacity:1"
           id="path338" /></g></g></g></svg>
