<?xml version="1.0" encoding="UTF-8" standalone="no"?>
<!-- Created with Inkscape (http://www.inkscape.org/) -->

<svg
   version="1.1"
   id="svg2"
   xml:space="preserve"
   width="731.13184"
   height="1042.3079"
   viewBox="0 0 731.13184 1042.3079"
   sodipodi:docname="RCUusecases.svg"
   inkscape:version="1.1 (c68e22c387, 2021-05-23)"
   xmlns:inkscape="http://www.inkscape.org/namespaces/inkscape"
   xmlns:sodipodi="http://sodipodi.sourceforge.net/DTD/sodipodi-0.dtd"
   xmlns="http://www.w3.org/2000/svg"
   xmlns:svg="http://www.w3.org/2000/svg"><sodipodi:namedview
     id="namedview170"
     pagecolor="#ffffff"
     bordercolor="#666666"
     borderopacity="1.0"
     inkscape:pageshadow="2"
     inkscape:pageopacity="0.0"
     inkscape:pagecheckerboard="0"
     showgrid="false"
     inkscape:zoom="0.74450172"
     inkscape:cx="32.236326"
     inkscape:cy="521.15393"
     inkscape:window-width="1920"
     inkscape:window-height="1011"
     inkscape:window-x="0"
     inkscape:window-y="0"
     inkscape:window-maximized="1"
     inkscape:current-layer="svg2" /><defs
     id="defs6" /><g
     id="g12"
     transform="matrix(1.3333333,0,0,1.3333333,0,-1.6608968e-5)"><path
       d="m 58.574,550.988 h 48.75"
       style="fill:none;stroke:#000000;stroke-width:1.70079;stroke-linecap:butt;stroke-linejoin:miter;stroke-miterlimit:4;stroke-dasharray:none;stroke-opacity:1"
       id="path14" /></g><g
     id="g16"
     transform="matrix(-1.3333333,0,0,-1.3333333,0,-1.6608968e-5)"><path
       d="m -98.43,-546.875 -11.148,-4.098 11.148,-4.101 c -1.781,2.422 -1.769,5.734 0,8.199 z"
       style="fill:#000000;fill-opacity:1;fill-rule:evenodd;stroke:#000000;stroke-width:0.637795;stroke-linecap:butt;stroke-linejoin:round;stroke-miterlimit:4;stroke-dasharray:none;stroke-opacity:1"
       id="path18" /></g><g
     id="g10007"><path
       d="M 21.098666,804.65596 H 253.90133 v 115 H 21.098666 Z"
       style="fill:none;stroke:#000000;stroke-width:1.51181;stroke-linecap:butt;stroke-linejoin:miter;stroke-miterlimit:4;stroke-dasharray:none;stroke-opacity:1"
       id="path22" /><text
       style="font-variant:normal;font-weight:normal;font-size:16px;font-family:'Liberation Sans';-inkscape-font-specification:LiberationSans;writing-mode:lr-tb;fill:#000000;fill-opacity:1;fill-rule:nonzero;stroke:none;stroke-width:1.33333"
       id="text26"
       x="72.064026"
       y="827.71796"><tspan
         x="72.064026 82.720016 91.616005 100.512 104.064 107.616 115.61598 124.51198 128.94397 139.59995 148.49596 157.39194 165.39194 173.39192 178.71992 182.27193 191.16792"
         y="827.71796"
         id="tspan24"
         style="stroke-width:1.33333">Publish/Subscribe</tspan></text><text
       style="font-variant:normal;font-weight:normal;font-size:16px;font-family:'Liberation Mono';-inkscape-font-specification:LiberationMono;writing-mode:lr-tb;fill:#000000;fill-opacity:1;fill-rule:nonzero;stroke:none;stroke-width:1.33333"
       id="text30"
       x="32.00563"
       y="885.92291"><tspan
         x="32.00563 41.605625 51.205616 60.805607 70.405602 80.005592 89.605576 99.205574 108.80557 118.40556 128.00555 137.60555 147.20554 156.80553 166.40553 176.00551 185.6055 195.20547 204.8055 214.40547"
         y="885.92291"
         id="tspan28"
         style="stroke-width:1.33333">rcu_assign_pointer()</tspan></text><text
       style="font-variant:normal;font-weight:normal;font-size:16px;font-family:'Liberation Sans';-inkscape-font-specification:LiberationSans;writing-mode:lr-tb;fill:#000000;fill-opacity:1;fill-rule:nonzero;stroke:none;stroke-width:1.33333"
       id="text34"
       x="228.43745"
       y="885.92291"><tspan
         x="228.43745"
         y="885.92291"
         id="tspan32"
         style="stroke-width:1.33333">&amp;</tspan></text><path
       d="m 253.89599,860.65596 -234.99999,1"
       style="fill:none;stroke:#000000;stroke-width:2.26772;stroke-linecap:butt;stroke-linejoin:miter;stroke-miterlimit:4;stroke-dasharray:2.26772, 2.26772;stroke-dashoffset:0;stroke-opacity:1"
       id="path38" /><text
       style="font-variant:normal;font-weight:normal;font-size:16px;font-family:'Liberation Sans';-inkscape-font-specification:LiberationSans;writing-mode:lr-tb;fill:#000000;fill-opacity:1;fill-rule:nonzero;stroke:none;stroke-width:1.33333"
       id="text42"
       x="63.622818"
       y="847.65424"><tspan
         x="63.622818 73.382805 82.278793 87.606796 92.038795 100.93478 104.48679 113.38277 121.38277 130.27875 139.17476 143.60675 154.26273 158.69473 164.02271 172.91872 180.91872 185.35071 194.2467 199.57471"
         y="847.65424"
         id="tspan40"
         style="stroke-width:1.33333">For Linked Structure</tspan></text><text
       style="font-variant:normal;font-weight:normal;font-size:16px;font-family:'Liberation Mono';-inkscape-font-specification:LiberationMono;writing-mode:lr-tb;fill:#000000;fill-opacity:1;fill-rule:nonzero;stroke:none;stroke-width:1.33333"
       id="text46"
       x="55.185257"
       y="907.83557"><tspan
         x="55.185257 64.785248 74.385239 83.985229 93.58522 103.18521 112.7852 122.3852 131.98518 141.58517 151.18517 160.78516 170.38513 179.98514 189.58514 199.18513 208.78513"
         y="907.83557"
         id="tspan44"
         style="stroke-width:1.33333">rcu_dereference()</tspan></text></g><g
     id="g10063"><path
       d="M 337.09866,922.65596 H 682.09865 V 1022.656 H 337.09866 Z"
       style="fill:none;stroke:#000000;stroke-width:1.51181;stroke-linecap:butt;stroke-linejoin:miter;stroke-miterlimit:4;stroke-dasharray:none;stroke-opacity:1"
       id="path50" /><text
       style="font-variant:normal;font-weight:normal;font-size:16px;font-family:'Liberation Sans';-inkscape-font-specification:LiberationSans;writing-mode:lr-tb;fill:#000000;fill-opacity:1;fill-rule:nonzero;stroke:none;stroke-width:1.33333"
       id="text54"
       x="378.92853"
       y="949.7179"><tspan
         x="378.92853 393.42456 402.32056 405.8725 410.3045 414.73651 419.16852 428.06451 433.39249 437.82449 448.4805 453.8085 462.7045 468.03247 478.68848 486.68848 490.24048 498.24048 502.67242 506.22443 515.12042 524.01642 528.1604 537.92041 546.81641 550.36841 559.2644 568.1604 576.1604 580.59241 585.02435 593.92035 598.35236 608.11237 611.66431 620.5603 624.1123 632.1123"
         y="949.7179"
         id="tspan52"
         style="stroke-width:1.33333">Wait for Pre-Existing Things to Finish</tspan></text><text
       style="font-variant:normal;font-weight:normal;font-size:16px;font-family:'Liberation Mono';-inkscape-font-specification:LiberationMono;writing-mode:lr-tb;fill:#000000;fill-opacity:1;fill-rule:nonzero;stroke:none;stroke-width:1.33333"
       id="text58"
       x="346.59265"
       y="987.98297"><tspan
         x="346.59265 356.19263 365.79263 375.39261 384.99261 394.59259 404.19257 413.7926 423.39258 432.99258 442.59256 452.19257 461.79254 471.39252 480.99255"
         y="987.98297"
         id="tspan56"
         style="stroke-width:1.33333">rcu_read_lock()</tspan></text><text
       style="font-variant:normal;font-weight:normal;font-size:16px;font-family:'Liberation Sans';-inkscape-font-specification:LiberationSans;writing-mode:lr-tb;fill:#000000;fill-opacity:1;fill-rule:nonzero;stroke:none;stroke-width:1.33333"
       id="text62"
       x="495.02454"
       y="987.98297"><tspan
         x="495.02454 505.68048"
         y="987.98297"
         id="tspan60"
         style="stroke-width:1.33333">&amp; </tspan></text><text
       style="font-variant:normal;font-weight:normal;font-size:16px;font-family:'Liberation Mono';-inkscape-font-specification:LiberationMono;writing-mode:lr-tb;fill:#000000;fill-opacity:1;fill-rule:nonzero;stroke:none;stroke-width:1.33333"
       id="text66"
       x="510.11249"
       y="987.98297"><tspan
         x="510.11249 519.71246 529.3125 538.91248 548.51245 558.11243 567.7124 577.31244 586.91241 596.51245 606.11243 615.7124 625.31238 634.91235 644.51239 654.11237 663.7124"
         y="987.98297"
         id="tspan64"
         style="stroke-width:1.33333">rcu_read_unlock()</tspan></text><g
       id="g68"
       transform="matrix(1.3333333,0,0,1.3333333,0,-1.6608968e-5)"><path
         d="M 511.574,722.742 H 252.824"
         style="fill:none;stroke:#000000;stroke-width:1.70079;stroke-linecap:butt;stroke-linejoin:miter;stroke-miterlimit:4;stroke-dasharray:1.70079, 1.70079;stroke-dashoffset:0;stroke-opacity:1"
         id="path70" /></g><text
       style="font-variant:normal;font-weight:normal;font-size:16px;font-family:'Nimbus Sans';-inkscape-font-specification:NimbusSans-Regular;writing-mode:lr-tb;fill:#000000;fill-opacity:1;fill-rule:nonzero;stroke:none;stroke-width:1.33333"
       id="text74"
       x="415.10428"
       y="1008.9826"><tspan
         x="415.10428 422.97632 430.81628 435.26428"
         y="1008.9826"
         id="tspan72"
         style="stroke-width:1.33333">vs. </tspan></text><text
       style="font-variant:normal;font-weight:normal;font-size:16px;font-family:'Liberation Mono';-inkscape-font-specification:LiberationMono;writing-mode:lr-tb;fill:#000000;fill-opacity:1;fill-rule:nonzero;stroke:none;stroke-width:1.33333"
       id="text78"
       x="439.71228"
       y="1008.9826"><tspan
         x="439.71228 449.31229 458.91226 468.51227 478.11224 487.71222 497.31226 506.91223 516.51221 526.11218 535.71216 545.31219 554.91217 564.51221 574.11218 583.71216 593.31213"
         y="1008.9826"
         id="tspan76"
         style="stroke-width:1.33333">synchronize_rcu()</tspan></text></g><g
     id="g10028"><path
       d="m 391.09866,802.65596 h 234.99999 v 75 H 391.09866 Z"
       style="fill:none;stroke:#000000;stroke-width:1.51181;stroke-linecap:butt;stroke-linejoin:miter;stroke-miterlimit:4;stroke-dasharray:none;stroke-opacity:1"
       id="path82" /><text
       style="font-variant:normal;font-weight:normal;font-size:16px;font-family:'Liberation Sans';-inkscape-font-specification:LiberationSans;writing-mode:lr-tb;fill:#000000;fill-opacity:1;fill-rule:nonzero;stroke:none;stroke-width:1.33333"
       id="text86"
       x="430.01837"
       y="827.86041"><tspan
         x="430.01837 440.67438 449.57034 458.46634 466.46634 475.36234 484.25833 488.69034 499.34631 503.77832 512.67432 517.10632 526.00232 530.43427 541.98627 550.88226 559.77826 568.67426 577.57025"
         y="827.86041"
         id="tspan84"
         style="stroke-width:1.33333">Phased State Change</tspan></text><text
       style="font-variant:normal;font-weight:normal;font-size:16px;font-family:'Nimbus Sans';-inkscape-font-specification:NimbusSans-Regular;writing-mode:lr-tb;fill:#000000;fill-opacity:1;fill-rule:nonzero;stroke:none;stroke-width:1.33333"
       id="text90"
       x="399.04834"
       y="866.05145"><tspan
         x="399.04834 408.39233 412.84033 424.39233 433.28833 442.18433 450.2803 457.94427 466.84027 475.73627 480.18427 488.13626 492.58426 501.27225 505.49625 514.39221 518.84021 526.56824 535.46423 540.79224 544.34424 553.24023 562.13623 565.68817"
         y="866.05145"
         id="tspan88"
         style="stroke-width:1.33333">+ Checked state variable</tspan></text><path
       d="M 626.09865,842.65596 H 391.09866"
       style="fill:none;stroke:#000000;stroke-width:2.26772;stroke-linecap:butt;stroke-linejoin:miter;stroke-miterlimit:4;stroke-dasharray:2.26772, 2.26772;stroke-dashoffset:0;stroke-opacity:1"
       id="path94" /></g><g
     id="g96"
     transform="matrix(1.3333333,0,0,1.3333333,0,-1.6608968e-5)"><path
       d="m 382.215,691.992 v -31.18"
       style="fill:none;stroke:#000000;stroke-width:1.70079;stroke-linecap:butt;stroke-linejoin:miter;stroke-miterlimit:4;stroke-dasharray:none;stroke-opacity:1"
       id="path98" /></g><g
     id="g100"
     transform="matrix(0,1.3333333,-1.3333333,0,0,-1.6608968e-5)"><path
       d="m 669.711,-378.102 -11.152,-4.097 11.152,-4.102 c -1.781,2.422 -1.773,5.735 0,8.199 z"
       style="fill:#000000;fill-opacity:1;fill-rule:evenodd;stroke:#000000;stroke-width:0.637795;stroke-linecap:butt;stroke-linejoin:round;stroke-miterlimit:4;stroke-dasharray:none;stroke-opacity:1"
       id="path102" /></g><g
     id="g9914"><path
       d="m 253.09866,804.65596 h 90 v 55 h -90 z"
       style="fill:none;stroke:#000000;stroke-width:1.51181;stroke-linecap:butt;stroke-linejoin:miter;stroke-miterlimit:4;stroke-dasharray:none;stroke-opacity:1"
       id="path106" /><text
       style="font-variant:normal;font-weight:normal;font-size:16px;font-family:'Liberation Sans';-inkscape-font-specification:LiberationSans;writing-mode:lr-tb;fill:#000000;fill-opacity:1;fill-rule:nonzero;stroke:none;stroke-width:1.33333"
       id="text110"
       x="264.75269"
       y="830.71832"><tspan
         x="264.75269 275.40866 284.30466 293.20065 298.52863 310.96063 319.85663 323.40863"
         y="830.71832"
         id="tspan108"
         style="stroke-width:1.33333">Add-Only</tspan></text><text
       style="font-variant:normal;font-weight:normal;font-size:16px;font-family:'Liberation Sans';-inkscape-font-specification:LiberationSans;writing-mode:lr-tb;fill:#000000;fill-opacity:1;fill-rule:nonzero;stroke:none;stroke-width:1.33333"
       id="text114"
       x="285.0535"
       y="848.65436"><tspan
         x="285.0535 293.94949 297.5015 305.50146"
         y="848.65436"
         id="tspan112"
         style="stroke-width:1.33333">List</tspan></text></g><g
     id="g116"
     transform="matrix(1.3333333,0,0,1.3333333,0,-1.6608968e-5)"><path
       d="m 111.074,511.992 h 176.25 v 67.5 h -176.25 z"
       style="fill:none;stroke:#000000;stroke-width:1.13386;stroke-linecap:butt;stroke-linejoin:miter;stroke-miterlimit:4;stroke-dasharray:none;stroke-opacity:1"
       id="path118" /></g><text
     style="font-variant:normal;font-weight:normal;font-size:16px;font-family:'Liberation Sans';-inkscape-font-specification:LiberationSans;writing-mode:lr-tb;fill:#000000;fill-opacity:1;fill-rule:nonzero;stroke:none;stroke-width:1.33333"
     id="text122"
     x="197.85803"
     y="704.71771"><tspan
       x="197.85803 206.73801 214.73801 223.634 232.52998 237.85799 248.51398 257.40997 261.84198 270.73795 275.16995 288.49792 297.39392 310.72192 319.61792 324.94592"
       y="704.71771"
       id="tspan120"
       style="stroke-width:1.33333">Type-Safe Memory</tspan></text><g
     id="g124"
     transform="matrix(1.3333333,0,0,1.3333333,0,-1.6608968e-5)"><path
       d="m 287.324,536.742 -176.25,0.75"
       style="fill:none;stroke:#000000;stroke-width:1.70079;stroke-linecap:butt;stroke-linejoin:miter;stroke-miterlimit:4;stroke-dasharray:1.70079, 1.70079;stroke-dashoffset:0;stroke-opacity:1"
       id="path126" /></g><text
     style="font-variant:normal;font-weight:normal;font-size:16px;font-family:'Liberation Sans';-inkscape-font-specification:LiberationSans;writing-mode:lr-tb;fill:#000000;fill-opacity:1;fill-rule:nonzero;stroke:none;stroke-width:1.33333"
     id="text132"
     x="161.73711"
     y="760.83557"><tspan
       x="161.73711 171.06509 175.49709 187.04909 195.94508 200.37708 209.27307 214.60107 219.92905 228.82504 237.72104 242.15303 250.15303 253.70503 262.60101 271.49701 275.92902 281.25699 290.15298 298.15298 301.70496 310.60095 323.92896 332.82495 337.25696 340.80896 349.70496"
       y="760.83557"
       id="tspan128"
       style="stroke-width:1.33333">+ Deferred slab reclamation</tspan><tspan
       x="161.73711 171.06509 175.49709 186.15309 189.70508 198.60107 207.49707 211.92908 220.82504 224.37704 227.92905 236.82504 244.82503 253.72102 258.15302 267.04901"
       y="741.79602"
       id="tspan130"
       style="stroke-width:1.33333">+ Slab allocator</tspan></text><g
     id="g9991"><path
       d="m 487.09865,662.65597 h 195 v 109.99999 h -195 z"
       style="fill:none;stroke:#000000;stroke-width:1.51181;stroke-linecap:butt;stroke-linejoin:miter;stroke-miterlimit:4;stroke-dasharray:none;stroke-opacity:1"
       id="path136" /><text
       style="font-variant:normal;font-weight:normal;font-size:16px;font-family:'Liberation Sans';-inkscape-font-specification:LiberationSans;writing-mode:lr-tb;fill:#000000;fill-opacity:1;fill-rule:nonzero;stroke:none;stroke-width:1.33333"
       id="text140"
       x="509.58862"
       y="684.7179"><tspan
         x="509.58862 520.24457 528.24457 531.79657 539.79657 544.22858 553.12457 562.02057 570.02051 578.9165 583.34851 595.78052 604.67651 613.57251 618.90051 627.79651 636.6925 641.12451 650.02051"
         y="684.7179"
         id="tspan138"
         style="stroke-width:1.33333">Existence Guarantee</tspan></text><text
       style="font-variant:normal;font-weight:normal;font-size:16px;font-family:'Liberation Sans';-inkscape-font-specification:LiberationSans;writing-mode:lr-tb;fill:#000000;fill-opacity:1;fill-rule:nonzero;stroke:none;stroke-width:1.33333"
       id="text144"
       x="500.20584"
       y="720.92279"><tspan
         x="500.20584 509.53384 513.96582 522.86182 526.41382 535.30981 543.30981 552.20581 561.10181 565.53381 573.53381 577.96582 583.29376 592.18976 600.18976 604.62177 613.51776 618.84576"
         y="720.92279"
         id="tspan142"
         style="stroke-width:1.33333">+ Linked structure</tspan></text><g
       id="g146"
       transform="matrix(1.3333333,0,0,1.3333333,0,-1.6608968e-5)"><path
         d="m 511.574,523.242 -146.25,-0.75"
         style="fill:none;stroke:#000000;stroke-width:1.70079;stroke-linecap:butt;stroke-linejoin:miter;stroke-miterlimit:4;stroke-dasharray:1.70079, 1.70079;stroke-dashoffset:0;stroke-opacity:1"
         id="path148" /></g><text
       style="font-variant:normal;font-weight:normal;font-size:16px;font-family:'Liberation Sans';-inkscape-font-specification:LiberationSans;writing-mode:lr-tb;fill:#000000;fill-opacity:1;fill-rule:nonzero;stroke:none;stroke-width:1.33333"
       id="text154"
       x="500.73709"
       y="760.83557"><tspan
         x="500.73709 510.06509 514.49707 526.04907 534.94507 539.37708 548.27307 553.60107 558.92908 567.82507 576.72101 581.15302 586.48102 595.37701 603.37701 606.92902 615.82495 629.15295 638.04895 642.48096 646.03296 654.92896"
         y="760.83557"
         id="tspan150"
         style="stroke-width:1.33333">+ Deferred reclamation</tspan><tspan
         x="500.73709 510.06509 514.49707 526.04907 534.94507 543.84106 552.73706 557.16907 566.06506 569.61707 573.16907 582.065 590.065 598.961 603.39301 612.289"
         y="741.79602"
         id="tspan152"
         style="stroke-width:1.33333">+ Heap allocator</tspan></text></g><g
     id="g156"
     transform="matrix(1.3333333,0,0,1.3333333,0,-1.6608968e-5)"><path
       d="m 58.574,603.488 v -210 h 276 v 157.5 h 28.5"
       style="fill:none;stroke:#000000;stroke-width:1.70079;stroke-linecap:butt;stroke-linejoin:miter;stroke-miterlimit:4;stroke-dasharray:none;stroke-opacity:1"
       id="path158" /></g><g
     id="g160"
     transform="matrix(-1.3333333,0,0,-1.3333333,0,-1.6608968e-5)"><path
       d="m -354.18,-546.875 -11.148,-4.098 11.148,-4.101 c -1.781,2.422 -1.769,5.734 0,8.199 z"
       style="fill:#000000;fill-opacity:1;fill-rule:evenodd;stroke:#000000;stroke-width:0.637795;stroke-linecap:butt;stroke-linejoin:round;stroke-miterlimit:4;stroke-dasharray:none;stroke-opacity:1"
       id="path162" /></g><g
     id="g164"
     transform="matrix(1.3333333,0,0,1.3333333,0,-1.6608968e-5)"><path
       d="M 275.324,691.992 V 583.242"
       style="fill:none;stroke:#000000;stroke-width:1.70079;stroke-linecap:butt;stroke-linejoin:miter;stroke-miterlimit:4;stroke-dasharray:none;stroke-opacity:1"
       id="path166" /></g><g
     id="g168"
     transform="matrix(0,1.3333333,-1.3333333,0,0,-1.6608968e-5)"><path
       d="m 592.137,-271.207 -11.149,-4.102 11.149,-4.101 c -1.782,2.422 -1.77,5.734 0,8.203 z"
       style="fill:#000000;fill-opacity:1;fill-rule:evenodd;stroke:#000000;stroke-width:0.637795;stroke-linecap:butt;stroke-linejoin:round;stroke-miterlimit:4;stroke-dasharray:none;stroke-opacity:1"
       id="path170" /></g><g
     id="g172"
     transform="matrix(1.3333333,0,0,1.3333333,0,-1.6608968e-5)"><path
       d="M 492.074,691.992 V 583.242"
       style="fill:none;stroke:#000000;stroke-width:1.70079;stroke-linecap:butt;stroke-linejoin:miter;stroke-miterlimit:4;stroke-dasharray:none;stroke-opacity:1"
       id="path174" /></g><g
     id="g176"
     transform="matrix(0,1.3333333,-1.3333333,0,0,-1.6608968e-5)"><path
       d="m 592.137,-487.957 -11.149,-4.102 11.149,-4.101 c -1.782,2.422 -1.77,5.734 0,8.203 z"
       style="fill:#000000;fill-opacity:1;fill-rule:evenodd;stroke:#000000;stroke-width:0.637795;stroke-linecap:butt;stroke-linejoin:round;stroke-miterlimit:4;stroke-dasharray:none;stroke-opacity:1"
       id="path178" /></g><g
     id="g194"
     transform="matrix(1.3333333,0,0,1.3333333,0,-1.6608968e-5)"><path
       d="m 458.477,496.668 -0.153,-34.926"
       style="fill:none;stroke:#000000;stroke-width:1.70079;stroke-linecap:butt;stroke-linejoin:miter;stroke-miterlimit:4;stroke-dasharray:none;stroke-opacity:1"
       id="path196" /></g><g
     id="g198"
     transform="matrix(0.005735,1.3333333,-1.3333333,0.005735,0,-1.6608968e-5)"><path
       d="m 472.601,-452.213 -11.15,-4.103 11.15,-4.097 c -1.783,2.419 -1.77,5.731 0,8.2 z"
       style="fill:#000000;fill-opacity:1;fill-rule:evenodd;stroke:#000000;stroke-width:0.637789;stroke-linecap:butt;stroke-linejoin:round;stroke-miterlimit:4;stroke-dasharray:none;stroke-opacity:1"
       id="path200" /></g><g
     id="g9978"><path
       d="m 117.09866,559.65597 h 295 v 95 h -295 z"
       style="fill:none;stroke:#000000;stroke-width:1.51181;stroke-linecap:butt;stroke-linejoin:miter;stroke-miterlimit:4;stroke-dasharray:none;stroke-opacity:1"
       id="path204" /><text
       style="font-variant:normal;font-weight:normal;font-size:16px;font-family:'Liberation Sans';-inkscape-font-specification:LiberationSans;writing-mode:lr-tb;fill:#000000;fill-opacity:1;fill-rule:nonzero;stroke:none;stroke-width:1.33333"
       id="text208"
       x="139.60812"
       y="583.71765"><tspan
         x="139.60812 148.5041 152.05611 160.95209 169.84808 174.28009 179.60809 194.40808 203.30408 206.85605 215.75204 224.64804 229.08003 233.51204 245.94403 254.84003 260.168 269.064 277.96002 286.85599 295.75198 300.18396 311.73596 320.63196 324.18396 327.73596 336.63196 344.63196 349.06396 357.95996 363.2879 367.71991 372.15192 381.04791"
         y="583.71765"
         id="tspan206"
         style="stroke-width:1.33333">Light-Weight Garbage Collector for</tspan></text><path
       d="m 411.09866,618.65597 h -295"
       style="fill:none;stroke:#000000;stroke-width:2.26772;stroke-linecap:butt;stroke-linejoin:miter;stroke-miterlimit:4;stroke-dasharray:2.26772, 2.26772;stroke-dashoffset:0;stroke-opacity:1"
       id="path212" /><text
       style="font-variant:normal;font-weight:normal;font-size:16px;font-family:'Liberation Sans';-inkscape-font-specification:LiberationSans;writing-mode:lr-tb;fill:#000000;fill-opacity:1;fill-rule:nonzero;stroke:none;stroke-width:1.33333"
       id="text216"
       x="128.73701"
       y="641.83545"><tspan
         x="128.73701 138.065 142.49699 154.04898 164.70499"
         y="641.83545"
         id="tspan214"
         style="stroke-width:1.33333">+ NBS</tspan></text><text
       style="font-variant:normal;font-weight:normal;font-size:16px;font-family:'Liberation Sans';-inkscape-font-specification:LiberationSans;writing-mode:lr-tb;fill:#000000;fill-opacity:1;fill-rule:nonzero;stroke:none;stroke-width:1.33333"
       id="text220"
       x="132.71753"
       y="603.71777"><tspan
         x="132.71753 144.26952 153.1655 162.06149 167.3895 178.04549 181.59749 190.49347 198.49347 206.49347 210.04547 218.94144 227.83743 232.26944 242.92543 250.92543 259.82141 267.82141 276.71741 282.04538 290.94138 299.83737 303.38937 311.38937 320.28537 324.71735 328.26935 337.16534 346.06134 350.49332 355.82132 367.37332 378.0293 388.6853"
         y="603.71777"
         id="tspan218"
         style="stroke-width:1.33333">Non-Blocking Synchronization (NBS)</tspan></text></g><g
     id="g222"
     transform="matrix(1.3333333,0,0,1.3333333,0,-1.6608968e-5)"><path
       d="m 201.074,512.738 v -18.75"
       style="fill:none;stroke:#000000;stroke-width:1.70079;stroke-linecap:butt;stroke-linejoin:miter;stroke-miterlimit:4;stroke-dasharray:none;stroke-opacity:1"
       id="path224" /></g><g
     id="g226"
     transform="matrix(0,1.3333333,-1.3333333,0,0,-1.6608968e-5)"><path
       d="m 502.887,-196.957 -11.149,-4.102 11.149,-4.101 c -1.782,2.422 -1.77,5.734 0,8.203 z"
       style="fill:#000000;fill-opacity:1;fill-rule:evenodd;stroke:#000000;stroke-width:0.637795;stroke-linecap:butt;stroke-linejoin:round;stroke-miterlimit:4;stroke-dasharray:none;stroke-opacity:1"
       id="path228" /></g><g
     id="g230"
     transform="matrix(1.3333333,0,0,1.3333333,0,-1.6608968e-5)"><path
       d="m 510.824,511.992 h 22.5 v -457.5"
       style="fill:none;stroke:#000000;stroke-width:1.70079;stroke-linecap:butt;stroke-linejoin:miter;stroke-miterlimit:4;stroke-dasharray:none;stroke-opacity:1"
       id="path232" /></g><g
     id="g9953"><path
       d="m 156.09866,342.65597 h 464.99999 v 135 H 156.09866 Z"
       style="fill:none;stroke:#000000;stroke-width:1.51181;stroke-linecap:butt;stroke-linejoin:miter;stroke-miterlimit:4;stroke-dasharray:none;stroke-opacity:1"
       id="path236" /><g
       id="g238"
       transform="matrix(1.3333333,0,0,1.3333333,0,-1.6608968e-5)"><path
         d="M 465.824,283.242 H 117.074"
         style="fill:none;stroke:#000000;stroke-width:1.70079;stroke-linecap:butt;stroke-linejoin:miter;stroke-miterlimit:4;stroke-dasharray:1.70079, 1.70079;stroke-dashoffset:0;stroke-opacity:1"
         id="path240" /></g><text
       style="font-variant:normal;font-weight:normal;font-size:16px;font-family:'Liberation Sans';-inkscape-font-specification:LiberationSans;writing-mode:lr-tb;fill:#000000;fill-opacity:1;fill-rule:nonzero;stroke:none;stroke-width:1.33333"
       id="text244"
       x="168.04309"
       y="399.96277"><tspan
         x="168.04309 177.37109 181.80307 193.35506 202.25105 211.14705 220.04305 228.93904 234.26703 242.26703 246.69904 250.25101 259.147 267.147 270.69901 279.595 288.49097 297.38696 301.81897 309.81897 318.71497 332.04297 340.93893 345.37097 353.37091 362.26691 367.59491 372.02692 376.45892 385.35492 389.7869 394.2189 402.2189 411.1149 420.01089 428.90689 436.90686 445.80286 454.69885 459.13086 463.56287 472.45886 481.35486 490.25079 495.5788 504.47479 508.9068 512.4588 521.35474"
         y="399.96277"
         id="tspan242"
         style="stroke-width:1.33333">+ Readers include some sort of snapshot operation</tspan></text><text
       style="font-variant:normal;font-weight:normal;font-size:16px;font-family:'Liberation Sans';-inkscape-font-specification:LiberationSans;writing-mode:lr-tb;fill:#000000;fill-opacity:1;fill-rule:nonzero;stroke:none;stroke-width:1.33333"
       id="text248"
       x="235.71753"
       y="367.71713"><tspan
         x="235.71753 248.14951 257.0455 265.94147 273.94147 277.49347 281.92548 295.25348 304.14944 307.70145 312.13345 315.68542 321.01343 330.78943 339.68542 345.01343 353.01343 356.56543 365.46143 374.35742 378.78937 390.34137 399.23737 408.13336 416.13336 419.68536 427.68533 432.11734 441.01334 449.90933 457.90933 465.90933 470.34131 481.89331 490.78931 499.6853 504.11731 509.44525 518.34125"
         y="367.71713"
         id="tspan246"
         style="stroke-width:1.33333">Quasi Multi-Version Consistency Control</tspan></text><text
       style="font-variant:normal;font-weight:normal;font-size:16px;font-family:'Liberation Sans';-inkscape-font-specification:LiberationSans;writing-mode:lr-tb;fill:#000000;fill-opacity:1;fill-rule:nonzero;stroke:none;stroke-width:1.33333"
       id="text252"
       x="168.04309"
       y="420.60938"><tspan
         x="168.04309 177.37109 181.80307 193.35506 202.25105 211.14705 219.14705 223.57904 228.90704 237.80304 241.35504 250.25101 254.68301 262.68301 267.11499 276.01099 284.90698 289.33899 294.66699 303.56299 312.45898 321.35495 330.25095 335.57895 343.57892 348.01093 356.90692 365.80292 374.69891 379.13092 390.68289 396.01089 399.5629 403.9949 412.8909 418.2189 426.21887"
         y="420.60938"
         id="tspan250"
         style="stroke-width:1.33333">+ Constraints on readers and writers:</tspan></text><text
       style="font-variant:normal;font-weight:normal;font-size:16px;font-family:'Liberation Sans';-inkscape-font-specification:LiberationSans;writing-mode:lr-tb;fill:#ffffff;fill-opacity:1;fill-rule:nonzero;stroke:none;stroke-width:1.33333"
       id="text256"
       x="168.04309"
       y="440.6098"><tspan
         x="168.04309"
         y="440.6098"
         id="tspan254"
         style="stroke-width:1.33333">+</tspan></text><text
       style="font-variant:normal;font-weight:normal;font-size:16px;font-family:'Liberation Sans';-inkscape-font-specification:LiberationSans;writing-mode:lr-tb;fill:#000000;fill-opacity:1;fill-rule:nonzero;stroke:none;stroke-width:1.33333"
       id="text260"
       x="181.81882"
       y="440.6098"><tspan
         x="181.81882 187.14682 196.0428 201.3708 205.80281 213.8028 217.3548 226.25079 235.14679 238.69876 247.59476 252.02676 260.92273 269.81873 273.37073 282.26672 290.26672 294.69873 299.13071 303.56271 308.89069 317.78668 323.11469 327.54669 335.54669 344.44269 353.33865 362.23465 371.13065 380.02664 388.02664 396.92264 401.35461 404.90662 413.80261 421.80261 429.80261 437.80261 442.23462 446.66656 451.99457 460.89056 466.21857 470.65057 478.65054 487.54654 492.87454 500.87454 504.42654 513.32251 522.21851 526.65051 535.54651 544.4425 557.77051 566.6665 575.56244 580.89044 586.21844 594.21844 599.54645"
         y="440.6098"
         id="tspan258"
         style="stroke-width:1.33333">(1) single object, (2) sequence locks, (3) version number(s),</tspan></text><text
       style="font-variant:normal;font-weight:normal;font-size:16px;font-family:'Liberation Sans';-inkscape-font-specification:LiberationSans;writing-mode:lr-tb;fill:#ffffff;fill-opacity:1;fill-rule:nonzero;stroke:none;stroke-width:1.33333"
       id="text264"
       x="168.04309"
       y="461.28735"><tspan
         x="168.04309"
         y="461.28735"
         id="tspan262"
         style="stroke-width:1.33333">+</tspan></text><text
       style="font-variant:normal;font-weight:normal;font-size:16px;font-family:'Liberation Sans';-inkscape-font-specification:LiberationSans;writing-mode:lr-tb;fill:#000000;fill-opacity:1;fill-rule:nonzero;stroke:none;stroke-width:1.33333"
       id="text268"
       x="181.81882"
       y="461.28735"><tspan
         x="181.81882 187.14682 196.0428 201.3708 205.80281 210.2348 218.2348 226.23477 235.13077 244.02676 252.92276 261.81876 270.71472 275.14673 283.14673 292.04272 300.93872 304.49072 308.04272 316.93869 325.83469 334.73068 343.62671 348.05865 352.49066 361.38666 370.28265 379.17865 383.61063 392.50662 397.83463 402.26663 407.59464 416.49063 421.8186 426.25061 439.57861 448.47461 457.37061 465.37054 469.80255 478.69855 483.13055 492.02655 500.92255 506.25052 510.68253 519.57849 528.47449 537.37048 542.69849 551.59448 560.49048 568.49048 577.38647 586.28247"
         y="461.28735"
         id="tspan266"
         style="stroke-width:1.33333">(4) Issaquah challenge, and/or (5) many other approaches</tspan></text></g><g
     id="g270"
     transform="matrix(1.3333333,0,0,1.3333333,0,-1.6608968e-5)"><path
       d="m 533.227,296.348 h -63.75"
       style="fill:none;stroke:#000000;stroke-width:1.70079;stroke-linecap:butt;stroke-linejoin:miter;stroke-miterlimit:4;stroke-dasharray:none;stroke-opacity:1"
       id="path272" /></g><g
     id="g274"
     transform="matrix(1.3333333,0,0,1.3333333,0,-1.6608968e-5)"><path
       d="m 478.375,300.465 -11.148,-4.098 11.148,-4.101 c -1.781,2.422 -1.77,5.734 0,8.199 z"
       style="fill:#000000;fill-opacity:1;fill-rule:evenodd;stroke:#000000;stroke-width:0.637795;stroke-linecap:butt;stroke-linejoin:round;stroke-miterlimit:4;stroke-dasharray:none;stroke-opacity:1"
       id="path276" /></g><g
     id="g298"
     transform="matrix(1.3333333,0,0,1.3333333,0,-1.6608968e-5)"><path
       d="M 533.23,196.598 H 469.48"
       style="fill:none;stroke:#000000;stroke-width:1.70079;stroke-linecap:butt;stroke-linejoin:miter;stroke-miterlimit:4;stroke-dasharray:none;stroke-opacity:1"
       id="path300" /></g><g
     id="g9966"><path
       d="m 156.09866,210.65598 h 464.99999 v 90 H 156.09866 Z"
       style="fill:none;stroke:#000000;stroke-width:1.51181;stroke-linecap:butt;stroke-linejoin:miter;stroke-miterlimit:4;stroke-dasharray:none;stroke-opacity:1"
       id="path280" /><g
       id="g282"
       transform="matrix(1.3333333,0,0,1.3333333,0,-1.6608968e-5)"><path
         d="M 465.824,184.242 H 117.074"
         style="fill:none;stroke:#000000;stroke-width:1.70079;stroke-linecap:butt;stroke-linejoin:miter;stroke-miterlimit:4;stroke-dasharray:1.70079, 1.70079;stroke-dashoffset:0;stroke-opacity:1"
         id="path284" /></g><text
       style="font-variant:normal;font-weight:normal;font-size:16px;font-family:'Liberation Sans';-inkscape-font-specification:LiberationSans;writing-mode:lr-tb;fill:#000000;fill-opacity:1;fill-rule:nonzero;stroke:none;stroke-width:1.33333"
       id="text288"
       x="168.04309"
       y="267.96292"><tspan
         x="168.04309 177.37109 181.80307 193.35506 202.25105 211.14705 220.04305 228.93904 234.26703 242.26703 246.69904 255.59503 263.595 268.02701 271.57898 280.47498 289.37097 292.92297 300.92297 304.47498 313.37097 322.26697 331.16296 334.71497 339.14694 348.04297 353.37091 357.80292 366.69891 375.59491 379.14691 387.14691 391.57889 400.47488 409.37088 417.37088 426.26688 435.16287 444.05887 447.61087 452.04285 455.59485 464.49084 473.38684 482.28284 485.83484 490.26685 495.59479 504.49078 508.92279 517.81879 523.14679 532.04279 540.93872 548.93872 557.83472"
         y="267.96292"
         id="tspan286"
         style="stroke-width:1.33333">+ Readers as individual or bulk unconditional references</tspan></text><text
       style="font-variant:normal;font-weight:normal;font-size:16px;font-family:'Liberation Sans';-inkscape-font-specification:LiberationSans;writing-mode:lr-tb;fill:#000000;fill-opacity:1;fill-rule:nonzero;stroke:none;stroke-width:1.33333"
       id="text292"
       x="304.67859"
       y="235.71724"><tspan
         x="304.67859 317.11057 326.00656 334.90256 342.90253 346.45453 350.88654 362.43854 371.3345 375.76651 384.66251 389.99051 398.88651 407.7825 415.7825 424.67847 429.11047 440.66248 449.55847 458.45447 467.35046"
         y="235.71724"
         id="tspan290"
         style="stroke-width:1.33333">Quasi Reference Count</tspan></text><text
       style="font-variant:normal;font-weight:normal;font-size:16px;font-family:'Liberation Sans';-inkscape-font-specification:LiberationSans;writing-mode:lr-tb;fill:#000000;fill-opacity:1;fill-rule:nonzero;stroke:none;stroke-width:1.33333"
       id="text296"
       x="168.04309"
       y="288.60953"><tspan
         x="168.04309 177.37109 181.80307 194.23506 203.13106 207.56305 211.11505 220.01105 228.90704 237.80304 241.35504 245.78702 254.68301 260.01102 263.56299 272.45898 281.35498 284.90698 293.80298 302.69897 307.13098 311.56296 320.45895 324.89096 333.78696 342.68292 348.01093 353.33893 362.23492 371.13092 374.68292 383.57892 391.57889 396.01089 400.4429 403.9949 412.8909 420.8909 428.89087 433.32288 442.21887 447.54688 451.97888 457.30682 466.20282 470.63483 479.53082 484.85883 493.75482 502.65082 510.65079"
         y="288.60953"
         id="tspan294"
         style="stroke-width:1.33333">+ Optional bridging to per-object lock or reference</tspan></text><g
       id="g302"
       transform="matrix(1.3333333,0,0,1.3333333,0,-1.6608968e-5)"><path
         d="m 478.375,200.715 -11.148,-4.098 11.148,-4.101 c -1.781,2.422 -1.77,5.734 0,8.199 z"
         style="fill:#000000;fill-opacity:1;fill-rule:evenodd;stroke:#000000;stroke-width:0.637795;stroke-linecap:butt;stroke-linejoin:round;stroke-miterlimit:4;stroke-dasharray:none;stroke-opacity:1"
         id="path304" /></g></g><g
     id="g9929"><path
       d="M 156.09866,19.65065 H 621.09865 V 167.65598 H 156.09866 Z"
       style="fill:none;stroke:#000000;stroke-width:1.51181;stroke-linecap:butt;stroke-linejoin:miter;stroke-miterlimit:4;stroke-dasharray:none;stroke-opacity:1"
       id="path308" /><g
       id="g310"
       transform="matrix(1.3333333,0,0,1.3333333,0,-1.6608968e-5)"><path
         d="M 465.824,40.988 H 117.074"
         style="fill:none;stroke:#000000;stroke-width:1.70079;stroke-linecap:butt;stroke-linejoin:miter;stroke-miterlimit:4;stroke-dasharray:1.70079, 1.70079;stroke-dashoffset:0;stroke-opacity:1"
         id="path312" /></g><text
       style="font-variant:normal;font-weight:normal;font-size:16px;font-family:'Liberation Sans';-inkscape-font-specification:LiberationSans;writing-mode:lr-tb;fill:#000000;fill-opacity:1;fill-rule:nonzero;stroke:none;stroke-width:1.33333"
       id="text316"
       x="168.04309"
       y="76.961929"><tspan
         x="168.04309 177.37109 181.80307 193.35506 202.25105 211.14705 220.04305 228.93904 234.26703 242.26703 246.69904 255.59503 263.595 268.02701 273.35498 282.25098 291.14697 300.04297 305.37097 314.26697 323.16296 326.71497 335.61096 340.04294 345.37097 354.26691 363.1629 372.0589 380.9549 386.2829 391.6109 403.1629 408.49088 412.04288 416.47488 425.37088 430.69888 435.13086 438.68286 447.57886 455.57886"
         y="76.961929"
         id="tspan314"
         style="stroke-width:1.33333">+ Readers as read-held reader-writer lock</tspan></text><text
       style="font-variant:normal;font-weight:normal;font-size:16px;font-family:'Liberation Sans';-inkscape-font-specification:LiberationSans;writing-mode:lr-tb;fill:#000000;fill-opacity:1;fill-rule:nonzero;stroke:none;stroke-width:1.33333"
       id="text320"
       x="304.67859"
       y="44.716244"><tspan
         x="304.67859 317.11057 326.00656 334.90256 342.90253 346.45453 350.88654 362.43854 371.3345 380.2305 389.1265 398.02249 403.35049 408.6785 423.47845 428.80646 432.35846 436.79047 445.68646 451.01443 455.44644 464.34244 473.23843 481.23843"
         y="44.716244"
         id="tspan318"
         style="stroke-width:1.33333">Quasi Reader-Writer Lock</tspan></text><text
       style="font-variant:normal;font-weight:normal;font-size:16px;font-family:'Liberation Sans';-inkscape-font-specification:LiberationSans;writing-mode:lr-tb;fill:#000000;fill-opacity:1;fill-rule:nonzero;stroke:none;stroke-width:1.33333"
       id="text330"
       x="168.04309"
       y="97.608521"><tspan
         x="168.04309 177.37109 181.80307 192.45906 201.35506 210.25105 214.68304 218.23505 227.13104 230.68304 235.11502 244.01102 252.01102 256.44299 267.995 276.89099 280.44299 283.995 288.427 297.323 305.323 309.75497 314.18695 323.08295 336.41095 345.30695 354.20294 359.53091 368.42691 371.97891 376.41092 384.41092 392.41092 401.30692 409.30688 418.20288 423.53088 432.42688 441.32288 444.87488 452.87488 461.77087 466.20282 469.75482 478.65082"
         y="97.608521"
         id="tspan322"
         style="stroke-width:1.33333">+ Spatial as well as temporal synchronization</tspan><tspan
         x="168.04309 177.37109 181.80307 194.23506 203.13106 207.56305 211.11505 220.01105 228.90704 237.80304 241.35504 245.78702 251.11502 260.01102 268.90698 277.80298 283.13098 287.56299 296.45898 301.78696 313.33896 318.66696 322.21893 326.65094 335.54694 339.97894 348.87494 357.77094 366.66693 371.9949 380.8909 389.7869"
         y="116.60902"
         id="tspan324"
         style="stroke-width:1.33333">+ Optional read-to-write upgrade</tspan><tspan
         x="168.04309 177.37109 181.80307 194.23506 203.13106 207.56305 211.11505 220.01105 228.90704 237.80304 241.35504 245.78702 254.68301 260.01102 263.56299 272.45898 281.35498 284.90698 293.80298 302.69897 307.13098 311.56296 320.45895 324.89096 333.78696 342.68292 348.01093 353.33893 362.23492 371.13092 374.68292 383.57892 391.57889 396.01089 400.4429 403.9949 412.8909 420.8909 428.89087 433.32288 442.21887 447.54688 451.97888 457.30682 466.20282 470.63483 479.53082 484.85883 493.75482 502.65082 510.65079"
         y="135.61081"
         id="tspan326"
         style="stroke-width:1.33333">+ Optional bridging to per-object lock or reference</tspan><tspan
         x="168.04309 177.37109 181.80307 194.23506 203.13106 207.56305 211.11505 220.01105 228.90704 237.80304 241.35504 244.90701 252.90701 257.33902 260.89099 269.78699 278.68298 287.57898 292.90698 301.80298 306.23499 315.13098 324.02695 327.57895 336.47495 340.90692 349.80292 358.69891 363.13092 372.02692 380.92291 384.47491 393.37091 401.37088 405.80289"
         y="156.61447"
         id="tspan328"
         style="stroke-width:1.33333">+ Optionally ignore deleted objects</tspan></text></g><g
     id="g332"
     transform="matrix(1.3333333,0,0,1.3333333,0,-1.6608968e-5)"><path
       d="m 533.324,54.492 h -63.75"
       style="fill:none;stroke:#000000;stroke-width:1.70079;stroke-linecap:butt;stroke-linejoin:miter;stroke-miterlimit:4;stroke-dasharray:none;stroke-opacity:1"
       id="path334" /></g><g
     id="g336"
     transform="matrix(1.3333333,0,0,1.3333333,0,-1.6608968e-5)"><path
       d="m 478.473,58.605 -11.149,-4.097 11.149,-4.102 c -1.782,2.422 -1.77,5.735 0,8.199 z"
       style="fill:#000000;fill-opacity:1;fill-rule:evenodd;stroke:#000000;stroke-width:0.637795;stroke-linecap:butt;stroke-linejoin:round;stroke-miterlimit:4;stroke-dasharray:none;stroke-opacity:1"
       id="path338" /></g><g
     id="g9906"><path
       d="m 536.09865,539.65064 h 150 v 69.99999 h -150 z"
       style="fill:none;stroke:#000000;stroke-width:1.51181;stroke-linecap:butt;stroke-linejoin:miter;stroke-miterlimit:4;stroke-dasharray:none;stroke-opacity:1"
       id="path182" /><text
       style="font-variant:normal;font-weight:normal;font-size:16px;font-family:'Liberation Sans';-inkscape-font-specification:LiberationSans;text-align:start;writing-mode:lr-tb;text-anchor:start;fill:#000000;fill-opacity:1;fill-rule:nonzero;stroke:none;stroke-width:1.33333"
       id="text188"
       x="553.61456"
       y="560.7182"><tspan
         x="554.27863 554.27863 554.27863 554.27863 565.83063 574.72662 578.27856 587.17456 591.60657 600.50256 605.83057 618.26257 627.15857 630.71057 638.71057 643.14258 652.03857 655.59058 663.59052"
         y="560.7182 560.7182 560.7182 560.7182"
         id="tspan184"
         style="text-align:start;text-anchor:start;stroke-width:1.33333">   Delete-Only List</tspan><tspan
         id="tspan186"
         style="text-align:start;text-anchor:start;stroke-width:1.33333" /></text><path
       d="m 686.09865,576.65064 -150,-1"
       style="fill:none;stroke:#000000;stroke-width:2.26772;stroke-linecap:butt;stroke-linejoin:miter;stroke-miterlimit:4;stroke-dasharray:2.26772, 2.26772;stroke-dashoffset:0;stroke-opacity:1"
       id="path192" /><text
       style="font-variant:normal;font-weight:normal;font-size:16px;font-family:'Liberation Sans';-inkscape-font-specification:LiberationSans;text-align:start;writing-mode:lr-tb;text-anchor:start;fill:#000000;fill-opacity:1;fill-rule:nonzero;stroke:none;stroke-width:1.33333"
       id="text188-2"
       x="542.27979"
       y="557.492"><tspan
         x="543.54553 548.87354 553.30548 563.96149 572.85748 581.75348 585.30548 588.85748 596.85748 605.75348 610.18549 618.18549 627.08142 635.97742 643.97736 651.97736 657.30536 660.85736 669.75336"
         y="596.09985"
         id="tspan186-5"
         style="text-align:start;text-anchor:start;stroke-width:1.33333">- Publish/subscribe</tspan></text></g></svg>
