<?xml version="1.0" encoding="UTF-8" standalone="no"?>
<!-- Creator: fig2dev Version 3.2 Patchlevel 5d -->

<!-- CreationDate: Tue Mar  4 19:08:42 2014 -->

<!-- Magnification: 1.000 -->

<svg
   xmlns:dc="http://purl.org/dc/elements/1.1/"
   xmlns:cc="http://creativecommons.org/ns#"
   xmlns:rdf="http://www.w3.org/1999/02/22-rdf-syntax-ns#"
   xmlns:svg="http://www.w3.org/2000/svg"
   xmlns="http://www.w3.org/2000/svg"
   xmlns:sodipodi="http://sodipodi.sourceforge.net/DTD/sodipodi-0.dtd"
   xmlns:inkscape="http://www.inkscape.org/namespaces/inkscape"
   width="5.0in"
   height="10.0in"
   viewBox="-12 -12 6024 12024"
   id="svg2"
   version="1.1"
   inkscape:version="0.48.3.1 r9886"
   sodipodi:docname="patterns.svg">
  <metadata
     id="metadata80">
    <rdf:RDF>
      <cc:Work
         rdf:about="">
        <dc:format>image/svg+xml</dc:format>
        <dc:type
           rdf:resource="http://purl.org/dc/dcmitype/StillImage" />
        <dc:title />
      </cc:Work>
    </rdf:RDF>
  </metadata>
  <defs
     id="defs78" />
  <sodipodi:namedview
     pagecolor="#ffffff"
     bordercolor="#666666"
     borderopacity="1"
     objecttolerance="10"
     gridtolerance="10"
     guidetolerance="10"
     inkscape:pageopacity="0"
     inkscape:pageshadow="2"
     inkscape:window-width="640"
     inkscape:window-height="480"
     id="namedview76"
     showgrid="false"
     inkscape:zoom="0.26222222"
     inkscape:cx="225"
     inkscape:cy="450"
     inkscape:window-x="952"
     inkscape:window-y="229"
     inkscape:window-maximized="0"
     inkscape:current-layer="svg2" />
  <rect
     id="rect6"
     style="fill:#87cfff;stroke:#ffffff;stroke-width:7;stroke-linecap:butt;stroke-linejoin:miter"
     rx="0"
     height="3000"
     width="6000"
     y="0"
     x="0" />
  <g
     id="g8"
     style="fill:none;stroke:#ffffff;stroke-width:1">
    <defs
       id="defs10">
      <pattern
         patternUnits="userSpaceOnUse"
         height="200"
         width="200"
         y="0"
         x="0"
         id="tile1">
        <path
           id="path13"
           d="M 50 0 75 25 100 0 M 150 0 175 25 200 0" />
        <path
           id="path15"
           d="M 0 50 25 25 75 75 125 25 175 75 200 50" />
        <path
           id="path17"
           d="M 0 100 25 75 75 125 125 75 175 125 200 100" />
        <path
           id="path19"
           d="M 0 150 25 125 75 175 125 125 175 175 200 150" />
        <path
           id="path21"
           d="M 0 200 25 175 75 225 125 175 175 225 200 200" />
      </pattern>
    </defs>
  </g>
  <rect
     id="rect23"
     style="fill:url(#tile1);stroke:#ffffff;stroke-width:7;stroke-linecap:butt;stroke-linejoin:miter"
     rx="0"
     height="3000"
     width="6000"
     y="0"
     x="0" />
  <rect
     id="rect25"
     style="fill:#00ff00;stroke:#ffffff;stroke-width:7;stroke-linecap:butt;stroke-linejoin:miter"
     rx="0"
     height="3000"
     width="6000"
     y="3000"
     x="0" />
  <g
     id="g27"
     style="fill:none;stroke:#ffffff;stroke-width:1">
    <defs
       id="defs29">
      <pattern
         patternUnits="userSpaceOnUse"
         height="200"
         width="200"
         y="0"
         x="0"
         id="tile2">
        <path
           id="path32"
           d="M 100 0 0 100" />
        <path
           id="path34"
           d="M 200 0 0 200" />
        <path
           id="path36"
           d="M 200 100 100 200" />
      </pattern>
    </defs>
  </g>
  <rect
     id="rect38"
     style="fill:url(#tile2);stroke:#ffffff;stroke-width:7;stroke-linecap:butt;stroke-linejoin:miter"
     rx="0"
     height="3000"
     width="6000"
     y="3000"
     x="0" />
  <rect
     id="rect40"
     style="fill:#ff8080;stroke:#ffffff;stroke-width:7;stroke-linecap:butt;stroke-linejoin:miter"
     rx="0"
     height="3000"
     width="6000"
     y="9000"
     x="0" />
  <g
     id="g42"
     style="fill:none;stroke:#ffffff;stroke-width:1">
    <defs
       id="defs44">
      <pattern
         patternUnits="userSpaceOnUse"
         height="200"
         width="200"
         y="0"
         x="0"
         id="tile3">
        <path
           id="path47"
           d="M 100 0 200 100" />
        <path
           id="path49"
           d="M 0 0 200 200" />
        <path
           id="path51"
           d="M 0 100 100 200" />
      </pattern>
    </defs>
  </g>
  <rect
     id="rect53"
     style="fill:url(#tile3);stroke:#ffffff;stroke-width:7;stroke-linecap:butt;stroke-linejoin:miter"
     rx="0"
     height="3000"
     width="6000"
     y="9000"
     x="0" />
  <rect
     id="rect55"
     style="fill:#ffff00;stroke:#ffbfbf;stroke-width:7;stroke-linecap:butt;stroke-linejoin:miter"
     rx="0"
     height="3000"
     width="6000"
     y="6000"
     x="0" />
  <g
     id="g57"
     style="fill:none;stroke:#ffbfbf;stroke-width:1">
    <defs
       id="defs59">
      <pattern
         patternUnits="userSpaceOnUse"
         height="200"
         width="200"
         y="0"
         x="0"
         id="tile4">
        <path
           id="path62"
           d="M 100 0 200 100" />
        <path
           id="path64"
           d="M 0 0 200 200" />
        <path
           id="path66"
           d="M 0 100 100 200" />
        <path
           id="path68"
           d="M 100 0 0 100" />
        <path
           id="path70"
           d="M 200 0 0 200" />
        <path
           id="path72"
           d="M 200 100 100 200" />
      </pattern>
    </defs>
  </g>
  <rect
     id="rect74"
     style="fill:url(#tile4);stroke:#ffbfbf;stroke-width:7;stroke-linecap:butt;stroke-linejoin:miter"
     rx="0"
     height="3000"
     width="6000"
     y="6000"
     x="0" />
</svg>
