<?xml version="1.0" encoding="UTF-8" standalone="no"?>
<!-- Created with Inkscape (http://www.inkscape.org/) -->

<svg
   xmlns:dc="http://purl.org/dc/elements/1.1/"
   xmlns:cc="http://creativecommons.org/ns#"
   xmlns:rdf="http://www.w3.org/1999/02/22-rdf-syntax-ns#"
   xmlns:svg="http://www.w3.org/2000/svg"
   xmlns="http://www.w3.org/2000/svg"
   xmlns:sodipodi="http://sodipodi.sourceforge.net/DTD/sodipodi-0.dtd"
   xmlns:inkscape="http://www.inkscape.org/namespaces/inkscape"
   width="460.03116"
   height="290.83685"
   id="svg49609"
   version="1.1"
   inkscape:version="0.48.3.1 r9886"
   sodipodi:docname="New document 91">
  <defs
     id="defs49611" />
  <sodipodi:namedview
     id="base"
     pagecolor="#ffffff"
     bordercolor="#666666"
     borderopacity="1.0"
     inkscape:pageopacity="0.0"
     inkscape:pageshadow="2"
     inkscape:zoom="0.35"
     inkscape:cx="391.89299"
     inkscape:cy="80.382283"
     inkscape:document-units="px"
     inkscape:current-layer="layer1"
     showgrid="false"
     fit-margin-left="20"
     fit-margin-right="20"
     fit-margin-top="20"
     fit-margin-bottom="10"
     inkscape:window-width="472"
     inkscape:window-height="415"
     inkscape:window-x="0"
     inkscape:window-y="24"
     inkscape:window-maximized="0" />
  <metadata
     id="metadata49614">
    <rdf:RDF>
      <cc:Work
         rdf:about="">
        <dc:format>image/svg+xml</dc:format>
        <dc:type
           rdf:resource="http://purl.org/dc/dcmitype/StillImage" />
        <dc:title></dc:title>
      </cc:Work>
    </rdf:RDF>
  </metadata>
  <g
     inkscape:label="Layer 1"
     inkscape:groupmode="layer"
     id="layer1"
     transform="translate(-81.41299,-104.80085)">
    <g
       transform="matrix(-1,0,0,1,545.59917,-1022.8338)"
       id="g6308-5-8-0-6"
       style="stroke-width:3;stroke-miterlimit:4;stroke-dasharray:none">
      <path
         inkscape:connector-curvature="0"
         id="path11040-0-5"
         d="m 93.810877,1370.2786 c 14.282173,5.8879 27.878603,13.8434 42.832513,17.7673 7.26931,0.8423 22.63749,13.382 25.47648,2.0958 -4.37033,-12.8658 15.80312,1.1655 11.48882,-12.5476 -3.1296,-3.3711 -5.31942,-2.2866 0.0803,-3.184 11.75951,-8.113 -9.37649,-9.3309 -15.06061,-7.0175 -17.77515,1.4407 -34.4907,-7.2514 -52.14355,-7.3847 -5.44842,0.7501 -11.166872,4.3117 -12.673991,10.2707 z"
         style="fill:#fdfb72;fill-opacity:1;stroke:#000000;stroke-width:3;stroke-linecap:butt;stroke-linejoin:miter;stroke-miterlimit:4;stroke-opacity:1;stroke-dasharray:none" />
      <path
         sodipodi:nodetypes="cccccc"
         id="path6715-4-1-1"
         d="m 113.55996,1218.8587 c 32.07563,16.1534 50.19852,2.9189 75.88315,5.8052 7.68188,1.0869 10.81021,10.724 6.15937,16.5905 -5.11006,7.9929 -14.87107,10.3805 -22.98877,14.16 -12.59757,5.0001 -25.84217,8.2134 -39.20958,10.3345 -14.54925,0.5635 -26.4477,-33.952 -19.84417,-46.8902 z"
         style="fill:#4d4d4d;fill-opacity:1;stroke:#000000;stroke-width:3;stroke-linecap:butt;stroke-linejoin:miter;stroke-miterlimit:4;stroke-opacity:1;stroke-dasharray:none"
         inkscape:connector-curvature="0" />
      <path
         style="fill:#fdfb72;fill-opacity:1;stroke:#000000;stroke-width:3;stroke-linecap:butt;stroke-linejoin:miter;stroke-miterlimit:4;stroke-opacity:1;stroke-dasharray:none"
         d="m 50.202559,1377.1139 c -3.955069,8.2677 -11.903347,11.25 -17.470481,17.4123 -8.246317,9.1394 4.270893,15.6409 10.329802,10.797 18.221421,-9.7956 18.572841,1.7337 27.624525,1.6143 5.811676,-0.077 10.802978,-9.4928 18.124431,-6.5243 8.945543,-1.1039 12.390904,5.2445 20.669084,0.9692 7.49876,-11.3549 -10.411008,-23.4835 -16.595943,-26.7611 -10.187035,-2.9448 -11.077202,-4.2766 -21.450203,-5.6934 -7.72546,-1.4565 -18.054249,-3.5503 -21.231215,8.186 l 0,0 z"
         id="path5099-6-2-9-9"
         sodipodi:nodetypes="cccscccccc"
         inkscape:connector-curvature="0" />
      <path
         style="fill:#4d4d4d;stroke:#000000;stroke-width:3;stroke-linecap:butt;stroke-linejoin:miter;stroke-miterlimit:4;stroke-opacity:1;stroke-dasharray:none"
         d="m 49.006805,1235.6032 c -6.771474,15.0993 -9.782556,17.1011 -12.773696,39.2187 -6.436794,47.5961 -16.627011,43.3959 -5.889099,75.2423 12.103751,35.8972 41.12472,24.0371 66.837027,27.2871 29.217433,3.6931 47.174313,-8.4093 50.696083,-42.2538 3.12208,-30.0034 -20.56854,-58.0275 -12.51072,-75.367 3.68114,-7.9215 -10.74688,-22.5927 -17.41417,-43.7366 -12.04138,-47.7698 -1.62696,-66.6689 -36.452547,-66.8583 -51.019284,-0.2776 -20.887334,60.589 -32.492878,86.4676 z"
         id="path4988-8-3-0-41"
         sodipodi:nodetypes="sssssscss"
         inkscape:connector-curvature="0" />
      <path
         style="fill:#ffffff;stroke:#000000;stroke-width:3;stroke-linecap:butt;stroke-linejoin:miter;stroke-miterlimit:4;stroke-opacity:1;stroke-dasharray:none"
         d="m 81.015265,1200.3118 c -7.205849,18.6443 -10.195839,33.6182 -15.690328,52.8001 -4.070567,14.2112 10.153237,9.6187 0.84393,22.8192 -5.119636,20.393 -19.907412,67.5947 -4.056206,86.0846 18.00067,20.0151 14.657504,12.0794 29.79765,13.0642 13.885469,0.9032 11.872959,3.6593 25.853199,0.022 15.41745,-6.3655 26.01786,-12.6481 28.51398,-39.731 1.69478,-18.3884 -4.72576,-24.5619 -11.01525,-52.2078 -4.89103,-9.3489 -4.04089,-9.4872 -1.85636,-17.2744 3.06073,-10.9108 -0.12611,-19.2627 -6.60599,-29.987 -7.0724,-11.7052 -5.83675,-27.0967 -22.61267,-26.6374 -9.27624,0.254 -25.267017,-7.7071 -24.916771,-7.9153 l 1.744816,-1.0375 0,0 z"
         id="path5044-3-7-9-8"
         sodipodi:nodetypes="csccscscssssccc"
         inkscape:connector-curvature="0" />
      <path
         style="fill:none;stroke:#000000;stroke-width:3;stroke-linecap:butt;stroke-linejoin:miter;stroke-miterlimit:4;stroke-opacity:1;stroke-dasharray:none"
         d="m 75.637963,1275.5269 c 7.785922,1.808 15.430027,-1.5885 23.162839,-1.9399"
         id="path5168-6-4-2-6"
         inkscape:connector-curvature="0" />
      <path
         style="fill:none;stroke:#000000;stroke-width:3;stroke-linecap:butt;stroke-linejoin:miter;stroke-miterlimit:4;stroke-opacity:1;stroke-dasharray:none"
         d="m 118.38948,1269.1724 c 6.81372,0.3127 5.29724,0.047 12.06706,-1.4519"
         id="path5170-9-7-8-8"
         sodipodi:nodetypes="cc"
         inkscape:connector-curvature="0" />
      <path
         sodipodi:nodetypes="ccc"
         id="path6719-5-4-3"
         d="m 34.888661,1279.7898 c -5.506889,19.7884 -8.811984,64.7537 15.502526,68.536 10.38947,-34.7446 18.081639,-62.4572 16.574387,-106.4162"
         style="fill:#4d4d4d;fill-opacity:1;stroke:#000000;stroke-width:3;stroke-linecap:butt;stroke-linejoin:miter;stroke-miterlimit:4;stroke-opacity:1;stroke-dasharray:none"
         inkscape:connector-curvature="0" />
      <g
         id="g12911-0-1-8"
         transform="translate(150.31248,752.11153)"
         style="stroke-width:3;stroke-miterlimit:4;stroke-dasharray:none">
        <path
           inkscape:connector-curvature="0"
           style="fill:#ffffff;stroke:#000000;stroke-width:3;stroke-linecap:butt;stroke-linejoin:miter;stroke-miterlimit:4;stroke-opacity:1;stroke-dasharray:none"
           d="m -70.405571,451.37041 c -4.739737,-8.7318 -9.255372,-32.8121 3.602614,-35.112 10.041841,-1.7961 12.894444,15.3525 13.55952,25.9824"
           id="path6751-53-94-0-5-2"
           sodipodi:nodetypes="css" />
        <path
           inkscape:connector-curvature="0"
           style="fill:#000000;stroke:#000000;stroke-width:3;stroke-linecap:butt;stroke-linejoin:miter;stroke-miterlimit:4;stroke-opacity:1;stroke-dasharray:none"
           d="m -61.607261,442.59571 c -2.634624,-10.85925 -3.463649,-16.0793 1.729829,-16.7889 1.929409,-0.26362 4.181251,21.8443 1.949699,18.578 -1.540156,0.5884 -3.357296,-0.46094 -3.679528,-1.7891 z"
           id="path6785-8-1-7-3-4"
           sodipodi:nodetypes="sscs" />
        <path
           inkscape:connector-curvature="0"
           style="fill:#ffffff;stroke:#000000;stroke-width:3;stroke-linecap:butt;stroke-linejoin:miter;stroke-miterlimit:4;stroke-opacity:1;stroke-dasharray:none"
           d="m -46.351037,441.28513 c -2.562232,-6.11995 -6.925814,-22.9093 0.528072,-24.10692 5.821314,-0.93521 6.314238,15.91493 6.491727,23.21558"
           id="path6751-5-1-5-1-1-8"
           sodipodi:nodetypes="css" />
        <path
           inkscape:connector-curvature="0"
           style="fill:#000000;stroke:#000000;stroke-width:3;stroke-linecap:butt;stroke-linejoin:miter;stroke-miterlimit:4;stroke-opacity:1;stroke-dasharray:none"
           d="m -44.024134,437.97678 c 0.146324,-3.5912 -3.044924,-11.75211 1.173064,-11.92297 2.517135,3.02933 2.358409,15.92773 -0.05698,19.03685 -0.752903,0.38186 -0.861902,-6.21793 -1.116054,-7.11404 l -6.2e-5,1.6e-4 z"
           id="path6785-7-9-8-6-5-0"
           sodipodi:nodetypes="ccccc" />
        <g
           transform="matrix(0.9170554,-0.12441691,0,0.9170554,-8.432544,21.584946)"
           id="g11216-7-6-1-6-8"
           style="stroke-width:3.27133989;stroke-miterlimit:4;stroke-dasharray:none">
          <path
             style="fill:#fdfb72;fill-opacity:1;stroke:#000000;stroke-width:3.27133989;stroke-linecap:butt;stroke-linejoin:miter;stroke-miterlimit:4;stroke-opacity:1;stroke-dasharray:none"
             d="m -42.634108,442.73321 c 8.37663,13.5836 27.63365,6.2819 34.4438804,17.6594 2.30295,14.8221 -26.3723604,8.6418 -33.6612404,8.1998 -5.15542,1.1103 -16.05136,-5.1504 -17.52388,-0.1674 6.14462,7.5448 16.19692,7.9058 24.20735,9.3727 6.48056,-1.5943 22.15519,4.4958 13.92534,11.8974 -5.56408,4.1849 -25.2715,-8.0433 -31.69872,-5.7605 -8.30087,-2.0583 -8.8532,-4.6783 -15.23148,-11.0856 -4.67535,-5.2117 -10.83484,-11.7602 -2.25733,-15.9921 20.6442,-10.1854 14.19641,-15.169 27.79608,-14.1237 z"
             id="path4994-3-1-9-8-8-7-4"
             sodipodi:nodetypes="ccccccccsc"
             inkscape:connector-curvature="0" />
          <path
             style="fill:#000000;fill-opacity:1;stroke:#000000;stroke-width:3.27133989;stroke-linecap:butt;stroke-linejoin:miter;stroke-miterlimit:4;stroke-opacity:1;stroke-dasharray:none"
             d="m -64.387377,461.48176 c 8.874241,6.6359 30.220699,7.08605 43.055449,5.25015 17.2042904,4.9735 -26.66892,-8.4035 -1.27429,17.7632 6.12322,10.7322 -26.76385,-6.6672 -34.80865,-9.0931 -4.62444,-1.9569 -11.602699,-11.84695 -6.972509,-13.92025 z"
             id="path4999-6-6-1-4-7-3-9"
             sodipodi:nodetypes="ccccc"
             inkscape:connector-curvature="0" />
          <path
             style="fill:#ff8080;fill-opacity:1;stroke:#000000;stroke-width:3.27133989;stroke-linecap:butt;stroke-linejoin:miter;stroke-miterlimit:4;stroke-opacity:1;stroke-dasharray:none"
             d="m -47.013678,469.69261 c 5.6335,3.4872 12.35048,5.2653 17.1993,9.9647 3.48552,-0.2393 5.94562,6.0274 0.72821,3.3789 -5.39226,-1.64 -11.55769,-1.0374 -16.19026,-4.7495 -2.66431,-1.048 -8.44109,-7.3734 -4.50909,-8.5207 0.80284,0.2397 2.25243,1.0495 2.77184,-0.073 z"
             id="path5058-8-1-0-9-0-0-2"
             inkscape:connector-curvature="0" />
        </g>
        <path
           style="fill:#ffcc00;stroke:none"
           d="m -37.669017,447.76774 c -3.836031,-2.77506 -5.036938,-7.98059 -13.244493,-7.39154 -3.724079,2.32574 -14.000839,8.88155 -8.549109,9.53975 5.320669,-0.14388 10.570995,-0.18082 15.873274,-0.30318 l 0.740023,-0.0656 0.749327,-0.0845"
           id="path7943-64-5-7-05"
           inkscape:connector-curvature="0"
           inkscape:export-filename="/home/bird/Pictures/art/Comics/CPU/2013-07-tired-locking.png"
           inkscape:export-xdpi="90"
           inkscape:export-ydpi="90" />
        <path
           style="fill:none;stroke:#000000;stroke-width:3;stroke-linecap:butt;stroke-linejoin:miter;stroke-miterlimit:4;stroke-opacity:1;stroke-dasharray:none"
           d="m -58.575066,447.62715 c 2.687608,-1.27109 4.653507,-3.23063 4.154265,-5.35948 1.039519,1.52676 2.451009,3.20489 2.553379,4.92737 0.793476,-1.09329 1.521259,-3.73513 3.223529,-3.53827 0.44231,0.94744 -0.281073,3.10372 1.929223,1.54589 0.978959,0.75282 1.388498,3.0725 2.307231,0.72189 2.099476,-2.22844 2.229405,1.50537 2.875831,1.09548"
           id="path7929-6-6-7-71"
           inkscape:connector-curvature="0"
           inkscape:export-filename="/home/bird/Pictures/art/Comics/CPU/2013-07-tired-locking.png"
           inkscape:export-xdpi="90"
           inkscape:export-ydpi="90" />
      </g>
      <path
         style="fill:#cccccc;stroke:#000000;stroke-width:3;stroke-linecap:butt;stroke-linejoin:miter;stroke-miterlimit:4;stroke-opacity:1;stroke-dasharray:none"
         d="m 235.974,1218.4071 c -3.35872,-2.5772 -4.28485,-9.7763 -9.59039,-8.6903 -3.77148,1.3256 -7.38256,3.0573 -11.22634,4.2037 -9.50881,3.4393 -19.01759,6.8787 -28.52637,10.3181 -4.80963,-0.6762 -8.91532,3.868 -13.76529,2.4304 -3.4916,-0.4625 2.32913,1.4379 2.91654,2.3441 2.30273,2.3745 5.4915,6.8186 9.17795,4.1658 2.78125,-2.278 0.51193,-7.3464 5.43726,-7.5393 3.84348,-0.7381 6.62024,-4.0737 10.50841,-4.5715 3.51107,0.9104 4.25148,5.4997 7.346,7.2287 2.39392,1.6028 4.65893,-1.3367 7.00836,-1.74 6.90463,-2.7165 13.80925,-5.4331 20.71387,-8.1497 z"
         id="path48906"
         inkscape:connector-curvature="0" />
      <path
         style="fill:#784421;stroke:#000000;stroke-width:3;stroke-linecap:butt;stroke-linejoin:miter;stroke-miterlimit:4;stroke-opacity:1;stroke-dasharray:none"
         d="m 190.21949,1227.243 c 1.27922,11.98 1.31213,24.0532 2.20906,36.0566 -0.1659,5.2796 0.86255,10.8911 -1.53066,15.8349 -3.34649,3.1273 -6.93216,-1.9099 -6.18993,-5.2605 -0.69974,-5.3599 -0.88656,-10.7537 -0.75647,-16.153 -0.0636,-10.0296 -0.23961,-20.2087 2.18273,-30.0168 0.77112,-2.0375 3.71508,-3.945 4.08527,-0.4612 z"
         id="path48909"
         inkscape:connector-curvature="0" />
      <path
         style="fill:#ffffff;stroke:none"
         d="m 228.79682,1213.0242 c 6.07562,3.1838 -2.66622,7.8869 -6.34063,6.5827 -2.62222,0.5532 -8.70075,4.479 -9.58922,1.4245 4.31713,-4.4147 10.99448,-4.6099 15.92985,-8.0072 z"
         id="path48919"
         inkscape:connector-curvature="0" />
    </g>
    <path
       style="fill:none;stroke:#000000;stroke-width:1px;stroke-linecap:butt;stroke-linejoin:miter;stroke-opacity:1"
       d="m 101.91299,255.51792 36.86132,0"
       id="path48945"
       inkscape:connector-curvature="0" />
    <path
       sodipodi:type="arc"
       style="fill:#000000;fill-opacity:1;stroke:#000000;stroke-opacity:1"
       id="path48947"
       sodipodi:cx="207.66423"
       sodipodi:cy="602.36218"
       sodipodi:rx="27.007299"
       sodipodi:ry="27.007299"
       d="m 234.67153,602.36218 c 0,14.91572 -12.09158,27.0073 -27.0073,27.0073 -14.91572,0 -27.0073,-12.09158 -27.0073,-27.0073 0,-14.91572 12.09158,-27.0073 27.0073,-27.0073 14.91572,0 27.0073,12.09158 27.0073,27.0073 z"
       transform="matrix(1.0540541,0,0,1.0540541,-35.589468,-378.3095)" />
    <path
       sodipodi:type="arc"
       style="fill:#000000;fill-opacity:1;stroke:#000000;stroke-opacity:1"
       id="path48949"
       sodipodi:cx="174.08759"
       sodipodi:cy="603.82202"
       sodipodi:rx="6.9343066"
       sodipodi:ry="6.9343066"
       d="m 181.02189,603.82202 c 0,3.82971 -3.10459,6.93431 -6.9343,6.93431 -3.82972,0 -6.93431,-3.1046 -6.93431,-6.93431 0,-3.82971 3.10459,-6.93431 6.93431,-6.93431 3.82971,0 6.9343,3.1046 6.9343,6.93431 z"
       transform="translate(-25.459268,-347.93916)" />
    <path
       sodipodi:type="arc"
       style="fill:#000000;fill-opacity:1;stroke:#000000;stroke-opacity:1"
       id="path48951"
       sodipodi:cx="164.9635"
       sodipodi:cy="602.72717"
       sodipodi:rx="2.3620934"
       sodipodi:ry="1.459854"
       d="m 167.32559,602.72717 c 0,0.80626 -1.05754,1.45986 -2.36209,1.45986 -1.30455,0 -2.36209,-0.6536 -2.36209,-1.45986 0,-0.80625 1.05754,-1.45985 2.36209,-1.45985 1.30455,0 2.36209,0.6536 2.36209,1.45985 z"
       transform="matrix(0.69098301,0,0,1,26.247184,-347.20923)" />
    <path
       style="fill:#000000;fill-opacity:1;stroke:#000000;stroke-width:1px;stroke-linecap:butt;stroke-linejoin:miter;stroke-opacity:1"
       d="m 210.49694,258.80259 c 1.99632,-46.82773 25.65303,-70.76377 71.34306,-75.18248 43.79844,-2.17358 75.96714,54.23246 41.60584,72.62773 32.83108,15.76318 3.24224,75.94823 -42.70073,72.62774 -27.96276,-2.38541 -72.24449,-23.24526 -70.24817,-70.07299 z"
       id="path48957"
       inkscape:connector-curvature="0"
       sodipodi:nodetypes="zcccz" />
    <path
       style="fill:#000000;stroke:#000000;stroke-width:1px;stroke-linecap:butt;stroke-linejoin:miter;stroke-opacity:1"
       d="m 302.13325,320.59902 c 2.01235,1.1681 2.53661,4.38284 4.63939,4.89714 0.83789,4.06505 5.36472,2.8936 3.86616,0 -1.6427,-5.0125 0.0246,-6.9924 4.1239,-4.38165 -0.72468,-1.06162 -0.25939,-3.79789 2.57744,-2.83518 -1.67556,-6.5123 9.24155,-6.62039 5.41263,-0.25775 0.78017,4.76889 11.99923,2.08014 9.27878,0.77324 1.57661,-6.67417 -4.67803,-8.4605 -9.53653,-9.02104 3.11791,-5.6964 8.72019,-1.60452 7.47458,-6.95909 3.96182,0.83899 4.03845,0.54806 1.54646,-3.35067 3.79041,-0.86186 -0.41532,-8.14751 4.38165,-4.1239 2.98627,2.38215 9.20975,-0.51181 3.60841,-3.60842 -1.9873,-1.18043 -8.68534,0.62891 -4.38165,-4.38164 7.20149,0.27829 -3.73732,-5.12303 4.38165,-5.41262 4.28192,-4.33787 -7.98602,-3.01752 -1.03097,-9.27879 1.40496,-2.57028 -7.43245,-2.00468 -10.56751,-8.50555 -8.74779,-0.73801 -17.7322,-19.48033 -10.5675,-20.10402 -8.38095,7.45047 -8.08448,23.70937 5.41263,20.36177 3.96554,4.31803 19.0043,5.2295 12.3717,1.03097 -6.26886,2.98472 1.75447,-3.067 -4.38164,-2.31969 1.21655,-2.259 -16.5,-7.0818 -10.82525,-13.40268 4.55821,2.05054 10.25289,-3.72128 14.17592,-1.03098 -2.97191,-5.38001 6.46007,-0.0262 1.54646,-6.4436 4.65871,-2.10727 1.38349,-4.3717 0.77323,-6.4436 2.52623,-4.38579 7.57529,-1.13335 3.86616,-5.67036 -9.22544,0.93188 3.25214,-6.85286 -3.86616,-4.63939 -5.22202,-6.81311 5.01512,-1.33515 6.4436,-6.4436 2.83063,-0.0736 -7.64624,-6.13705 -8.50555,-1.80421 -6.1013,-8.92569 -3.6811,-2.38275 0.25775,-7.21683 0.84345,-2.7689 -9.60062,1.55674 -4.12391,-3.09293 -3.09308,0.20493 -1.14043,-3.96039 -5.41262,-3.86615 -2.96202,-7.22894 -21.00715,8.62827 -28.618,9.46771 -28.52085,12.91013 -57.04171,25.82027 -85.56256,38.7304 l 0.48276,3.54025 0.29047,2.13012 m 89.1794,68.30213 c 3.31135,5.45191 -3.16061,6.00662 -0.77323,1.80421 -1.14742,-2.67004 -4.91624,6.07974 -5.15488,0.51549 1.69948,-4.16663 -2.30055,-4.08779 -5.41262,-3.60842 -12.91809,0.91658 3.10326,9.24104 0,10.30976 3.40342,2.53638 5.33955,4.03339 2.06195,7.99006 2.43007,3.72322 1.16544,4.12019 -2.31969,4.63939 -4.49764,1.71357 -4.46067,4.361 -5.15488,7.47458 0.006,2.32841 -3.83767,1.21588 -4.38165,-3.09293 -3.69084,-2.80537 2.03123,-1.67066 -0.77323,-3.60841 -5.17225,3.03987 -3.2495,-1.57119 -5.92811,-0.51549 -3.26456,2.88162 -4.39673,-3.00077 -2.06195,-4.89714 -2.40489,-3.14171 -0.79457,-2.66145 -1.54647,-7.21683 2.84659,-0.35839 5.55353,-7.1351 8.50555,-5.67036 -1.09608,-4.5927 -15.37778,-7.92109 -15.72237,-1.03098 -0.35224,-1.54383 1.58402,-10.71121 -5.15488,-5.92811 1.41722,8.90421 -8.25523,3.37322 -1.80421,0.25774 -1.26682,-6.66167 -10.61543,3.14248 -5.15488,-2.57743 11.28657,2.25323 -13.46774,-10.70421 -7.21683,1.54646 -1.46008,4.5369 -5.57754,-0.44453 -7.21683,3.60841 -0.40564,-2.35074 -5.71436,5.56272 -1.54646,-1.28872 -0.53583,-1.1592 2.34843,-3.16691 0.51549,-5.92811 -5.01957,1.47909 2.62835,-3.63331 4.89713,-2.57743 3.77007,-1.60964 -6.72562,-8.48114 -7.73232,-4.6394 -5.41642,1.18708 9.54153,-10.97223 -4.63939,-7.99006 1.28682,5.66355 -7.84664,3.41454 -6.95908,3.60842 3.08571,-3.25036 7.31473,-5.86962 6.44359,-11.85622 -7.14681,-4.08691 -5.27029,3.16942 -11.08298,1.8042 -1.33839,1.23992 1.36223,-5.77657 5.67036,-5.15487 1.89399,-7.94341 -10.72913,3.75696 -7.47457,-3.86616 7.60863,-1.01465 -0.439,-4.55691 -0.51549,-5.92811 7.42229,-3.0958 1.62427,-19.46781 -2.3197,-25.25891 -6.0092,2.51192 -8.30713,17.45093 -7.47457,19.84629 -4.18274,-4.77804 1.33873,8.69866 -2.83518,2.31969 -3.66427,-0.35359 -0.91038,7.21479 -4.89714,1.80421 -2.01931,-5.20632 -1.78041,7.92433 -2.83518,5.67036 -3.37575,0.14139 -5.27584,-10.00364 -7.99006,-2.57743 3.46482,3.00741 -3.1382,9.18849 -1.80421,5.15487 -3.9139,-1.05138 0.63601,-3.65695 -3.35067,-7.73231 -3.96004,4.19796 -3.16663,5.94524 -2.57744,-2.06196 -3.7344,-5.7788 -10.19527,2.34952 -5.67036,5.41263 -1.29337,2.30964 -1.94152,0.31925 -5.41263,1.28871 -3.45207,5.63492 -2.27507,4.234 -0.77323,-0.51548 -3.28283,-0.19919 0.009,-5.70047 2.57744,-5.41262 1.32473,-5.47912 -6.873,-9.76467 -7.21683,-4.89714 -2.22297,-1.88441 -6.77928,2.82787 -3.60841,0.25775 -0.91785,-2.37935 5.85399,-2.40089 2.57743,-6.18586 -7.95857,1.0798 -2.07062,0.547 -1.8042,-2.57744 -3.16122,2.12327 7.1875,-12.22808 -3.35067,-8.50555 -4.28017,2.32602 -7.02231,9.85878 -7.21683,4.38165 -10.02592,5.33478 7.37351,-8.8892 14.15305,-8.46095 15.62324,-3.70446 34.01464,3.23651 50.28292,3.56382"
       id="path48959"
       inkscape:connector-curvature="0"
       sodipodi:nodetypes="ccccccccccccccccccccccccccccccccccccccccccccccccccccccccccccccccccccccccccccccccccccccc" />
    <path
       sodipodi:type="arc"
       style="fill:#000000;fill-opacity:1;stroke:#000000;stroke-opacity:1"
       id="path48947-7"
       sodipodi:cx="207.66423"
       sodipodi:cy="602.36218"
       sodipodi:rx="27.007299"
       sodipodi:ry="27.007299"
       d="m 234.67153,602.36218 c 0,14.91572 -12.09158,27.0073 -27.0073,27.0073 -14.91572,0 -27.0073,-12.09158 -27.0073,-27.0073 0,-14.91572 12.09158,-27.0073 27.0073,-27.0073 14.91572,0 27.0073,12.09158 27.0073,27.0073 z"
       transform="matrix(0.09464033,0.07643642,-0.08291544,0.10031667,322.09633,71.50988)" />
    <path
       sodipodi:type="arc"
       style="fill:#000000;fill-opacity:1;stroke:#000000;stroke-opacity:1"
       id="path48949-3"
       sodipodi:cx="174.08759"
       sodipodi:cy="603.82202"
       sodipodi:rx="6.9343066"
       sodipodi:ry="6.9343066"
       d="m 181.02189,603.82202 c 0,3.82971 -3.10459,6.93431 -6.9343,6.93431 -3.82972,0 -6.93431,-3.1046 -6.93431,-6.93431 0,-3.82971 3.10459,-6.93431 6.93431,-6.93431 3.82971,0 6.9343,3.1046 6.9343,6.93431 z"
       transform="matrix(0.08978697,0.0725166,-0.07866336,0.09517222,320.61685,75.13489)" />
    <path
       style="fill:#000000;fill-opacity:1;stroke:#000000;stroke-width:0.11937179px;stroke-linecap:butt;stroke-linejoin:miter;stroke-opacity:1"
       d="m 293.049,148.96528 c 3.86287,-4.31193 7.86982,-4.87447 12.31978,-1.98173 4.1035,2.96925 2.55475,10.67031 -1.97748,9.92925 1.70782,3.88102 -5.68324,7.46329 -9.54711,3.81566 -2.32304,-2.25479 -4.65806,-7.45122 -0.79519,-11.76316 z"
       id="path48957-9"
       inkscape:connector-curvature="0"
       sodipodi:nodetypes="zcccz" />
    <g
       id="g49019"
       transform="matrix(0.73490394,0,0,0.73490394,88.372142,-291.98076)">
      <path
         sodipodi:nodetypes="czcc"
         inkscape:connector-curvature="0"
         id="path48996"
         d="m 188.12017,763.52281 c 0,0 44.11743,-43.63763 79.90945,-13.31824 35.79202,30.31939 13.31824,69.92077 13.31824,69.92077 -32.45618,-6.44496 -65.0869,-11.3191 -93.22769,-56.60253 z"
         style="fill:#800000;stroke:#000000;stroke-width:1px;stroke-linecap:butt;stroke-linejoin:miter;stroke-opacity:1" />
      <path
         sodipodi:nodetypes="cccc"
         inkscape:connector-curvature="0"
         id="path49017"
         d="m 203.93558,771.84671 66.59121,39.12234 c 0.71986,-17.43684 6.11938,-35.70665 -15.81542,-49.11102 -21.97289,-8.61851 -35.02624,3.87613 -50.77579,9.98868 z"
         style="fill:#000000;stroke:#000000;stroke-width:1px;stroke-linecap:butt;stroke-linejoin:miter;stroke-opacity:1" />
      <path
         sodipodi:nodetypes="ccccccccccc"
         inkscape:connector-curvature="0"
         id="path49000"
         d="m 196.44407,774.34389 c 3.70612,-2.36212 8.03875,-3.36146 12.07046,-4.99997 6.30496,0.26111 12.73729,-1.8457 18.92227,0.17246 4.34685,0.53752 9.50028,0.26572 12.71472,3.77601 2.33599,3.19753 0.96664,7.25912 0.49124,10.80438 3.48495,3.56389 6.41803,-2.36753 9.38328,-3.68601 4.60812,-2.2515 11.34764,-1.4935 13.85249,3.47538 2.6305,4.81101 2.91558,10.46993 5.1463,15.44012 1.03002,3.79909 1.43251,7.83199 0.68146,11.72084 1.73403,3.95096 -4.17689,7.21769 -6.84392,4.01281 -25.11276,-8.29956 -49.25455,-16.7843 -64.57153,-40.10332"
         style="fill:#ff5555;stroke:#000000;stroke-width:1px;stroke-linecap:butt;stroke-linejoin:miter;stroke-opacity:1" />
    </g>
    <path
       transform="matrix(0.47958328,0.35071914,-0.35071914,0.47958328,363.43596,-77.244276)"
       sodipodi:type="arc"
       style="fill:#ffffff;fill-opacity:1;stroke:#000000;stroke-width:1;stroke-linecap:round;stroke-miterlimit:4;stroke-opacity:1;stroke-dasharray:none"
       id="path49024-2"
       sodipodi:cx="170.22379"
       sodipodi:cy="492.16364"
       sodipodi:rx="10.404877"
       sodipodi:ry="20.809753"
       d="m 180.62866,492.16364 c 0,11.4929 -4.65842,20.80975 -10.40487,20.80975 -5.74646,0 -10.40488,-9.31685 -10.40488,-20.80975 0,-11.49291 4.65842,-20.80976 10.40488,-20.80976 5.74645,0 10.40487,9.31685 10.40487,20.80976 z" />
    <path
       sodipodi:type="arc"
       style="fill:#000000;fill-opacity:1;stroke:#000000;stroke-width:1;stroke-linecap:round;stroke-miterlimit:4;stroke-opacity:1;stroke-dasharray:none"
       id="path49026-5"
       sodipodi:cx="172.30475"
       sodipodi:cy="483.00735"
       sodipodi:rx="4.9943409"
       sodipodi:ry="9.9886818"
       d="m 177.29909,483.00735 c 0,5.5166 -2.23604,9.98869 -4.99434,9.98869 -2.7583,0 -4.99434,-4.47209 -4.99434,-9.98869 0,-5.51659 2.23604,-9.98868 4.99434,-9.98868 2.7583,0 4.99434,4.47209 4.99434,9.98868 z"
       transform="matrix(0.47958328,0.35071914,-0.35071914,0.47958328,363.40609,-79.716876)" />
    <path
       transform="matrix(0.47958328,0.35071914,-0.35071914,0.47958328,396.80672,-60.578246)"
       sodipodi:type="arc"
       style="fill:#ffffff;fill-opacity:1;stroke:#000000;stroke-width:1;stroke-linecap:round;stroke-miterlimit:4;stroke-opacity:1;stroke-dasharray:none"
       id="path49024-2-1"
       sodipodi:cx="170.22379"
       sodipodi:cy="492.16364"
       sodipodi:rx="10.404877"
       sodipodi:ry="20.809753"
       d="m 180.62866,492.16364 c 0,11.4929 -4.65842,20.80975 -10.40487,20.80975 -5.74646,0 -10.40488,-9.31685 -10.40488,-20.80975 0,-11.49291 4.65842,-20.80976 10.40488,-20.80976 5.74645,0 10.40487,9.31685 10.40487,20.80976 z" />
    <path
       sodipodi:type="arc"
       style="fill:#000000;fill-opacity:1;stroke:#000000;stroke-width:1;stroke-linecap:round;stroke-miterlimit:4;stroke-opacity:1;stroke-dasharray:none"
       id="path49026-5-5"
       sodipodi:cx="172.30475"
       sodipodi:cy="483.00735"
       sodipodi:rx="4.9943409"
       sodipodi:ry="9.9886818"
       d="m 177.29909,483.00735 c 0,5.5166 -2.23604,9.98869 -4.99434,9.98869 -2.7583,0 -4.99434,-4.47209 -4.99434,-9.98869 0,-5.51659 2.23604,-9.98868 4.99434,-9.98868 2.7583,0 4.99434,4.47209 4.99434,9.98868 z"
       transform="matrix(0.47958328,0.35071914,-0.35071914,0.47958328,396.77685,-63.050846)" />
    <path
       sodipodi:nodetypes="cczc"
       inkscape:connector-curvature="0"
       id="path49081"
       d="m 161.02809,256.23155 27.30847,22.96393 c 0,0 4.39391,-12.2704 -5.2755,-21.102 -9.6694,-8.8316 -22.03297,-1.86193 -22.03297,-1.86193 z"
       style="fill:#800000;fill-opacity:1;stroke:#000000;stroke-width:0.37281013px;stroke-linecap:butt;stroke-linejoin:miter;stroke-opacity:1" />
    <path
       style="fill:none;stroke:#000000;stroke-width:0.37281013px;stroke-linecap:butt;stroke-linejoin:miter;stroke-opacity:1"
       d="m 161.02809,256.23155 27.30847,22.96393 c 0,0 4.39391,-12.2704 -5.2755,-21.102 -9.6694,-8.8316 -22.03297,-1.86193 -22.03297,-1.86193 z"
       id="path49070"
       inkscape:connector-curvature="0"
       sodipodi:nodetypes="cczc" />
    <path
       style="fill:#ffffff;stroke:#000000;stroke-width:0.37281013px;stroke-linecap:butt;stroke-linejoin:miter;stroke-opacity:1"
       d="m 171.48984,253.62612 16.9745,12.94349 c -0.8656,-2.85274 -2.49556,-5.8234 -5.40574,-8.48142 -3.74531,-3.42079 -7.89009,-4.45932 -11.56876,-4.46207 z"
       id="path49074"
       inkscape:connector-curvature="0" />
    <path
       style="fill:#ffffff;stroke:#000000;stroke-width:0.37281013px;stroke-linecap:butt;stroke-linejoin:miter;stroke-opacity:1"
       d="m 164.7676,254.7096 c -2.27907,0.71809 -3.73975,1.52619 -3.73975,1.52619 l 27.30834,22.96277 c 0,0 0.68397,-1.90103 0.92037,-4.74167 L 164.7676,254.7096 z"
       id="path49078"
       inkscape:connector-curvature="0" />
    <path
       sodipodi:type="arc"
       style="fill:#ffffff;fill-opacity:1;stroke:#000000;stroke-width:1;stroke-linecap:round;stroke-miterlimit:4;stroke-opacity:1;stroke-dasharray:none"
       id="path49024-6"
       sodipodi:cx="170.22379"
       sodipodi:cy="492.16364"
       sodipodi:rx="10.404877"
       sodipodi:ry="20.809753"
       d="m 180.62866,492.16364 c 0,11.4929 -4.65842,20.80975 -10.40487,20.80975 -5.74646,0 -10.40488,-9.31685 -10.40488,-20.80975 0,-11.49291 4.65842,-20.80976 10.40488,-20.80976 5.74645,0 10.40487,9.31685 10.40487,20.80976 z"
       transform="matrix(0.35334708,0.21557644,-0.14721461,0.24129656,195.86708,86.57265)" />
    <path
       sodipodi:type="arc"
       style="fill:#000000;fill-opacity:1;stroke:#000000;stroke-width:1;stroke-linecap:round;stroke-miterlimit:4;stroke-opacity:1;stroke-dasharray:none"
       id="path49026-8"
       sodipodi:cx="172.30475"
       sodipodi:cy="483.00735"
       sodipodi:rx="4.9943409"
       sodipodi:ry="9.9886818"
       d="m 177.29909,483.00735 c 0,5.5166 -2.23604,9.98869 -4.99434,9.98869 -2.7583,0 -4.99434,-4.47209 -4.99434,-9.98869 0,-5.51659 2.23604,-9.98868 4.99434,-9.98868 2.7583,0 4.99434,4.47209 4.99434,9.98868 z"
       transform="matrix(0.35334708,0.21557644,-0.14721461,0.24129656,195.47487,85.23091)" />
    <path
       sodipodi:type="arc"
       style="fill:#ffffff;fill-opacity:1;stroke:#000000;stroke-width:1;stroke-linecap:round;stroke-miterlimit:4;stroke-opacity:1;stroke-dasharray:none"
       id="path49024-6-0"
       sodipodi:cx="170.22379"
       sodipodi:cy="492.16364"
       sodipodi:rx="10.404877"
       sodipodi:ry="20.809753"
       d="m 180.62866,492.16364 c 0,11.4929 -4.65842,20.80975 -10.40487,20.80975 -5.74646,0 -10.40488,-9.31685 -10.40488,-20.80975 0,-11.49291 4.65842,-20.80976 10.40488,-20.80976 5.74645,0 10.40487,9.31685 10.40487,20.80976 z"
       transform="matrix(0.35334708,0.21557644,-0.14721461,0.24129656,209.85147,95.60757)" />
    <path
       sodipodi:type="arc"
       style="fill:#000000;fill-opacity:1;stroke:#000000;stroke-width:1;stroke-linecap:round;stroke-miterlimit:4;stroke-opacity:1;stroke-dasharray:none"
       id="path49026-8-1"
       sodipodi:cx="172.30475"
       sodipodi:cy="483.00735"
       sodipodi:rx="4.9943409"
       sodipodi:ry="9.9886818"
       d="m 177.29909,483.00735 c 0,5.5166 -2.23604,9.98869 -4.99434,9.98869 -2.7583,0 -4.99434,-4.47209 -4.99434,-9.98869 0,-5.51659 2.23604,-9.98868 4.99434,-9.98868 2.7583,0 4.99434,4.47209 4.99434,9.98868 z"
       transform="matrix(0.35334708,0.21557644,-0.14721461,0.24129656,209.45926,94.26583)" />
    <path
       style="fill:#800000;fill-opacity:1;stroke:#000000;stroke-width:1px;stroke-linecap:butt;stroke-linejoin:miter;stroke-opacity:1"
       d="m 299.05166,162.25079 c -0.67137,-0.80578 -1.64385,-1.61324 -1.55119,-2.77061 0.16549,-0.56142 0.0205,-1.32253 -0.51719,-1.48373 0.0918,-1.81743 -0.11668,-3.64962 0.11784,-5.45773 0.38234,-0.60136 0.88456,-1.18837 1.46443,-1.58621 0.60731,-0.30857 1.30516,-0.62722 1.55535,-1.31308 0.47248,-0.78702 1.46826,-0.89282 2.2217,-1.27635 1.06843,-0.26101 2.00945,0.44534 2.94067,0.83709 0.85764,0.46676 1.58802,1.24464 1.91358,2.17035 0.0309,0.77444 0.53088,1.39556 0.61755,2.13064 0.0178,0.8354 -0.1379,1.6675 -0.0504,2.50295 0.005,0.57996 0.009,1.84969 0.003,2.02598 0,-0.30197 0,-0.60395 0,-0.90593 0.087,0.85658 0.0374,1.79384 -0.47829,2.519 0.20414,0.86733 -0.7276,1.11696 -1.23035,1.43368 -0.53606,0.62805 -1.08786,1.38917 -1.96814,1.49951 -0.71366,0.24046 -1.39109,0.97593 -2.19514,0.62973 -0.92765,-0.37504 -1.89319,-0.64702 -2.84308,-0.95529 z"
       id="path49131"
       inkscape:connector-curvature="0" />
    <path
       sodipodi:nodetypes="ccccccccccc"
       inkscape:connector-curvature="0"
       id="path49000-3"
       d="m 303.36008,164.17029 c -0.53334,-0.49426 -0.87479,-1.14588 -1.30596,-1.72257 -0.22234,-1.02012 -0.82902,-1.96144 -0.76509,-3.03597 -0.0961,-0.71828 -0.35545,-1.53176 0.0718,-2.19333 0.41394,-0.50785 1.12141,-0.45882 1.70879,-0.53125 0.42446,-0.7071 -0.64781,-0.9281 -0.98308,-1.34749 -0.55342,-0.64327 -0.71442,-1.75377 -0.024,-2.36285 0.65987,-0.6226 1.55372,-0.90526 2.25579,-1.47055 0.56494,-0.32404 1.19358,-0.55743 1.84752,-0.60009 0.55976,-0.44306 1.33026,0.3662 0.92901,0.92735 1.22444,4.06712 4.30851,7.60059 -3.71399,12.01548"
       style="fill:#ff5555;stroke:#000000;stroke-width:0.16545364px;stroke-linecap:butt;stroke-linejoin:miter;stroke-opacity:1" />
    <path
       sodipodi:type="arc"
       style="fill:#ffffff;fill-opacity:1;stroke:#000000;stroke-width:1;stroke-linecap:round;stroke-miterlimit:4;stroke-opacity:1;stroke-dasharray:none"
       id="path49024-8-6"
       sodipodi:cx="170.22379"
       sodipodi:cy="492.16364"
       sodipodi:rx="10.404877"
       sodipodi:ry="20.809753"
       d="m 180.62866,492.16364 c 0,11.4929 -4.65842,20.80975 -10.40487,20.80975 -5.74646,0 -10.40488,-9.31685 -10.40488,-20.80975 0,-11.49291 4.65842,-20.80976 10.40488,-20.80976 5.74645,0 10.40487,9.31685 10.40487,20.80976 z"
       transform="matrix(0.26724276,0,0,0.14233626,253.72518,78.72546)" />
    <path
       sodipodi:type="arc"
       style="fill:#000000;fill-opacity:1;stroke:#000000;stroke-width:1;stroke-linecap:round;stroke-miterlimit:4;stroke-opacity:1;stroke-dasharray:none"
       id="path49026-89-9"
       sodipodi:cx="172.30475"
       sodipodi:cy="483.00735"
       sodipodi:rx="4.9943409"
       sodipodi:ry="9.9886818"
       d="m 177.29909,483.00735 c 0,5.5166 -2.23604,9.98869 -4.99434,9.98869 -2.7583,0 -4.99434,-4.47209 -4.99434,-9.98869 0,-5.51659 2.23604,-9.98868 4.99434,-9.98868 2.7583,0 4.99434,4.47209 4.99434,9.98868 z"
       transform="matrix(0.20843273,0,0,0.14233626,263.21555,78.25155)" />
    <path
       sodipodi:type="arc"
       style="fill:#ffffff;fill-opacity:1;stroke:#000000;stroke-width:1;stroke-linecap:round;stroke-miterlimit:4;stroke-opacity:1;stroke-dasharray:none"
       id="path49024-8-6-3"
       sodipodi:cx="170.22379"
       sodipodi:cy="492.16364"
       sodipodi:rx="10.404877"
       sodipodi:ry="20.809753"
       d="m 180.62866,492.16364 c 0,11.4929 -4.65842,20.80975 -10.40487,20.80975 -5.74646,0 -10.40488,-9.31685 -10.40488,-20.80975 0,-11.49291 4.65842,-20.80976 10.40488,-20.80976 5.74645,0 10.40487,9.31685 10.40487,20.80976 z"
       transform="matrix(0.26724276,0,0,0.14233626,249.45934,85.64631)" />
    <path
       sodipodi:type="arc"
       style="fill:#000000;fill-opacity:1;stroke:#000000;stroke-width:1;stroke-linecap:round;stroke-miterlimit:4;stroke-opacity:1;stroke-dasharray:none"
       id="path49026-89-9-1"
       sodipodi:cx="172.30475"
       sodipodi:cy="483.00735"
       sodipodi:rx="4.9943409"
       sodipodi:ry="9.9886818"
       d="m 177.29909,483.00735 c 0,5.5166 -2.23604,9.98869 -4.99434,9.98869 -2.7583,0 -4.99434,-4.47209 -4.99434,-9.98869 0,-5.51659 2.23604,-9.98868 4.99434,-9.98868 2.7583,0 4.99434,4.47209 4.99434,9.98868 z"
       transform="matrix(0.20843273,0,0,0.14233626,258.94971,85.1724)" />
    <path
       style="fill:#000000;fill-opacity:1;stroke:#000000;stroke-width:0.11937179px;stroke-linecap:butt;stroke-linejoin:miter;stroke-opacity:1"
       d="m 288.94444,333.9055 c -3.86287,-4.31193 -7.86982,-4.87447 -12.31978,-1.98173 -4.1035,2.96925 -2.55475,10.67031 1.97748,9.92925 -1.70782,3.88102 5.68324,7.46329 9.54711,3.81566 2.32304,-2.25479 4.65806,-7.45122 0.79519,-11.76316 z"
       id="path48957-9-3"
       inkscape:connector-curvature="0"
       sodipodi:nodetypes="zcccz" />
    <path
       style="fill:#800000;fill-opacity:1;stroke:#000000;stroke-width:1px;stroke-linecap:butt;stroke-linejoin:miter;stroke-opacity:1"
       d="m 282.94178,347.19101 c 0.67137,-0.80578 1.64385,-1.61324 1.55119,-2.77061 -0.16549,-0.56142 -0.0205,-1.32253 0.51719,-1.48373 -0.0918,-1.81743 0.11668,-3.64962 -0.11784,-5.45773 -0.38234,-0.60136 -0.88456,-1.18837 -1.46443,-1.58621 -0.60731,-0.30857 -1.30516,-0.62722 -1.55535,-1.31308 -0.47248,-0.78702 -1.46826,-0.89282 -2.2217,-1.27635 -1.06843,-0.26101 -2.00945,0.44534 -2.94067,0.83709 -0.85764,0.46676 -1.58802,1.24464 -1.91358,2.17035 -0.0309,0.77444 -0.53088,1.39556 -0.61755,2.13064 -0.0178,0.8354 0.1379,1.6675 0.0504,2.50295 -0.005,0.57996 -0.009,1.84969 -0.003,2.02598 0,-0.30197 0,-0.60395 0,-0.90593 -0.087,0.85658 -0.0374,1.79384 0.47829,2.519 -0.20414,0.86733 0.7276,1.11696 1.23035,1.43368 0.53606,0.62805 1.08786,1.38917 1.96814,1.49951 0.71366,0.24046 1.39109,0.97593 2.19514,0.62973 0.92765,-0.37504 1.89319,-0.64702 2.84308,-0.95529 z"
       id="path49131-6"
       inkscape:connector-curvature="0" />
    <path
       sodipodi:nodetypes="ccccccccccc"
       inkscape:connector-curvature="0"
       id="path49000-3-8"
       d="m 281.06245,348.0159 c 0.30534,-0.65993 0.37338,-1.39243 0.55289,-2.08975 -0.18224,-1.02804 0.0209,-2.12934 -0.44674,-3.09886 -0.18423,-0.70087 -0.25367,-1.55186 -0.90038,-2.00129 -0.57595,-0.31231 -1.21164,0.002 -1.78245,0.15839 -0.66144,-0.4926 0.24626,-1.10471 0.39689,-1.62008 0.26726,-0.80538 -0.006,-1.89369 -0.87623,-2.19451 -0.84704,-0.32493 -1.78123,-0.24649 -2.64551,-0.50237 -0.64572,-0.0849 -1.31589,-0.0617 -1.93693,0.14746 -0.68618,-0.19694 -1.09111,0.8445 -0.50663,1.21094 0.41397,4.22721 -1.09492,8.66795 8.0037,9.70084"
       style="fill:#ff5555;stroke:#000000;stroke-width:0.16545364px;stroke-linecap:butt;stroke-linejoin:miter;stroke-opacity:1" />
    <path
       sodipodi:type="arc"
       style="fill:#ffffff;fill-opacity:1;stroke:#000000;stroke-width:1;stroke-linecap:round;stroke-miterlimit:4;stroke-opacity:1;stroke-dasharray:none"
       id="path49024-8-6-33"
       sodipodi:cx="170.22379"
       sodipodi:cy="492.16364"
       sodipodi:rx="10.404877"
       sodipodi:ry="20.809753"
       d="m 180.62866,492.16364 c 0,11.4929 -4.65842,20.80975 -10.40487,20.80975 -5.74646,0 -10.40488,-9.31685 -10.40488,-20.80975 0,-11.49291 4.65842,-20.80976 10.40488,-20.80976 5.74645,0 10.40487,9.31685 10.40487,20.80976 z"
       transform="matrix(0.25435008,0.08200446,-0.04367642,0.13546948,262.06564,252.36417)" />
    <path
       sodipodi:type="arc"
       style="fill:#000000;fill-opacity:1;stroke:#000000;stroke-width:1;stroke-linecap:round;stroke-miterlimit:4;stroke-opacity:1;stroke-dasharray:none"
       id="path49026-89-9-0"
       sodipodi:cx="172.30475"
       sodipodi:cy="483.00735"
       sodipodi:rx="4.9943409"
       sodipodi:ry="9.9886818"
       d="m 177.29909,483.00735 c 0,5.5166 -2.23604,9.98869 -4.99434,9.98869 -2.7583,0 -4.99434,-4.47209 -4.99434,-9.98869 0,-5.51659 2.23604,-9.98868 4.99434,-9.98868 2.7583,0 4.99434,4.47209 4.99434,9.98868 z"
       transform="matrix(0.19837724,0.06395838,-0.04367642,0.13546948,271.24358,254.82528)" />
    <path
       sodipodi:type="arc"
       style="fill:#ffffff;fill-opacity:1;stroke:#000000;stroke-width:1;stroke-linecap:round;stroke-miterlimit:4;stroke-opacity:1;stroke-dasharray:none"
       id="path49024-8-6-3-3"
       sodipodi:cx="170.22379"
       sodipodi:cy="492.16364"
       sodipodi:rx="10.404877"
       sodipodi:ry="20.809753"
       d="m 180.62866,492.16364 c 0,11.4929 -4.65842,20.80975 -10.40487,20.80975 -5.74646,0 -10.40488,-9.31685 -10.40488,-20.80975 0,-11.49291 4.65842,-20.80976 10.40488,-20.80976 5.74645,0 10.40487,9.31685 10.40487,20.80976 z"
       transform="matrix(0.25435008,0.08200446,-0.04367642,0.13546948,265.62236,261.23074)" />
    <path
       sodipodi:type="arc"
       style="fill:#000000;fill-opacity:1;stroke:#000000;stroke-width:1;stroke-linecap:round;stroke-miterlimit:4;stroke-opacity:1;stroke-dasharray:none"
       id="path49026-89-9-1-3"
       sodipodi:cx="172.30475"
       sodipodi:cy="483.00735"
       sodipodi:rx="4.9943409"
       sodipodi:ry="9.9886818"
       d="m 177.29909,483.00735 c 0,5.5166 -2.23604,9.98869 -4.99434,9.98869 -2.7583,0 -4.99434,-4.47209 -4.99434,-9.98869 0,-5.51659 2.23604,-9.98868 4.99434,-9.98868 2.7583,0 4.99434,4.47209 4.99434,9.98868 z"
       transform="matrix(0.19837724,0.06395838,-0.04367642,0.13546948,274.8003,263.69185)" />
    <path
       style="fill:#000000;stroke:#000000;stroke-width:0.88372016px;stroke-linecap:butt;stroke-linejoin:miter;stroke-opacity:1"
       d="m 248.29876,364.55119 c -3.97614,-2.42917 -10.96147,1.52169 -3.70272,2.24479 1.86833,0.35155 5.08036,-0.14518 3.70272,-2.24479 z"
       id="path49287"
       inkscape:connector-curvature="0" />
    <path
       style="fill:#000000;stroke:#000000;stroke-width:0.88372016px;stroke-linecap:butt;stroke-linejoin:miter;stroke-opacity:1"
       d="m 277.52013,361.34827 c -4.23006,-0.10926 -9.8575,1.3446 -3.10442,2.16472 1.49507,-0.0276 2.94093,-1.00153 3.10442,-2.16472 z"
       id="path49289"
       inkscape:connector-curvature="0" />
    <path
       style="fill:#000000;stroke:#000000;stroke-width:0.88372016px;stroke-linecap:butt;stroke-linejoin:miter;stroke-opacity:1"
       d="m 299.56431,366.15265 c -4.36886,-1.47541 -6.22573,3.24986 -1.2393,0.85316 l 1.2393,-0.85316 z"
       id="path49291"
       inkscape:connector-curvature="0" />
    <path
       style="fill:#000000;stroke:#000000;stroke-width:0.88372016px;stroke-linecap:butt;stroke-linejoin:miter;stroke-opacity:1"
       d="m 320.07053,362.54937 c -5.33143,0.65413 1.22521,-0.29161 2.3318,2.07409 1.90498,-0.78824 -1.38193,-2.25801 -2.3318,-2.07409 z"
       id="path49293"
       inkscape:connector-curvature="0" />
    <path
       style="fill:#000000;stroke:#000000;stroke-width:0.88372016px;stroke-linecap:butt;stroke-linejoin:miter;stroke-opacity:1"
       d="m 339.03878,355.34282 c -5.99262,-0.0914 -3.50471,3.41794 0,0 z"
       id="path49295"
       inkscape:connector-curvature="0" />
    <path
       style="fill:#000000;stroke:#000000;stroke-width:0.88372016px;stroke-linecap:butt;stroke-linejoin:miter;stroke-opacity:1"
       d="m 345.19065,363.3501 c -5.45607,-0.64055 -5.6207,4.87715 -0.38243,1.8965 0.37391,-0.6088 -0.025,-1.29786 0.38243,-1.8965 z"
       id="path49297"
       inkscape:connector-curvature="0" />
    <path
       style="fill:#000000;stroke:#000000;stroke-width:0.88372016px;stroke-linecap:butt;stroke-linejoin:miter;stroke-opacity:1"
       d="m 202.67242,366.55301 c -3.27029,-2.68483 -9.31002,0.83378 -2.55213,1.07963 0.42167,0.38719 2.62684,-1.73369 2.55213,-1.07963 z"
       id="path49299"
       inkscape:connector-curvature="0" />
    <path
       style="fill:#000000;stroke:#000000;stroke-width:0.88372016px;stroke-linecap:butt;stroke-linejoin:miter;stroke-opacity:1"
       d="m 182.67886,359.34646 c -4.03739,0.80614 2.52368,-0.46937 -3.1276,0.59615 -1.56881,2.60959 5.59728,-0.69778 2.84567,-0.0487 l 0.28193,-0.54741 z"
       id="path49301"
       inkscape:connector-curvature="0" />
    <path
       style="fill:#000000;stroke:#000000;stroke-width:0.61713493px;stroke-linecap:butt;stroke-linejoin:miter;stroke-opacity:1"
       d="m 210.36226,358.34061 c -12.52902,-0.32292 4.19576,4.68122 2.56327,0"
       id="path49303"
       inkscape:connector-curvature="0" />
    <path
       style="fill:#000000;stroke:#000000;stroke-width:0.88372016px;stroke-linecap:butt;stroke-linejoin:miter;stroke-opacity:1"
       d="m 226.25458,361.34827 c -6.88255,-3.84439 -5.94745,3.68973 0,0 z"
       id="path49305"
       inkscape:connector-curvature="0" />
    <path
       style="fill:#000000;stroke:#000000;stroke-width:0.88372016px;stroke-linecap:butt;stroke-linejoin:miter;stroke-opacity:1"
       d="m 243.68486,357.34464 c -4.17333,-0.81437 -3.66308,1.99606 0.0135,-0.0144 l 1.2755,0.60385 1.27425,0.61161"
       id="path49307"
       inkscape:connector-curvature="0" />
    <path
       style="fill:#000000;stroke:#000000;stroke-width:0.88372016px;stroke-linecap:butt;stroke-linejoin:miter;stroke-opacity:1"
       d="m 254.45063,359.34646 c -4.04899,-0.64401 2.41282,-0.0519 -2.79804,0.16583 -6.75688,-0.82024 11.97454,-1.00996 2.79804,-0.16583 z"
       id="path49309"
       inkscape:connector-curvature="0" />
    <path
       style="fill:#000000;stroke:#000000;stroke-width:0.88372016px;stroke-linecap:butt;stroke-linejoin:miter;stroke-opacity:1"
       d="m 166.27388,364.55119 c -2.97682,0.22734 -12.04495,-1.93595 -3.79478,-1.62102 1.73508,-0.44072 2.52275,1.10609 3.79478,1.62102 z"
       id="path49311"
       inkscape:connector-curvature="0" />
    <path
       style="fill:#000000;stroke:#000000;stroke-width:0.52864909px;stroke-linecap:butt;stroke-linejoin:miter;stroke-opacity:1"
       d="m 189.85604,354.71481 c -2.88378,-1.42606 -9.43263,0.439 -2.68714,-0.0105 2.90936,0.007 6.19987,0.39396 8.839,0.58366"
       id="path49313"
       inkscape:connector-curvature="0" />
    <path
       style="fill:#000000;stroke:#000000;stroke-width:0.88372016px;stroke-linecap:butt;stroke-linejoin:miter;stroke-opacity:1"
       d="m 171.91309,358.94609 c -3.19022,-0.88291 -9.93391,-2.01859 -2.6917,-1.42443 0.93289,0.43978 1.62121,1.1553 2.6917,1.42443 z"
       id="path49315"
       inkscape:connector-curvature="0" />
    <path
       style="fill:#000000;stroke:#000000;stroke-width:0.88372016px;stroke-linecap:butt;stroke-linejoin:miter;stroke-opacity:1"
       d="m 149.35625,357.745 c -5.84675,1.52176 -0.007,-0.38298 2.56328,0"
       id="path49317"
       inkscape:connector-curvature="0" />
    <path
       style="fill:#000000;stroke:#000000;stroke-width:0.88372016px;stroke-linecap:butt;stroke-linejoin:miter;stroke-opacity:1"
       d="m 134.48924,363.75047 c -3.5976,-0.42858 -7.87699,0.51613 -1.39516,1.09676 l 0.8462,-0.34337 0.54896,-0.75339 z"
       id="path49319"
       inkscape:connector-curvature="0" />
    <path
       style="fill:#000000;stroke:#000000;stroke-width:0.88372016px;stroke-linecap:butt;stroke-linejoin:miter;stroke-opacity:1"
       d="m 143.20439,364.95155 c -2.64552,0.7448 -3.0026,-1.25756 0,0 z"
       id="path49321"
       inkscape:connector-curvature="0" />
    <path
       style="fill:#000000;stroke:#000000;stroke-width:0.88372016px;stroke-linecap:butt;stroke-linejoin:miter;stroke-opacity:1"
       d="m 139.6158,359.34646 c -2.07794,0.4057 -2.00166,0.39079 0,0 z"
       id="path49323"
       inkscape:connector-curvature="0" />
    <path
       style="fill:#000000;stroke:#000000;stroke-width:0.88372016px;stroke-linecap:butt;stroke-linejoin:miter;stroke-opacity:1"
       d="m 176.52699,363.75047 c -4.39313,2.58353 4.82124,2.33787 0,0 z"
       id="path49325"
       inkscape:connector-curvature="0" />
    <path
       style="fill:#000000;stroke:#000000;stroke-width:0.88372016px;stroke-linecap:butt;stroke-linejoin:miter;stroke-opacity:1"
       d="m 215.48881,366.15265 c 2.0815,0.81278 2.0815,0.81278 0,0 z"
       id="path49327"
       inkscape:connector-curvature="0" />
    <path
       style="fill:#000000;stroke:#000000;stroke-width:0.88372016px;stroke-linecap:butt;stroke-linejoin:miter;stroke-opacity:1"
       d="m 292.75529,173.07315 c -0.26878,-4.22266 -6.96218,-6.23697 -2.53068,-1.129 0.005,0.57245 3.0598,0.73732 2.53068,1.129 z"
       id="path49299-6"
       inkscape:connector-curvature="0" />
    <path
       style="fill:#000000;stroke:#000000;stroke-width:0.88372016px;stroke-linecap:butt;stroke-linejoin:miter;stroke-opacity:1"
       d="m 274.36987,162.96211 c -3.34421,-2.40138 2.06515,1.52461 -2.56991,-1.87959 -2.97816,0.6338 4.32939,3.61565 1.97734,2.04704 l 0.59254,-0.16742 z"
       id="path49301-3"
       inkscape:connector-curvature="0" />
    <path
       style="fill:#000000;stroke:#000000;stroke-width:0.88372016px;stroke-linecap:butt;stroke-linejoin:miter;stroke-opacity:1"
       d="m 318.93349,153.50276 c -0.12395,-2.98292 2.35262,-11.97054 1.75168,-3.73626 0.38032,1.74931 -1.19294,2.48286 -1.75168,3.73626 z"
       id="path49311-6"
       inkscape:connector-curvature="0"
       inkscape:transform-center-x="-72.9982"
       inkscape:transform-center-y="-19.389591" />
    <path
       style="fill:#000000;stroke:#000000;stroke-width:0.52864909px;stroke-linecap:butt;stroke-linejoin:miter;stroke-opacity:1"
       d="m 319.48108,178.22229 c 2.52526,-1.99321 3.64985,-8.70895 1.16221,-2.42283 -1.25437,2.62507 -3.01548,5.43143 -4.31898,7.73401"
       id="path49313-4"
       inkscape:connector-curvature="0"
       inkscape:transform-center-x="112.47732"
       inkscape:transform-center-y="-38.86651" />
    <path
       style="fill:#000000;stroke:#000000;stroke-width:0.88372016px;stroke-linecap:butt;stroke-linejoin:miter;stroke-opacity:1"
       d="m 306.77197,173.6632 c -1.53141,-2.93459 -5.30273,-8.63935 -0.79538,-2.93966 0.31506,0.98205 0.26167,1.97346 0.79538,2.93966 z"
       id="path49315-7"
       inkscape:connector-curvature="0" />
    <path
       style="fill:#000000;stroke:#000000;stroke-width:0.88372016px;stroke-linecap:butt;stroke-linejoin:miter;stroke-opacity:1"
       d="m 309.38034,183.19278 c -4.39313,2.58353 4.82124,2.33787 0,0 z"
       id="path49325-3"
       inkscape:connector-curvature="0" />
    <g
       transform="matrix(-1,0,0,1,544.86544,-1023.2255)"
       id="g6308-5-8-0-6-1">
      <path
         inkscape:connector-curvature="0"
         id="path11040-0-5-1"
         d="m 93.810877,1370.2786 c 14.282173,5.8879 27.878603,13.8434 42.832513,17.7673 7.26931,0.8423 22.63749,13.382 25.47648,2.0958 -4.37033,-12.8658 15.80312,1.1655 11.48882,-12.5476 -3.1296,-3.3711 -5.31942,-2.2866 0.0803,-3.184 11.75951,-8.113 -9.37649,-9.3309 -15.06061,-7.0175 -17.77515,1.4407 -34.4907,-7.2514 -52.14355,-7.3847 -5.44842,0.7501 -11.166872,4.3117 -12.673991,10.2707 z"
         style="fill:#fdfb72;fill-opacity:1;stroke:#000000;stroke-width:1.32976675px;stroke-linecap:butt;stroke-linejoin:miter;stroke-opacity:1" />
      <path
         sodipodi:nodetypes="cccccc"
         id="path6715-4-1-1-6"
         d="m 113.55996,1218.8587 c 32.07563,16.1534 50.19852,2.9189 75.88315,5.8052 7.68188,1.0869 10.81021,10.724 6.15937,16.5905 -5.11006,7.9929 -14.87107,10.3805 -22.98877,14.16 -12.59757,5.0001 -25.84217,8.2134 -39.20958,10.3345 -14.54925,0.5635 -26.4477,-33.952 -19.84417,-46.8902 z"
         style="fill:#4d4d4d;fill-opacity:1;stroke:#000000;stroke-width:1px;stroke-linecap:butt;stroke-linejoin:miter;stroke-opacity:1"
         inkscape:connector-curvature="0" />
      <path
         style="fill:#fdfb72;fill-opacity:1;stroke:#000000;stroke-width:1.05721915px;stroke-linecap:butt;stroke-linejoin:miter;stroke-opacity:1"
         d="m 50.202559,1377.1139 c -3.955069,8.2677 -11.903347,11.25 -17.470481,17.4123 -8.246317,9.1394 4.270893,15.6409 10.329802,10.797 18.221421,-9.7956 18.572841,1.7337 27.624525,1.6143 5.811676,-0.077 10.802978,-9.4928 18.124431,-6.5243 8.945543,-1.1039 12.390904,5.2445 20.669084,0.9692 7.49876,-11.3549 -10.411008,-23.4835 -16.595943,-26.7611 -10.187035,-2.9448 -11.077202,-4.2766 -21.450203,-5.6934 -7.72546,-1.4565 -18.054249,-3.5503 -21.231215,8.186 l 0,0 z"
         id="path5099-6-2-9-9-1"
         sodipodi:nodetypes="cccscccccc"
         inkscape:connector-curvature="0" />
      <path
         style="fill:#4d4d4d;stroke:#000000;stroke-width:1px;stroke-linecap:butt;stroke-linejoin:miter;stroke-opacity:1"
         d="m 49.006805,1235.6032 c -6.771474,15.0993 -9.782556,17.1011 -12.773696,39.2187 -6.436794,47.5961 -16.627011,43.3959 -5.889099,75.2423 12.103751,35.8972 41.12472,24.0371 66.837027,27.2871 29.217433,3.6931 47.174313,-8.4093 50.696083,-42.2538 3.12208,-30.0034 -20.56854,-58.0275 -12.51072,-75.367 3.68114,-7.9215 -10.74688,-22.5927 -17.41417,-43.7366 -12.04138,-47.7698 -1.62696,-66.6689 -36.452547,-66.8583 -51.019284,-0.2776 -20.887334,60.589 -32.492878,86.4676 z"
         id="path4988-8-3-0-41-3"
         sodipodi:nodetypes="sssssscss"
         inkscape:connector-curvature="0" />
      <path
         style="fill:#ffffff;stroke:#000000;stroke-width:0.9686566px;stroke-linecap:butt;stroke-linejoin:miter;stroke-opacity:1"
         d="m 81.015265,1200.3118 c -7.205849,18.6443 -10.195839,33.6182 -15.690328,52.8001 -4.070567,14.2112 10.153237,9.6187 0.84393,22.8192 -5.119636,20.393 -19.907412,67.5947 -4.056206,86.0846 18.00067,20.0151 14.657504,12.0794 29.79765,13.0642 13.885469,0.9032 11.872959,3.6593 25.853199,0.022 15.41745,-6.3655 26.01786,-12.6481 28.51398,-39.731 1.69478,-18.3884 -4.72576,-24.5619 -11.01525,-52.2078 -4.89103,-9.3489 -4.04089,-9.4872 -1.85636,-17.2744 3.06073,-10.9108 -0.12611,-19.2627 -6.60599,-29.987 -7.0724,-11.7052 -5.83675,-27.0967 -22.61267,-26.6374 -9.27624,0.254 -25.267017,-7.7071 -24.916771,-7.9153 l 1.744816,-1.0375 0,0 z"
         id="path5044-3-7-9-8-6"
         sodipodi:nodetypes="csccscscssssccc"
         inkscape:connector-curvature="0" />
      <path
         style="fill:none;stroke:#000000;stroke-width:2;stroke-linecap:butt;stroke-linejoin:miter;stroke-miterlimit:4;stroke-opacity:1;stroke-dasharray:none"
         d="m 75.637963,1275.5269 c 7.785922,1.808 15.430027,-1.5885 23.162839,-1.9399"
         id="path5168-6-4-2-6-7"
         inkscape:connector-curvature="0" />
      <path
         style="fill:none;stroke:#000000;stroke-width:2.0993793;stroke-linecap:butt;stroke-linejoin:miter;stroke-miterlimit:4;stroke-opacity:1;stroke-dasharray:none"
         d="m 118.38948,1269.1724 c 6.81372,0.3127 5.29724,0.047 12.06706,-1.4519"
         id="path5170-9-7-8-8-8"
         sodipodi:nodetypes="cc"
         inkscape:connector-curvature="0" />
      <path
         sodipodi:nodetypes="ccc"
         id="path6719-5-4-3-8"
         d="m 34.888661,1279.7898 c -5.506889,19.7884 -8.811984,64.7537 15.502526,68.536 10.38947,-34.7446 18.081639,-62.4572 16.574387,-106.4162"
         style="fill:#4d4d4d;fill-opacity:1;stroke:#000000;stroke-width:1.82416594;stroke-linecap:butt;stroke-linejoin:miter;stroke-miterlimit:4;stroke-opacity:1;stroke-dasharray:none"
         inkscape:connector-curvature="0" />
      <g
         id="g12911-0-1-8-8"
         transform="translate(150.31248,752.11153)">
        <path
           inkscape:connector-curvature="0"
           style="fill:#ffffff;stroke:#000000;stroke-width:1;stroke-linecap:butt;stroke-linejoin:miter;stroke-miterlimit:4;stroke-opacity:1;stroke-dasharray:none"
           d="m -70.405571,451.37041 c -4.739737,-8.7318 -9.255372,-32.8121 3.602614,-35.112 10.041841,-1.7961 12.894444,15.3525 13.55952,25.9824"
           id="path6751-53-94-0-5-2-6"
           sodipodi:nodetypes="css" />
        <path
           inkscape:connector-curvature="0"
           style="fill:#000000;stroke:#000000;stroke-width:1;stroke-linecap:butt;stroke-linejoin:miter;stroke-miterlimit:4;stroke-opacity:1;stroke-dasharray:none"
           d="m -61.607261,442.59571 c -2.634624,-10.85925 -3.463649,-16.0793 1.729829,-16.7889 1.929409,-0.26362 4.181251,21.8443 1.949699,18.578 -1.540156,0.5884 -3.357296,-0.46094 -3.679528,-1.7891 z"
           id="path6785-8-1-7-3-4-3"
           sodipodi:nodetypes="sscs" />
        <path
           inkscape:connector-curvature="0"
           style="fill:#ffffff;stroke:#000000;stroke-width:1;stroke-linecap:butt;stroke-linejoin:miter;stroke-miterlimit:4;stroke-opacity:1;stroke-dasharray:none"
           d="m -46.351037,441.28513 c -2.562232,-6.11995 -6.925814,-22.9093 0.528072,-24.10692 5.821314,-0.93521 6.314238,15.91493 6.491727,23.21558"
           id="path6751-5-1-5-1-1-8-1"
           sodipodi:nodetypes="css" />
        <path
           inkscape:connector-curvature="0"
           style="fill:#000000;stroke:#000000;stroke-width:1;stroke-linecap:butt;stroke-linejoin:miter;stroke-miterlimit:4;stroke-opacity:1;stroke-dasharray:none"
           d="m -44.024134,437.97678 c 0.146324,-3.5912 -3.044924,-11.75211 1.173064,-11.92297 2.517135,3.02933 2.358409,15.92773 -0.05698,19.03685 -0.752903,0.38186 -0.861902,-6.21793 -1.116054,-7.11404 l -6.2e-5,1.6e-4 z"
           id="path6785-7-9-8-6-5-0-1"
           sodipodi:nodetypes="ccccc" />
        <g
           transform="matrix(0.9170554,-0.12441691,0,0.9170554,-8.432544,21.584946)"
           id="g11216-7-6-1-6-8-9"
           style="stroke-width:1.09044671;stroke-miterlimit:4;stroke-dasharray:none">
          <path
             style="fill:#fdfb72;fill-opacity:1;stroke:#000000;stroke-width:1.09044671;stroke-linecap:butt;stroke-linejoin:miter;stroke-miterlimit:4;stroke-opacity:1;stroke-dasharray:none"
             d="m -42.634108,442.73321 c 8.37663,13.5836 27.63365,6.2819 34.4438804,17.6594 2.30295,14.8221 -26.3723604,8.6418 -33.6612404,8.1998 -5.15542,1.1103 -16.05136,-5.1504 -17.52388,-0.1674 6.14462,7.5448 16.19692,7.9058 24.20735,9.3727 6.48056,-1.5943 22.15519,4.4958 13.92534,11.8974 -5.56408,4.1849 -25.2715,-8.0433 -31.69872,-5.7605 -8.30087,-2.0583 -8.8532,-4.6783 -15.23148,-11.0856 -4.67535,-5.2117 -10.83484,-11.7602 -2.25733,-15.9921 20.6442,-10.1854 14.19641,-15.169 27.79608,-14.1237 z"
             id="path4994-3-1-9-8-8-7-4-5"
             sodipodi:nodetypes="ccccccccsc"
             inkscape:connector-curvature="0" />
          <path
             style="fill:#000000;fill-opacity:1;stroke:#000000;stroke-width:1.09044671;stroke-linecap:butt;stroke-linejoin:miter;stroke-miterlimit:4;stroke-opacity:1;stroke-dasharray:none"
             d="m -64.387377,461.48176 c 8.874241,6.6359 30.220699,7.08605 43.055449,5.25015 17.2042904,4.9735 -26.66892,-8.4035 -1.27429,17.7632 6.12322,10.7322 -26.76385,-6.6672 -34.80865,-9.0931 -4.62444,-1.9569 -11.602699,-11.84695 -6.972509,-13.92025 z"
             id="path4999-6-6-1-4-7-3-9-3"
             sodipodi:nodetypes="ccccc"
             inkscape:connector-curvature="0" />
          <path
             style="fill:#ff8080;fill-opacity:1;stroke:#000000;stroke-width:1.09044671;stroke-linecap:butt;stroke-linejoin:miter;stroke-miterlimit:4;stroke-opacity:1;stroke-dasharray:none"
             d="m -47.013678,469.69261 c 5.6335,3.4872 12.35048,5.2653 17.1993,9.9647 3.48552,-0.2393 5.94562,6.0274 0.72821,3.3789 -5.39226,-1.64 -11.55769,-1.0374 -16.19026,-4.7495 -2.66431,-1.048 -8.44109,-7.3734 -4.50909,-8.5207 0.80284,0.2397 2.25243,1.0495 2.77184,-0.073 z"
             id="path5058-8-1-0-9-0-0-2-9"
             inkscape:connector-curvature="0" />
        </g>
        <path
           style="fill:#ffcc00;stroke:none"
           d="m -37.669017,447.76774 c -3.836031,-2.77506 -5.036938,-7.98059 -13.244493,-7.39154 -3.724079,2.32574 -14.000839,8.88155 -8.549109,9.53975 5.320669,-0.14388 10.570995,-0.18082 15.873274,-0.30318 l 0.740023,-0.0656 0.749327,-0.0845"
           id="path7943-64-5-7-05-3"
           inkscape:connector-curvature="0"
           inkscape:export-filename="/home/bird/Pictures/art/Comics/CPU/2013-07-tired-locking.png"
           inkscape:export-xdpi="90"
           inkscape:export-ydpi="90" />
        <path
           style="fill:none;stroke:#000000;stroke-width:0.76585191px;stroke-linecap:butt;stroke-linejoin:miter;stroke-opacity:1"
           d="m -58.575066,447.62715 c 2.687608,-1.27109 4.653507,-3.23063 4.154265,-5.35948 1.039519,1.52676 2.451009,3.20489 2.553379,4.92737 0.793476,-1.09329 1.521259,-3.73513 3.223529,-3.53827 0.44231,0.94744 -0.281073,3.10372 1.929223,1.54589 0.978959,0.75282 1.388498,3.0725 2.307231,0.72189 2.099476,-2.22844 2.229405,1.50537 2.875831,1.09548"
           id="path7929-6-6-7-71-1"
           inkscape:connector-curvature="0"
           inkscape:export-filename="/home/bird/Pictures/art/Comics/CPU/2013-07-tired-locking.png"
           inkscape:export-xdpi="90"
           inkscape:export-ydpi="90" />
      </g>
      <path
         style="fill:#cccccc;stroke:#000000;stroke-width:1;stroke-linecap:butt;stroke-linejoin:miter;stroke-miterlimit:4;stroke-opacity:1;stroke-dasharray:none"
         d="m 235.974,1218.4071 c -3.35872,-2.5772 -4.28485,-9.7763 -9.59039,-8.6903 -3.77148,1.3256 -7.38256,3.0573 -11.22634,4.2037 -9.50881,3.4393 -19.01759,6.8787 -28.52637,10.3181 -4.80963,-0.6762 -8.91532,3.868 -13.76529,2.4304 -3.4916,-0.4625 2.32913,1.4379 2.91654,2.3441 2.30273,2.3745 5.4915,6.8186 9.17795,4.1658 2.78125,-2.278 0.51193,-7.3464 5.43726,-7.5393 3.84348,-0.7381 6.62024,-4.0737 10.50841,-4.5715 3.51107,0.9104 4.25148,5.4997 7.346,7.2287 2.39392,1.6028 4.65893,-1.3367 7.00836,-1.74 6.90463,-2.7165 13.80925,-5.4331 20.71387,-8.1497 z"
         id="path48906-2"
         inkscape:connector-curvature="0" />
      <path
         style="fill:#784421;stroke:#000000;stroke-width:1;stroke-linecap:butt;stroke-linejoin:miter;stroke-miterlimit:4;stroke-opacity:1;stroke-dasharray:none"
         d="m 190.21949,1227.243 c 1.27922,11.98 1.31213,24.0532 2.20906,36.0566 -0.1659,5.2796 0.86255,10.8911 -1.53066,15.8349 -3.34649,3.1273 -6.93216,-1.9099 -6.18993,-5.2605 -0.69974,-5.3599 -0.88656,-10.7537 -0.75647,-16.153 -0.0636,-10.0296 -0.23961,-20.2087 2.18273,-30.0168 0.77112,-2.0375 3.71508,-3.945 4.08527,-0.4612 z"
         id="path48909-6"
         inkscape:connector-curvature="0" />
      <path
         style="fill:#ffffff;stroke:none"
         d="m 228.79682,1213.0242 c 6.07562,3.1838 -2.66622,7.8869 -6.34063,6.5827 -2.62222,0.5532 -8.70075,4.479 -9.58922,1.4245 4.31713,-4.4147 10.99448,-4.6099 15.92985,-8.0072 z"
         id="path48919-8"
         inkscape:connector-curvature="0" />
    </g>
  </g>
</svg>
